<svg width="512" height="512" viewBox="0 0 512 512" fill="none" xmlns="http://www.w3.org/2000/svg">
<g filter="url(#filter1_i_3156_7643)">
<path d="M448.541 257.379C449.819 250.123 450.486 242.66 450.486 235.041C450.486 163.774 392.173 106 320.241 106C266.766 106 220.818 137.93 200.759 183.596C184.509 169.696 163.423 161.303 140.38 161.303C89.0002 161.303 47.3485 203.029 47.3485 254.5C47.3485 257.366 47.4776 260.202 47.7304 263.002C23.0176 274.995 6.00107 300.16 6.00107 329.262C6.00107 369.986 39.3224 403 80.4264 403H431.879C472.983 403 506.305 369.986 506.305 329.262C506.305 294.213 481.623 264.875 448.541 257.379Z" fill="url(#paint0_linear_3156_7643)"/>
</g>
<defs>
<filter id="filter1_i_3156_7643" x="6" y="106" width="500.305" height="307" filterUnits="userSpaceOnUse" color-interpolation-filters="sRGB">
<feFlood flood-opacity="0" result="BackgroundImageFix"/>
<feBlend mode="normal" in="SourceGraphic" in2="BackgroundImageFix" result="shape"/>
<feColorMatrix in="SourceAlpha" type="matrix" values="0 0 0 0 0 0 0 0 0 0 0 0 0 0 0 0 0 0 127 0" result="hardAlpha"/>
<feOffset dy="11"/>
<feGaussianBlur stdDeviation="5"/>
<feComposite in2="hardAlpha" operator="arithmetic" k2="-1" k3="1"/>
<feColorMatrix type="matrix" values="0 0 0 0 1 0 0 0 0 1 0 0 0 0 1 0 0 0 1 0"/>
<feBlend mode="normal" in2="shape" result="effect1_innerShadow_3156_7643"/>
</filter>
<linearGradient id="paint0_linear_3156_7643" x1="37.8225" y1="376.482" x2="542.546" y2="-0.955465" gradientUnits="userSpaceOnUse">
<stop stop-color="#F0F0F0"/>
<stop offset="1" stop-color="white" stop-opacity="0.58"/>
</linearGradient>
</defs>
</svg>
