<?xml version="1.0" standalone="no"?>
<!DOCTYPE svg PUBLIC "-//W3C//DTD SVG 20010904//EN"
 "http://www.w3.org/TR/2001/REC-SVG-20010904/DTD/svg10.dtd">
<svg version="1.0" xmlns="http://www.w3.org/2000/svg"
 width="400.000000pt" height="400.000000pt" viewBox="0 0 400.000000 400.000000"
 preserveAspectRatio="xMidYMid meet">

<g transform="translate(0.000000,400.000000) scale(0.100000,-0.100000)"
fill="#000000" stroke="none">
<path d="M0 2000 l0 -2000 2000 0 2000 0 0 2000 0 2000 -2000 0 -2000 0 0
-2000z m1530 315 l0 -945 155 0 155 0 0 315 0 315 160 0 160 0 -2 473 -3 472
-153 3 -153 3 2 154 3 155 308 0 308 0 0 -315 0 -315 160 0 160 0 0 315 0 315
155 0 155 0 0 -315 0 -315 -155 0 -155 0 0 -315 0 -315 -315 0 -315 0 0 -315
0 -315 315 0 315 0 0 -315 0 -315 -945 0 -945 0 0 1260 0 1260 315 0 315 0 0
-945z"/>
</g>
</svg>
