<svg width="114" height="140" viewBox="0 0 114 140" fill="none" xmlns="http://www.w3.org/2000/svg">
<path d="M84.1422 8.04199C68.5693 8.04199 55.945 6.41745 55.945 4.41348C55.945 2.40951 68.5693 0.784973 84.1422 0.784973C99.7151 0.784973 112.339 2.40951 112.339 4.41348C112.339 6.41745 99.7151 8.04199 84.1422 8.04199Z" fill="#7286DF"/>
<path d="M112.338 4.41345C112.338 4.41345 114.695 77.6198 45.0542 86.7443C31.4461 88.5271 17.5429 84.9131 7.15926 75.9386C6.72142 75.56 6.28479 75.1705 5.85058 74.7666L9.07632 69.5258C9.07632 69.5258 68.14 86.2568 55.9446 4.41466C55.9446 4.41466 55.1125 7.36343 80.8144 8.04317C106.516 8.72291 112.338 4.41345 112.338 4.41345Z" fill="#D3DBFF"/>
<path d="M5.90145 74.6385L9.15623 69.6614C9.55053 69.0579 9.38 68.2415 8.77646 67.8472C8.17291 67.4529 7.35771 67.6234 6.9622 68.227L3.70742 73.2041C3.31312 73.8076 3.48365 74.624 4.08719 75.0183C4.69074 75.4126 5.50715 75.2409 5.90145 74.6385Z" fill="#D3DBFF"/>
<path d="M3.65004 73.331L7.0548 68.1229C7.46724 67.4915 7.28823 66.6376 6.65808 66.2252C6.02672 65.8127 5.17281 65.9905 4.76037 66.6219L1.35561 71.83C0.943168 72.4614 1.12097 73.3153 1.75233 73.7277C2.38369 74.1401 3.2376 73.9624 3.65004 73.331Z" fill="#D3DBFF"/>
<path d="M16.3384 70.7328C16.3384 70.7328 12.6361 75.1584 13.9182 80.7572L10.9464 78.8692C10.9464 78.8692 10.0163 73.1373 12.9482 70.3168L16.3384 70.7328Z" fill="#A52726"/>
<path d="M13.9185 80.7571V138.97H11.9494L13.2109 80.3071L13.9185 80.7571Z" fill="#A52726"/>
<path d="M12.4497 79.8247L9.52993 135.191L11.9489 135.493L13.2104 80.3073L12.4497 79.8247Z" fill="#A52726"/>
<path d="M97.0852 21.6406C105.488 21.6406 111.182 19.9001 111.482 19.8057L110.941 18.0737C110.852 18.1015 101.81 20.8544 89.9225 19.3872L89.7 21.187C92.3246 21.5124 94.8053 21.6406 97.0852 21.6406Z" fill="#6C6C6C"/>
<path d="M79.0675 32.5998C80.2008 32.5998 81.3728 32.578 82.5884 32.5321L82.5194 30.7202C66.9144 31.3081 57.9786 27.6566 57.8903 27.6191L57.1876 29.2918C57.5347 29.437 65.2381 32.5998 79.0675 32.5998Z" fill="#6C6C6C"/>
<path d="M94.6556 53.0994C97.8221 53.0994 99.9012 52.8297 100.097 52.8043L99.8553 51.007C99.7464 51.0215 88.8645 52.4185 78.3285 48.6134L77.7117 50.3188C84.0313 52.6023 90.3486 53.0994 94.6556 53.0994Z" fill="#6C6C6C"/>
<path d="M86.2574 63.3829C86.636 63.3829 87.017 63.3804 87.4028 63.3756L87.3799 61.5614C63.2019 61.8891 52.782 52.397 52.678 52.3026L51.4431 53.6306C51.8773 54.0346 62.204 63.3829 86.2574 63.3829Z" fill="#6C6C6C"/>
<path d="M83.6382 70.9107C84.4594 70.9107 84.9613 70.8865 85.0581 70.8829L84.9638 69.0711C84.8392 69.0747 72.4889 69.6432 62.109 64.2355L61.2708 65.8441C70.1038 70.4463 80.0036 70.9107 83.6382 70.9107Z" fill="#6C6C6C"/>
<path d="M55.6713 78.452L56.2192 76.7224C47.639 74.0059 43.2908 64.2742 43.2473 64.1763L41.5855 64.9044C41.7753 65.3362 46.317 75.4899 55.6713 78.452Z" fill="#6C6C6C"/>
<path d="M55.377 85.6692L55.6733 83.8791C55.6032 83.867 48.5844 82.6031 42.6506 74.9808L41.2186 76.096C47.612 84.3085 55.0625 85.6172 55.377 85.6692Z" fill="#6C6C6C"/>
<path d="M29.6665 79.566L31.1216 78.4822C28.89 75.4839 28.5599 70.4197 28.5574 70.3689L26.7468 70.4777C26.7613 70.7076 27.1157 76.137 29.6665 79.566Z" fill="#6C6C6C"/>
<path d="M25.3523 86.1831L26.8848 85.2118C26.8606 85.1731 24.4319 81.2531 24.5722 76.0244L22.7592 75.9749C22.6031 81.7793 25.2411 86.0053 25.3523 86.1831Z" fill="#6C6C6C"/>
<path d="M83.9177 9.07127C86.8967 9.07127 113.022 8.94427 113.022 4.53563C113.022 0.126998 86.8967 0 83.9177 0C80.9387 0 54.8146 0.126998 54.8146 4.53563C54.8146 8.94427 80.9387 9.07127 83.9177 9.07127ZM111.04 4.53563C109.27 5.71127 99.2602 7.25701 83.9177 7.25701C68.5751 7.25701 58.5665 5.71127 56.7958 4.53563C58.5653 3.36 68.5751 1.81425 83.9177 1.81425C99.2602 1.81425 109.27 3.36 111.04 4.53563Z" fill="#6C6C6C"/>
<path d="M55.6394 42.7172C55.0867 42.6712 54.7021 42.1511 54.8218 41.6105C54.9827 40.8896 55.1883 39.9414 55.3044 39.3124C55.3891 38.854 55.7991 38.5275 56.2635 38.5601C56.8054 38.5976 57.2021 39.102 57.1029 39.6378C56.9529 40.4445 56.7884 41.2343 56.6131 42.012C56.5103 42.4559 56.0942 42.7547 55.6394 42.7172Z" fill="#6C6C6C"/>
<path d="M4.46483 75.046L5.00909 75.554C5.4566 75.9652 5.90413 76.3644 6.33955 76.7514C14.9512 84.1898 26.248 88.2175 38.089 88.2175C40.3629 88.2175 42.6489 88.0723 44.9469 87.77C81.353 82.9924 97.9232 60.5925 105.422 42.6313C113.139 24.1501 113.054 6.47932 113.03 4.66506C112.449 4.41107 111.869 4.18126 111.288 3.97565C109.825 4.73763 102.507 7.83396 80.6152 7.2534C60.2229 6.72122 57.0298 4.72554 56.6065 4.35059V4.33849C56.026 4.3264 55.4333 4.3264 54.8407 4.33849C54.8165 4.44735 54.7923 4.64087 54.8528 4.89486C56.4493 15.6352 56.8484 25.0694 56.1106 33.2335C56.0622 33.7657 56.4735 34.2132 57.0177 34.2132C57.4895 34.2132 57.8886 33.8624 57.9249 33.3907C58.6385 25.5653 58.2998 16.6028 56.921 6.5156C61.2752 8.19681 71.7616 8.83785 80.5668 9.06765C99.9793 9.58774 108.228 7.2534 111.216 6.00761C111.143 10.6884 110.393 26.037 103.729 41.9903C93.0852 67.4382 73.2251 82.2304 44.7171 85.9678C30.953 87.77 17.4065 83.9116 7.52487 75.3726C7.28297 75.1669 7.04106 74.9492 6.79916 74.7194L9.27863 70.6918C13.0765 71.6231 31.594 75.3605 44.8985 63.6646C49.1681 59.9151 52.3854 54.9683 54.6108 48.8966C54.6471 48.824 54.6713 48.7393 54.6955 48.6668C54.7076 48.6547 54.7076 48.6426 54.7076 48.6305C54.7197 48.6305 54.7197 48.6184 54.7076 48.6063C54.7318 48.5579 54.7318 48.5095 54.7318 48.449C54.7318 47.929 54.3085 47.5177 53.8005 47.5177C53.3167 47.5177 52.9054 47.8806 52.8692 48.3523C50.7525 54.0974 47.7167 58.7661 43.7011 62.2978C29.8644 74.4654 9.30283 68.8292 9.09721 68.7687L8.44411 68.5873L4.46483 75.046Z" fill="#6C6C6C"/>
<path d="M54.7077 48.6063C54.7198 48.6184 54.7198 48.6304 54.7077 48.6304C54.7198 48.6183 54.7197 48.6184 54.7197 48.6063H54.7077Z" fill="#6C6C6C"/>
<path d="M4.57544 76.2604C4.72904 76.2604 4.88263 76.2447 5.03624 76.2132C5.6168 76.091 6.11511 75.7524 6.43805 75.2577L9.69283 70.2806C10.0158 69.7859 10.127 69.1945 10.0061 68.6127C9.88394 68.0333 9.54529 67.5338 9.0494 67.2109C8.55592 66.8879 7.96203 66.7779 7.38268 66.8976C6.80211 67.021 6.3038 67.3597 5.98086 67.8543L2.7273 72.8302C2.05844 73.8547 2.34752 75.2299 3.36955 75.8999C3.7324 76.137 4.14969 76.2604 4.57544 76.2604ZM4.91893 74.2647C4.84152 74.3844 4.72542 74.4232 4.66495 74.4365C4.60205 74.4498 4.48231 74.4594 4.36257 74.3808C4.17994 74.2611 4.1267 74.0046 4.24523 73.822L7.4988 68.8461C7.57742 68.7252 7.69353 68.6865 7.754 68.6732C7.8181 68.6599 7.93785 68.649 8.05638 68.7288C8.24022 68.8485 8.29346 69.105 8.17372 69.2876L4.91893 74.2647Z" fill="#6C6C6C"/>
<path d="M2.27554 74.9796C3.01939 74.9796 3.74869 74.6168 4.18532 73.9503L7.59008 68.741C8.27708 67.6888 7.98076 66.2748 6.9297 65.5878C6.42292 65.2564 5.81334 65.1415 5.21584 65.2661C4.61956 65.3919 4.10794 65.7402 3.77653 66.247L0.370559 71.4563C-0.316439 72.5086 -0.0201226 73.9225 1.03094 74.6095C1.41556 74.8611 1.84859 74.9796 2.27554 74.9796ZM2.66861 72.9561C2.53072 73.1678 2.23563 73.2295 2.02517 73.0904C1.81472 72.9537 1.75423 72.6586 1.89211 72.4481L5.29686 67.24C5.38758 67.1021 5.51943 67.0574 5.59079 67.0417C5.66336 67.0259 5.80123 67.0163 5.93912 67.107C6.14957 67.2436 6.21125 67.5376 6.07336 67.7492L2.66861 72.9561Z" fill="#6C6C6C"/>
<path d="M15.0714 82.8292L14.578 80.6775C13.4096 75.5759 16.7756 71.4781 16.8095 71.4369L17.8799 70.1573L12.4069 69.4848L12.0961 69.7848C8.85822 72.898 9.78591 78.8814 9.82824 79.1342L9.89353 79.5358L15.0714 82.8292ZM14.5211 71.5736C13.6104 73.0843 12.3646 75.7875 12.5303 79.0641L11.5699 78.4545C11.4441 77.245 11.2325 73.5245 13.0673 71.3946L14.5211 71.5736Z" fill="#6C6C6C"/>
<path d="M10.8004 140H14.603V80.3812L12.1151 78.804L10.8004 140ZM12.7888 138.186H12.6533L12.7888 131.905V138.186Z" fill="#6C6C6C"/>
<path d="M12.6104 136.641L13.9058 79.9396L11.4033 78.3503L8.35776 136.109L12.6104 136.641ZM11.292 114.898L10.8421 134.59L10.2579 134.517L11.292 114.898Z" fill="#6C6C6C"/>
</svg>
