<?xml version="1.0" encoding="UTF-8"?>
<svg version="1.1" xmlns="http://www.w3.org/2000/svg" width="4209" height="1855">
<path d="M0 0 C128.37 0 256.74 0 389 0 C389 383.79 389 767.58 389 1163 C452.69 1163 516.38 1163 582 1163 C582 1034.96 582 906.92 582 775 C646.02 775 710.04 775 776 775 C776 583.27 776 391.54 776 194 C714.62 194 653.24 194 590 194 C590 129.98 590 65.96 590 0 C715.73 0 841.46 0 971 0 C971 128.04 971 256.08 971 388 C1034.69 388 1098.38 388 1164 388 C1164 259.96 1164 131.92 1164 0 C1228.35 0 1292.7 0 1359 0 C1359 128.37 1359 256.74 1359 389 C1294.98 389 1230.96 389 1165 389 C1165 516.71 1165 644.42 1165 776 C1036.96 776 908.92 776 777 776 C777 903.71 777 1031.42 777 1163 C905.04 1163 1033.08 1163 1165 1163 C1165 1291.7 1165 1420.4 1165 1553 C780.55 1553 396.1 1553 0 1553 C0 1040.51 0 528.02 0 0 Z " fill="#1A0C6D" transform="translate(177,151)"/>
<path d="M0 0 C1.2687925 0.32771393 1.2687925 0.32771393 2.56321716 0.66204834 C6.76709334 1.7518291 10.96611473 2.85670017 15.15893555 3.98828125 C26.16656148 6.92691237 37.1309653 9.06005633 48.42578125 10.5546875 C49.37630371 10.68544678 50.32682617 10.81620605 51.30615234 10.95092773 C61.10545538 12.06293982 71.07860089 11.75108073 80.92578125 11.7421875 C81.95145203 11.74224792 82.9771228 11.74230835 84.03387451 11.74237061 C115.55492249 11.71618275 147.0039944 9.96489239 178.42578125 7.5546875 C184.53561579 16.8919392 188.5175873 24.72258847 186.46557617 36.05102539 C185.27514346 41.27430366 183.88535985 46.39708764 182.42578125 51.5546875 C181.10578125 56.8346875 179.78578125 62.1146875 178.42578125 67.5546875 C128.92578125 68.0496875 128.92578125 68.0496875 78.42578125 68.5546875 C83.88998909 73.41176113 88.72219385 77.60630724 94.67578125 81.5546875 C104.78263891 88.62439016 107.67417151 95.95857717 109.99116516 107.92028809 C110.78542427 112.73464213 111.16046644 117.57433512 111.5234375 122.4375 C111.60837463 123.56679932 111.69331177 124.69609863 111.78082275 125.85961914 C112.57598557 137.29716848 112.72969327 148.70979706 112.68652344 160.17138672 C112.6756949 163.58188267 112.6865639 166.99186238 112.69921875 170.40234375 C112.71069509 186.7105159 111.99772444 202.63405046 108.17578125 218.5546875 C107.84827881 219.93829468 107.84827881 219.93829468 107.51416016 221.34985352 C102.36112018 242.51451557 94.26848199 263.79473648 81.42578125 281.5546875 C80.7296875 282.53179687 80.03359375 283.50890625 79.31640625 284.515625 C74.40265442 291.24238181 69.16326973 297.51937519 63.42578125 303.5546875 C62.92449707 304.08852051 62.42321289 304.62235352 61.90673828 305.17236328 C39.78954095 328.59874001 10.88581897 345.24801207 -20.57421875 352.5546875 C-21.79794189 352.84666016 -21.79794189 352.84666016 -23.04638672 353.14453125 C-69.12018561 363.66389888 -119.06025139 355.43490435 -159.57421875 331.5546875 C-165.16131526 327.98383063 -170.76173645 324.15903543 -175.6328125 319.6484375 C-177.56511491 318.27948974 -177.56511491 318.27948974 -179.96484375 319.05078125 C-183.13170476 320.87599306 -185.69751267 323.10754672 -188.32421875 325.6171875 C-188.84790039 326.11105957 -189.37158203 326.60493164 -189.91113281 327.11376953 C-190.97258493 328.11855474 -192.03089769 329.12666745 -193.0859375 330.13818359 C-194.3972115 331.38621702 -195.73388522 332.60744722 -197.07421875 333.82421875 C-211.43234822 347.26003782 -217.87641931 365.28869865 -218.8984375 384.57421875 C-219.36766469 399.19500585 -217.06191438 411.899391 -207.57421875 423.5546875 C-193.19476763 438.55933215 -172.13630433 443.07581026 -152.18432617 444.59545898 C-151.09773555 444.67986205 -150.01114492 444.76426512 -148.89162731 444.85122585 C-136.52309661 445.76827927 -124.14415331 446.19431205 -111.75 446.58984375 C-109.26008819 446.67373185 -106.7701949 446.75817096 -104.28031921 446.84312439 C-97.79714534 447.06304991 -91.31377296 447.2763886 -84.83032227 447.48797607 C-75.70701848 447.7868994 -66.58401271 448.09480038 -57.46098328 448.40196228 C-52.62708669 448.56471168 -47.79311667 448.72488846 -42.95906067 448.88282776 C-32.4121222 449.23026903 -21.86744153 449.60438437 -11.32519531 450.07495117 C-10.43134786 450.11431573 -9.5375004 450.15368029 -8.61656666 450.19423771 C-2.38034123 450.4825655 3.80196945 450.94354522 9.98828125 451.8046875 C10.92897461 451.93327148 11.86966797 452.06185547 12.83886719 452.19433594 C46.2199516 457.03007015 76.70150748 469.20823704 101.42578125 492.5546875 C102.29976562 493.34101562 103.17375 494.12734375 104.07421875 494.9375 C129.2847775 518.55885448 140.99677915 554.47872897 142.55200195 588.29956055 C143.83062147 633.6519919 125.30496286 669.62433487 94.82421875 702.34765625 C89.06511401 708.24388253 82.88664017 713.44907471 76.42578125 718.5546875 C75.35455067 719.42725953 74.28427037 720.30099922 73.21484375 721.17578125 C31.18647117 755.27657339 -22.99250816 775.7685204 -76.57421875 781.5546875 C-77.43394287 781.64967529 -78.29366699 781.74466309 -79.17944336 781.8425293 C-88.57113553 782.75706697 -97.95995699 782.75435034 -107.38671875 782.7421875 C-108.68320847 782.74128113 -108.68320847 782.74128113 -110.00588989 782.74035645 C-123.61266436 782.71456906 -137.07110621 782.37588795 -150.57421875 780.5546875 C-151.53215332 780.42578125 -152.49008789 780.296875 -153.47705078 780.1640625 C-196.2067893 774.16982738 -241.20987292 759.13405113 -268.97265625 724.10546875 C-288.49407471 698.19214651 -294.79689879 666.55096878 -290.75439453 634.68652344 C-286.31570242 604.42324948 -271.85524887 579.19732103 -250.57421875 557.5546875 C-249.48813009 556.42983343 -248.40219531 555.30483077 -247.31640625 554.1796875 C-236.56116162 543.13320142 -224.58251507 533.95349444 -212.22705078 524.78222656 C-210.338063 523.37929738 -208.45486325 521.96877825 -206.57421875 520.5546875 C-207.27804688 520.2865625 -207.981875 520.0184375 -208.70703125 519.7421875 C-221.90396496 514.50476211 -232.89652848 507.88916514 -243.57421875 498.5546875 C-244.280625 497.98105469 -244.98703125 497.40742187 -245.71484375 496.81640625 C-251.48416448 492.05785234 -256.02765042 486.46852094 -260.57421875 480.5546875 C-261.18265625 479.77351563 -261.79109375 478.99234375 -262.41796875 478.1875 C-279.92719118 454.55004973 -285.74362343 425.79058246 -281.921875 396.86328125 C-278.06406574 372.7790554 -267.5261054 350.68422348 -252.57421875 331.5546875 C-252.16510254 331.02987793 -251.75598633 330.50506836 -251.33447266 329.96435547 C-239.28473395 314.71842476 -225.13035041 301.15949052 -209.57421875 289.5546875 C-211.05915391 286.18679332 -212.97734859 283.77102833 -215.44921875 281.0546875 C-216.24714844 280.17554688 -217.04507813 279.29640625 -217.8671875 278.390625 C-219.75389633 276.4140729 -221.63752155 274.52306681 -223.625 272.65625 C-242.11145085 255.22978885 -243.85472217 231.86938404 -244.57421875 207.5546875 C-244.77526982 199.30524643 -244.84350922 191.05623171 -244.88671875 182.8046875 C-244.89634644 181.771091 -244.90597412 180.73749451 -244.91589355 179.6725769 C-245.2531663 137.34778324 -234.26720401 95.18577165 -207.57421875 61.5546875 C-206.95691895 60.76819824 -206.95691895 60.76819824 -206.32714844 59.96582031 C-176.26247857 22.02984261 -134.64111913 -2.0706444 -86.57421875 -8.4453125 C-57.31167893 -11.80017212 -28.2913066 -7.31039748 0 0 Z M-105.57421875 42.5546875 C-106.47269531 42.96203125 -107.37117188 43.369375 -108.296875 43.7890625 C-128.59743719 53.72027278 -142.04947836 74.39318761 -149.41870117 95.12988281 C-151.99255549 102.73278061 -154.18473234 110.39724819 -155.88671875 118.2421875 C-156.10763184 119.25297363 -156.10763184 119.25297363 -156.33300781 120.28417969 C-159.38393957 135.61028886 -159.94969007 151.04136152 -159.88671875 166.6171875 C-159.88489594 167.55701477 -159.88307312 168.49684204 -159.88119507 169.46514893 C-159.7527027 208.9244433 -152.87019048 248.42704722 -128.57421875 280.5546875 C-128.03539063 281.27914062 -127.4965625 282.00359375 -126.94140625 282.75 C-114.39714603 298.32001143 -94.27518835 309.10636724 -74.57421875 311.5546875 C-50.07619337 312.91019784 -27.83850052 309.98347949 -8.67578125 293.48046875 C-7.98226562 292.84496094 -7.28875 292.20945312 -6.57421875 291.5546875 C-5.94257813 290.99136719 -5.3109375 290.42804688 -4.66015625 289.84765625 C14.58535767 271.74669933 22.48349725 243.82231221 26.42578125 218.5546875 C26.5429248 217.83216797 26.66006836 217.10964844 26.78076172 216.36523438 C34.18966581 168.14680956 28.95523997 109.95483523 -0.30078125 69.515625 C-14.03937779 51.62240132 -32.99702821 38.83361456 -55.57421875 35.5546875 C-73.17203076 33.41572692 -89.48933435 34.61491478 -105.57421875 42.5546875 Z M-188.57421875 552.5546875 C-189.72117798 553.94309573 -190.88081976 555.32122768 -192.05859375 556.68359375 C-213.38082484 581.66579081 -221.85116536 612.12309977 -219.57421875 644.5546875 C-217.24447391 665.10069886 -205.93064015 682.38696098 -189.91796875 695.14453125 C-146.86356414 726.98578096 -83.87057519 725.06943687 -33.57421875 717.5546875 C2.30548794 711.86132164 41.77649814 698.77120546 64.78271484 668.78613281 C74.68389451 654.96754632 81.66096699 638.71312914 82.42578125 621.5546875 C82.46574219 620.88953125 82.50570312 620.224375 82.546875 619.5390625 C83.20765758 598.54949824 76.27780982 578.29192919 61.96191406 562.85620117 C38.6604384 539.18305993 1.73606317 534.5598417 -29.76953125 534.2734375 C-31.35049432 534.25569651 -32.93145238 534.23750301 -34.5124054 534.21888733 C-37.84987425 534.18018752 -41.18735642 534.14385414 -44.52487183 534.10940552 C-53.18079359 534.01931157 -61.83647712 533.90900166 -70.4921875 533.80078125 C-71.33923059 533.79030195 -72.18627369 533.77982265 -73.05898476 533.7690258 C-85.27583747 533.61764037 -97.49207623 533.45997668 -109.70654297 533.16799927 C-111.99311173 533.11759764 -114.2795222 533.08311952 -116.56640625 533.05053711 C-124.27666628 532.90932453 -131.75763255 532.32965888 -139.3984375 531.2734375 C-164.10133173 528.0732059 -173.79277453 532.37287293 -188.57421875 552.5546875 Z " fill="#1A0C6D" transform="translate(2946.57421875,182.4453125)"/>
<path d="M0 0 C3.8750548 0.14439756 7.75003096 0.29082038 11.625 0.4375 C12.68074219 0.47681641 13.73648437 0.51613281 14.82421875 0.55664062 C15.92636719 0.59853516 17.02851562 0.64042969 18.1640625 0.68359375 C19.32950246 0.72788608 20.49494242 0.7721784 21.69569874 0.81781292 C24.62231038 0.93551939 27.54600101 1.08111513 30.47040081 1.24454212 C46.06516455 2.08742445 61.64731672 2.15063045 77.25980842 2.14538372 C81.12459461 2.14517637 84.98937375 2.15072997 88.85415649 2.15544128 C96.39943978 2.16367968 103.94471525 2.16649308 111.49000267 2.16705366 C117.64187227 2.16753245 123.79373934 2.16960507 129.94560814 2.17275429 C147.48195967 2.18154523 165.01830512 2.18617656 182.55465887 2.18542381 C183.49624791 2.18538386 184.43783694 2.1853439 185.40795898 2.18530273 C186.35073179 2.18526185 187.2935046 2.18522097 188.26484629 2.18517885 C203.49352932 2.18477367 218.72218748 2.19431499 233.95086334 2.2084411 C249.68040216 2.2229136 265.40992894 2.22970526 281.13947457 2.22884732 C289.93273394 2.22851889 298.72596706 2.23115948 307.51922035 2.24202538 C358.08750378 2.30617812 358.08750378 2.30617812 408.6041317 0.18378639 C412.74778241 -0.04047042 416.85188752 -0.07359069 421 0 C422.63003474 6.83245183 423.71331522 13.61523764 424.5859375 20.58203125 C424.7277243 21.69237732 424.86951111 22.80272339 425.01559448 23.94671631 C425.47495535 27.56789334 425.92613824 31.19000723 426.375 34.8125 C426.60793762 36.68468704 426.60793762 36.68468704 426.84558105 38.59469604 C431.68257637 77.64741969 434.6983464 116.723395 437 156 C432.54509221 157.34015408 428.24016455 158.38206499 423.62890625 159.0703125 C422.47841797 159.24433594 421.32792969 159.41835938 420.14257812 159.59765625 C418.96115234 159.77167969 417.77972656 159.94570313 416.5625 160.125 C414.74975586 160.39763672 414.74975586 160.39763672 412.90039062 160.67578125 C409.93418315 161.12129858 406.96741003 161.56257683 404 162 C403.70867188 161.24605957 403.41734375 160.49211914 403.1171875 159.71533203 C380.45804972 100.44321421 380.45804972 100.44321421 332.16503906 61.93896484 C294.52056276 45.61277451 250.16730324 47.01540024 209.87109375 46.9609375 C209.1169368 46.9594722 208.36277985 46.9580069 207.58576965 46.95649719 C180.07424158 46.49522476 180.07424158 46.49522476 156.421875 58.48828125 C134.53028777 85.0615031 143.67274769 150.58270448 143.59528303 183.25636148 C143.57938306 189.10720451 143.55268263 194.95799941 143.5272522 200.80880737 C143.48093023 211.82910559 143.44396471 222.84941335 143.41057932 233.86975753 C143.37202341 246.44107465 143.32270405 259.01234286 143.27259517 271.5836184 C143.16997039 297.38904245 143.08048995 323.19449806 143 349 C143.94005323 348.83798568 144.88010647 348.67597136 145.84864616 348.50904751 C148.56650162 348.07002428 151.06818677 347.85950047 153.81298828 347.82641602 C155.18519783 347.80605286 155.18519783 347.80605286 156.58512878 347.78527832 C157.57023941 347.77492554 158.55535004 347.76457275 159.5703125 347.75390625 C161.74276009 347.72228684 163.91520462 347.69045758 166.08764648 347.65844727 C167.23337128 347.64306915 168.37909607 347.62769104 169.55953979 347.61184692 C262.20853407 352.86567681 262.20853407 352.86567681 344.1796875 321.109375 C357.36551709 307.11004677 363.71484332 287.74744851 370 270 C379.05268156 271.4329198 388.02286105 273.16042235 397 275 C397.1397095 282.48265117 396.79646282 289.88797106 396.3012085 297.35191345 C394.84663172 319.32423056 394.68985275 341.25818432 394.73925781 363.27172852 C394.75064357 368.40487399 394.74388647 373.53781159 394.73235321 378.67094994 C394.69221174 399.92029015 394.942036 421.08793053 396.3012085 442.2986908 C396.34652458 443.01132269 396.39184067 443.72395458 396.43852997 444.45818138 C396.56078632 446.34229115 396.69024205 448.2259301 396.82037354 450.10951233 C397.0493143 455.06808699 397 460.03614298 397 465 C388.09 466.65 379.18 468.3 370 470 C368.515 466.019375 367.03 462.03875 365.5 457.9375 C357.08726421 435.89155815 347.31268583 416.65239384 324.8984375 406.15234375 C321.31339484 404.72702356 317.68673805 403.50412192 314 402.375 C313.37915527 402.18075439 312.75831055 401.98650879 312.11865234 401.78637695 C297.00571282 397.42424146 281.24268403 396.33588546 265.625 395.375 C263.65355379 395.24837551 261.68211837 395.12158293 259.71069336 394.99462891 C240.53629514 393.77979481 221.38747708 393.11221882 202.1796875 392.7578125 C201.01906296 392.73633148 199.85843842 392.71485046 198.66264343 392.69271851 C192.80521717 392.585414 186.94778413 392.48352325 181.09008789 392.39208984 C179.42062607 392.36415848 179.42062607 392.36415848 177.71743774 392.33566284 C175.65113698 392.30109557 173.58479208 392.26900845 171.5184021 392.24026489 C165.03248996 392.1281893 158.56539915 391.83902298 152.08888245 391.48815918 C151.21234906 391.44131863 150.33581567 391.39447807 149.43272066 391.34621811 C147.28844198 391.23152885 145.14421552 391.11586397 143 391 C143.08486118 416.25730334 143.18031986 441.51454884 143.28752708 466.77176762 C143.33710166 478.50595441 143.38348474 490.2401361 143.421875 501.97436523 C143.46681034 563.1528409 143.46681034 563.1528409 144.9140625 624.30859375 C144.9713962 625.84576396 144.9713962 625.84576396 145.02988815 627.41398811 C145.47029569 638.73955756 146.16155492 650.04572134 146.95458984 661.35180664 C147.03050669 662.47632201 147.10642353 663.60083738 147.18464088 664.75942898 C148.10089352 677.2058404 150.26794003 689.25267578 157 700 C157.38285156 700.63164063 157.76570313 701.26328125 158.16015625 701.9140625 C164.61332396 710.87350636 176.93258976 714.45804137 187.2578125 716.4921875 C200.21914259 718.25103188 213.13241857 718.15784421 226.1875 718.125 C227.27380707 718.1234491 228.36011414 718.12189819 229.4793396 718.12030029 C312.12606777 721.01890231 312.12606777 721.01890231 385 689 C385.6496875 688.45085938 386.299375 687.90171875 386.96875 687.3359375 C410.48458868 665.70580286 422.65476048 630.19639601 433.73339844 601.24462891 C435.73183566 596.12527065 437.85680456 591.06016347 440 586 C450.07267708 587.3581638 460.02602164 589.0570172 470 591 C470.08571403 597.30057337 469.79370499 603.42601135 469.15234375 609.69140625 C469.06063904 610.61297516 468.96893433 611.53454407 468.87445068 612.48403931 C468.56935917 615.51098431 468.2549057 618.53682238 467.9375 621.5625 C467.82773834 622.61410309 467.71797668 623.66570618 467.60488892 624.74917603 C454.92120337 745.15759326 454.92120337 745.15759326 444 767 C429.65477752 767.1373966 415.36052719 766.76487404 401.0269165 766.20236206 C394.79570323 765.95956206 388.56388132 765.73358633 382.33203125 765.5078125 C380.46741241 765.4402198 380.46741241 765.4402198 378.56512451 765.3712616 C306.50664089 762.78639013 234.35036669 762.81052759 162.25564146 762.81488937 C153.69311858 762.81453659 145.13063644 762.80287571 136.56812638 762.7889536 C128.09466102 762.77569659 119.6212134 762.77052033 111.1477378 762.77115268 C106.17808355 762.77140098 101.20847956 762.76893485 96.23883629 762.75797462 C72.48191947 762.70902336 48.82510588 763.23389145 25.09685618 764.43819469 C6.59876044 765.37000898 6.59876044 765.37000898 1 765 C-0.80142926 763.19857074 -0.49267424 760.43804514 -0.75390625 757.99609375 C-0.88603516 756.78115234 -1.01816406 755.56621094 -1.15429688 754.31445312 C-1.28900391 753.03505859 -1.42371094 751.75566406 -1.5625 750.4375 C-1.70107422 749.15423828 -1.83964844 747.87097656 -1.98242188 746.54882812 C-2.32552144 743.36628384 -2.66452788 740.18335586 -3 737 C-2.49251221 736.77973145 -1.98502441 736.55946289 -1.4621582 736.33251953 C19.18598581 727.25974418 34.60900335 716.62357524 43.265625 694.95019531 C55.26923906 663.07357659 52.88945905 623.40477466 53.54638672 589.74194336 C53.56766121 588.65982319 53.58893569 587.57770302 53.61085486 586.46279132 C54.23259219 553.63830373 54.14709623 520.80758788 54.13530029 487.97858459 C54.13298358 481.35568118 54.13274337 474.73278033 54.13381577 468.10987663 C54.13404561 466.67384454 54.13404561 466.67384454 54.13428011 465.2088017 C54.13459996 463.26148423 54.13492418 461.31416676 54.1352527 459.3668493 C54.13807683 441.27884444 54.1348694 423.19084472 54.12945233 405.10284071 C54.12498786 389.72179684 54.12576334 374.34076053 54.13037109 358.9597168 C54.13577312 340.91996526 54.13780168 322.88021819 54.13475883 304.84046596 C54.13444042 302.90162369 54.13412604 300.96278141 54.13381577 299.02393913 C54.13366149 298.07100531 54.13350721 297.11807149 54.13334826 296.13626089 C54.13249976 289.5536595 54.13392924 282.97106109 54.13629532 276.38846016 C54.16524143 226.50225869 54.16524143 226.50225869 53.54638672 176.62084961 C53.52644095 175.56628291 53.50649518 174.51171622 53.48594499 173.42519295 C55.22239108 104.63542987 55.22239108 104.63542987 26.69140625 45.7578125 C17.89174648 38.33084186 7.33314225 32.95990828 -3 28 C-2.45462284 18.55636393 -1.46291615 9.34561968 0 0 Z " fill="#1A0C6D" transform="translate(1926,174)"/>
<path d="M0 0 C7.86520706 2.18379338 15.41052052 5.00761957 23 8 C23.07117348 19.5076732 22.95055535 30.97969505 22.47497749 42.47786903 C22.37459367 44.90505539 22.2789983 47.33239646 22.18431091 49.7598114 C22.01516726 54.07702142 21.84207355 58.39406189 21.66760254 62.71105957 C21.39151655 69.54458857 21.11930986 76.37826289 20.85142326 83.21211815 C20.76004856 85.52060238 20.66557529 87.82894109 20.57069397 90.13728333 C19.31685984 121.35102719 18.84661262 152.54769812 18.85461628 183.78422046 C18.85482495 188.89544095 18.84925863 194.00665625 18.84455872 199.11787415 C18.83635265 209.07298838 18.83350859 219.02809668 18.83294634 228.98321402 C18.83246674 237.08981828 18.83039027 245.19642064 18.82724571 253.30302429 C18.81846993 276.40447 18.81382199 299.50591112 18.81457619 322.60735852 C18.81461614 323.84536282 18.8146561 325.08336713 18.81469727 326.35888672 C18.81473815 327.59844114 18.81477903 328.83799557 18.81482115 330.11511225 C18.8152277 350.20763004 18.80564768 370.30012911 18.7915589 390.39264148 C18.77712903 411.13879698 18.77029219 431.88494337 18.77115268 452.63110399 C18.77148216 464.23256761 18.7688448 475.83401154 18.75797462 487.43547058 C18.74878235 497.30719258 18.74676516 507.17888595 18.75348405 517.05061042 C18.75670468 522.06611215 18.75697176 527.08155923 18.7481308 532.09705544 C18.71636435 551.3552535 18.89984051 570.5570495 19.929245 589.79138184 C19.97077833 590.56926601 20.01231166 591.34715018 20.05510358 592.1486066 C20.5151877 625.18676153 20.5151877 625.18676153 34 654 C43.96344868 662.52917104 56.58634694 665.05438741 69 668 C69 675.59 69 683.18 69 691 C67.32035156 691.82242188 65.64070313 692.64484375 63.91015625 693.4921875 C36.04324174 707.22101454 10.71764692 723.0085535 -12.83203125 743.359375 C-13.34064697 743.77759521 -13.8492627 744.19581543 -14.37329102 744.62670898 C-15.5480228 745.61843437 -16.67967175 746.66196954 -17.78100586 747.73461914 C-20.65344309 750.30861186 -22.6313597 751.98838276 -26.58862305 752.02197266 C-29.45313682 751.50697533 -32.15459015 750.78799428 -34.9375 749.9375 C-35.89462891 749.68033203 -36.85175781 749.42316406 -37.83789062 749.15820312 C-44.73662243 747.26337757 -44.73662243 747.26337757 -46 746 C-46.18228331 744.27265036 -46.29875121 742.53831011 -46.38891602 740.80371094 C-46.4788961 739.13365997 -46.4788961 739.13365997 -46.57069397 737.42987061 C-46.63115402 736.21035706 -46.69161407 734.99084351 -46.75390625 733.734375 C-46.81907944 732.47602844 -46.88425262 731.21768188 -46.95140076 729.92120361 C-47.08901724 727.23775991 -47.22465908 724.55429771 -47.35717773 721.87060547 C-47.49131529 719.15908766 -47.62984819 716.44786299 -47.77319336 713.73681641 C-48.61308987 697.81112406 -49.22945732 681.94894649 -49 666 C-49.66 666 -50.32 666 -51 666 C-51.268125 666.721875 -51.53625 667.44375 -51.8125 668.1875 C-65.70857308 701.09925204 -101.13595414 728.9502877 -133.08984375 742.87890625 C-136.71110972 744.27394428 -140.3650594 745.51088456 -144.0625 746.6875 C-144.69929688 746.89020508 -145.33609375 747.09291016 -145.9921875 747.30175781 C-147.9856538 747.90974473 -149.98525375 748.46677499 -152 749 C-152.71341553 749.19053955 -153.42683105 749.3810791 -154.16186523 749.57739258 C-162.01350895 751.41630214 -169.92008804 751.35474446 -177.9375 751.3125 C-178.67021118 751.31034485 -179.40292236 751.3081897 -180.15783691 751.30596924 C-226.15623678 751.0889128 -267.68236946 732.18252157 -301 701 C-301.93714844 700.12859375 -302.87429687 699.2571875 -303.83984375 698.359375 C-337.27829176 666.55017851 -354.79011833 621.5454496 -363 577 C-363.17789063 576.0733252 -363.35578125 575.14665039 -363.5390625 574.19189453 C-366.39989773 558.56798787 -366.30758937 542.76717848 -366.375 526.9375 C-366.3830365 525.88593719 -366.391073 524.83437439 -366.39935303 523.75094604 C-366.51250846 504.20001064 -364.8949006 484.87810623 -360.6875 465.75 C-360.47440186 464.76515625 -360.26130371 463.7803125 -360.04174805 462.765625 C-353.30357601 432.48652837 -341.32563851 402.20695257 -323 377 C-321.97519531 375.56720703 -321.97519531 375.56720703 -320.9296875 374.10546875 C-291.09119214 333.30480215 -249.13855371 302.27011088 -199 292 C-198.24525391 291.83918945 -197.49050781 291.67837891 -196.71289062 291.51269531 C-151.281911 282.24691519 -99.8370571 290.58958126 -60 314 C-57.99549095 315.32654485 -55.99485145 316.65897597 -54 318 C-53.92910143 300.15908191 -53.87662452 282.31820164 -53.84456348 264.4771719 C-53.82926415 256.18842704 -53.80841722 247.89977197 -53.77368164 239.61108398 C-53.34364399 196.29071012 -53.34364399 196.29071012 -55.26171875 153.03515625 C-55.34320632 151.93716107 -55.34320632 151.93716107 -55.4263401 150.81698418 C-56.04059491 142.94190995 -57.22189864 135.22224335 -58.85864258 127.49780273 C-59.00896533 126.76792932 -59.15928808 126.0380559 -59.31416607 125.2860651 C-61.37035655 116.18226008 -65.54730016 107.89316959 -73.375 102.4375 C-82.36591755 97.15874159 -92.92122637 95.01575473 -103 93 C-103 84.75 -103 76.5 -103 68 C-99.390625 66.164375 -95.78125 64.32875 -92.0625 62.4375 C-60.06445301 45.91261746 -25.69475349 25.69475349 0 0 Z M-253.30224609 374.04785156 C-277.70995868 402.11286017 -288.15733551 438.67840039 -292 475 C-292.13148438 476.16660156 -292.26296875 477.33320312 -292.3984375 478.53515625 C-297.51582482 534.3423396 -287.20918692 597.53059232 -251 642 C-229.83527184 667.35166352 -201.04189584 683.33133688 -168.0234375 686.53125 C-138.56985096 688.82071548 -109.42348374 681.82228931 -86.59375 662.37109375 C-65.61002445 643.18868199 -54.4287785 614.79699394 -52.80817032 586.67072296 C-52.72891769 583.16624268 -52.70685498 579.66650507 -52.70947266 576.16113281 C-52.70275543 574.84364548 -52.69603821 573.52615814 -52.68911743 572.16874695 C-52.67163327 568.59148687 -52.66676922 565.01432281 -52.66548586 561.43702412 C-52.66405218 559.18692628 -52.65975965 556.9368519 -52.65449142 554.68675995 C-52.63604018 546.79294827 -52.62781351 538.89920361 -52.62939453 531.00537109 C-52.63059047 523.72039503 -52.60958366 516.43571783 -52.5779072 509.15081716 C-52.55147443 502.84022399 -52.54103855 496.52972666 -52.54230535 490.21907878 C-52.54280771 486.47532398 -52.5375407 482.73183448 -52.51594925 478.98813629 C-52.29493585 437.7866861 -58.88816968 397.48760328 -88.390625 366.59765625 C-109.90104521 345.24386531 -139.08005366 335.48289356 -168.9375 334.75 C-202.30625853 335.08603986 -230.98197489 349.71566555 -253.30224609 374.04785156 Z " fill="#1A0C6D" transform="translate(3958,739)"/>
<path d="M0 0 C0.92272705 0.47542236 1.8454541 0.95084473 2.79614258 1.44067383 C5 3 5 3 5.671875 6.69921875 C5.72307988 8.36139456 5.74645556 10.02453944 5.75 11.6875 C5.7718335 12.61941162 5.79366699 13.55132324 5.81616211 14.51147461 C5.86570264 16.70308619 5.90438235 18.89495727 5.93505859 21.08691406 C6.00993105 25.59840195 6.13692624 30.10709667 6.26953125 34.6171875 C7.38134232 73.12086381 6.88347708 111.52325404 5 150 C-9.355 150.99 -9.355 150.99 -24 152 C-24.70125 149.463125 -25.4025 146.92625 -26.125 144.3125 C-26.58789798 142.65086222 -27.05135894 140.98938106 -27.515625 139.328125 C-28.49525123 135.82059785 -29.46232414 132.30994139 -30.421875 128.796875 C-38.05667198 101.1142614 -48.15005391 75.05844756 -67 53 C-67.69738281 52.16855469 -68.39476563 51.33710937 -69.11328125 50.48046875 C-88.83419775 27.67706441 -116.73679273 14.31489199 -145.5625 7.25 C-146.36389404 7.05124268 -147.16528809 6.85248535 -147.9909668 6.64770508 C-162.77918984 3.21033093 -177.45351304 2.62562308 -192.5625 2.6875 C-193.48753326 2.68932281 -194.41256653 2.69114563 -195.3656311 2.69302368 C-209.44971759 2.7396995 -223.13872935 3.32855511 -237 6 C-237.89992676 6.16097168 -238.79985352 6.32194336 -239.72705078 6.48779297 C-283.83070242 14.47108307 -323.69173119 34.19947949 -357 64 C-358.02174625 64.89888006 -359.04387024 65.79733096 -360.06640625 66.6953125 C-365.47374424 71.50673977 -370.37238611 76.44491075 -375 82 C-375.79664062 82.90878906 -376.59328125 83.81757812 -377.4140625 84.75390625 C-394.56948318 104.39479696 -407.99970906 126.39486439 -419 150 C-419.34595215 150.73492676 -419.6919043 151.46985352 -420.04833984 152.22705078 C-459.70786704 237.47101435 -462.08203663 345.64480499 -430.16113281 436.89208984 C-416.48297285 473.5033128 -397.38736629 508.13290671 -370.296875 536.5859375 C-368.33587446 538.64698909 -366.50477208 540.75137567 -364.6875 542.9375 C-355.41408683 553.57984559 -344.27321531 562.57741032 -333 571 C-332.14172607 571.64364502 -332.14172607 571.64364502 -331.26611328 572.30029297 C-322.52781122 578.81026638 -313.4904477 584.6490956 -304 590 C-303.24396484 590.42925781 -302.48792969 590.85851563 -301.70898438 591.30078125 C-250.61810047 620.01096216 -185.9937842 632.36905674 -128.625 617.375 C-90.04202811 606.49919324 -64.5276671 578.97395163 -45.34472656 544.9753418 C-30.86135917 518.8284819 -22.06017786 490.78607688 -13.29003906 462.33349609 C-13.01975891 461.46438599 -12.74947876 460.59527588 -12.4710083 459.6998291 C-11.95985168 458.0557022 -11.45371102 456.41000497 -10.95330811 454.76257324 C-9.22534529 449.22534529 -9.22534529 449.22534529 -7 447 C-4.20263672 447.23193359 -4.20263672 447.23193359 -0.6796875 447.8984375 C0.57714844 448.13046875 1.83398438 448.3625 3.12890625 448.6015625 C4.46098481 448.85913046 5.79301548 449.11694619 7.125 449.375 C8.46464879 449.62604261 9.80449093 449.87605582 11.14453125 450.125 C14.4317346 450.73987257 17.71657848 451.36529359 21 452 C14.22222222 582.33333333 14.22222222 582.33333333 2 619 C-0.01513672 620.48291016 -0.01513672 620.48291016 -2.6796875 622.0390625 C-3.66114746 622.61495117 -4.64260742 623.19083984 -5.65380859 623.78417969 C-6.71680176 624.39165039 -7.77979492 624.99912109 -8.875 625.625 C-9.9676416 626.2530957 -11.0602832 626.88119141 -12.18603516 627.52832031 C-54.83961763 651.77194171 -102.35123775 664.40452805 -151 669 C-152.33550903 669.14139404 -152.33550903 669.14139404 -153.69799805 669.28564453 C-183.42608156 672.06899579 -215.54324421 671.96850271 -245 667 C-246.22654297 666.79600586 -247.45308594 666.59201172 -248.71679688 666.38183594 C-313.04399177 655.38313437 -373.87308509 629.5604924 -423 586 C-423.96808594 585.14277344 -424.93617187 584.28554687 -425.93359375 583.40234375 C-437.7975283 572.70432043 -449.14506851 561.59626807 -459 549 C-459.90334195 547.90644542 -460.80977474 546.81543911 -461.71875 545.7265625 C-515.62638185 480.68456087 -538.30442485 394.90847165 -538.1875 311.625 C-538.18656342 310.75293915 -538.18562683 309.8808783 -538.18466187 308.98239136 C-538.05676999 253.65813094 -527.8801634 198.20658744 -504 148 C-503.55720703 147.05833984 -503.11441406 146.11667969 -502.65820312 145.14648438 C-490.06915324 118.56960129 -474.42914439 94.09281741 -455 72 C-454.04867188 70.89978516 -454.04867188 70.89978516 -453.078125 69.77734375 C-451.39847404 67.83958129 -449.70249462 65.91770839 -448 64 C-447.31550781 63.22269531 -446.63101562 62.44539063 -445.92578125 61.64453125 C-410.75462158 22.05395885 -364.58150883 -7.00685125 -315 -25 C-314.14116211 -25.31420898 -313.28232422 -25.62841797 -312.39746094 -25.95214844 C-217.34326023 -60.3272106 -106.31047281 -50.92464139 0 0 Z " fill="#1A0C6D" transform="translate(2466,1041)"/>
<path d="M0 0 C1.78151532 0.7242609 3.55141802 1.47738047 5.3125 2.25 C6.46492188 2.64574219 7.61734375 3.04148438 8.8046875 3.44921875 C15.6012361 5.80644622 15.6012361 5.80644622 18.3125 7.25 C19.36609657 10.08941718 19.36718331 12.50440868 19.09057617 15.49145508 C19.01681259 16.32759842 18.94304901 17.16374176 18.86705017 18.02522278 C18.7807283 18.93084457 18.69440643 19.83646637 18.60546875 20.76953125 C18.42989675 22.74478134 18.25444624 24.72004222 18.07910156 26.6953125 C17.98439575 27.73461914 17.88968994 28.77392578 17.79211426 29.84472656 C16.2227255 47.13226844 14.89277468 64.41067472 14.0625 81.75 C14.02184418 82.59809235 13.98118835 83.44618469 13.93930054 84.31997681 C13.7193028 88.96286583 13.51042007 93.60611944 13.3125 98.25 C13.9720166 97.17838623 14.6315332 96.10677246 15.31103516 95.00268555 C16.19937028 93.56808886 17.08788925 92.13360601 17.9765625 90.69921875 C18.408479 89.99631714 18.84039551 89.29341553 19.28540039 88.56921387 C26.90378172 76.29987087 36.36397177 65.66288669 46.3125 55.25 C46.98667969 54.52296875 47.66085938 53.7959375 48.35546875 53.046875 C54.39228145 46.71401391 61.34700553 41.5066612 68.3125 36.25 C68.87743164 35.81896973 69.44236328 35.38793945 70.02441406 34.94384766 C96.12325946 15.13709678 127.33742425 1.7959075 160.375 1.9375 C161.05913971 1.93965515 161.74327942 1.9418103 162.44815063 1.94403076 C173.31292412 1.99886574 183.74454657 2.58734261 194.3125 5.25 C195.47120605 5.53206299 195.47120605 5.53206299 196.65332031 5.81982422 C215.3530039 10.50779835 233.04727975 18.39799086 248.3125 30.25 C249.26253906 30.97960937 250.21257813 31.70921875 251.19140625 32.4609375 C283.73010451 58.25656756 300.47205518 95.57596258 305.3125 136.25 C305.40017167 136.96110994 305.48784334 137.67221989 305.57817173 138.40487862 C306.59455589 147.87758247 306.47290028 157.36401721 306.48608398 166.87841797 C306.49240049 168.85626365 306.49916748 170.83410794 306.50634766 172.81195068 C306.52096368 177.06074605 306.53271174 181.30953614 306.54229546 185.55834579 C306.55788983 192.32620459 306.5818499 199.09401854 306.60719299 205.86184692 C306.67798247 225.10529714 306.73754476 244.34877475 306.78930664 263.59228516 C306.81799408 274.22973188 306.85358581 284.86713559 306.89596039 295.50453675 C306.91794216 301.10556321 306.93662322 306.70655126 306.94640923 312.30761337 C306.98739251 334.89377211 307.24225444 357.43818071 308.25024414 380.00439453 C308.29155421 380.94071394 308.33286428 381.87703334 308.37542617 382.84172606 C309.79512443 423.52669761 309.79512443 423.52669761 330.3125 457.25 C338.63148588 464.525769 348.29906903 468.8361078 358.3125 473.25 C357.85929231 482.08754996 357.11251339 490.57067741 355.3125 499.25 C346.98178718 499.40683359 338.72532689 498.94808729 330.41676331 498.40917206 C311.26215731 497.19281676 292.15563933 496.93779423 272.96728516 496.98925781 C268.67254216 497.00065105 264.37804752 496.99387178 260.08331299 496.98235321 C241.0179736 496.93942192 222.04704541 497.31696274 203.01843262 498.5512085 C195.43781847 499.04194809 187.91113361 499.39305151 180.3125 499.25 C177.25152828 484.3976628 177.25152828 484.3976628 177.2890625 477.53515625 C177.29244629 476.73086182 177.29583008 475.92656738 177.29931641 475.09790039 C177.30366699 474.48809326 177.30801758 473.87828613 177.3125 473.25 C177.901521 472.95343506 178.49054199 472.65687012 179.09741211 472.35131836 C181.82009571 470.97330816 184.53496925 469.58052382 187.25 468.1875 C188.17619141 467.72150391 189.10238281 467.25550781 190.05664062 466.77539062 C204.62695329 459.26017672 214.11831467 449.6977429 219.40625 434.00390625 C231.45290186 390.88236836 228.47311989 341.83989097 228.47975707 297.3360796 C228.48048001 294.59797028 228.48263664 291.85986564 228.48525429 289.12175751 C228.4944157 279.51541333 228.49859955 269.90908278 228.49780273 260.30273438 C228.49719937 251.42742573 228.50782555 242.55217733 228.5235464 233.67688394 C228.53669357 225.97322698 228.54198388 218.26958961 228.54134732 210.56592155 C228.54109512 206.00053234 228.54379201 201.43519738 228.55452538 196.86981964 C229.21946215 143.17076262 229.21946215 143.17076262 205.0390625 96.72265625 C187.37350414 79.55595917 161.80555644 74.65261493 138.01025391 74.85888672 C135.8121951 74.87500224 133.6159736 74.85889736 131.41796875 74.83984375 C103.20876222 74.79771648 76.46320764 83.79963312 54.3125 101.25 C53.49394531 101.88421875 52.67539063 102.5184375 51.83203125 103.171875 C30.05223702 121.21248332 18.08344487 150.23544038 15.02734566 177.82421589 C14.31581518 185.77478283 14.17054284 193.66016826 14.18310547 201.6394043 C14.18174638 203.04261317 14.17996362 204.44582169 14.17779541 205.84902954 C14.17326917 209.634018 14.17499398 213.41897892 14.1781745 217.20396781 C14.1807376 221.21929727 14.17834838 225.23462465 14.17678833 229.24995422 C14.17497196 236.02088839 14.17735261 242.79181164 14.18212891 249.56274414 C14.18691693 256.42733475 14.18699276 263.29190359 14.18212891 270.15649414 C14.07862862 315.33005621 14.07862862 315.33005621 14.765625 360.49609375 C14.785574 361.27814367 14.80552299 362.0601936 14.82607651 362.865942 C14.36134592 413.64879313 14.36134592 413.64879313 36.875 456.9375 C45.53730514 464.29452628 55.65877293 469.41482339 66.3125 473.25 C66.00164673 476.27101088 65.68886766 479.29180204 65.375 482.3125 C65.24448242 483.58383789 65.24448242 483.58383789 65.11132812 484.88085938 C64.61007987 489.68912966 64.03249467 494.46949483 63.3125 499.25 C62.19113647 499.16697632 62.19113647 499.16697632 61.04711914 499.08227539 C57.49004421 498.82143228 53.93253446 498.56699638 50.375 498.3125 C49.20130859 498.22548828 48.02761719 498.13847656 46.81835938 498.04882812 C24.04849778 496.43521589 1.27744867 496.04781638 -21.54121017 496.06132126 C-23.77992652 496.06251597 -26.01863824 496.06196263 -28.25735474 496.06130981 C-55.34648032 496.06300436 -82.33552223 496.71803746 -109.32836914 499.16625977 C-110.49613892 499.20771118 -110.49613892 499.20771118 -111.6875 499.25 C-113.42578834 497.51171166 -113.1672987 495.0552199 -113.44140625 492.68359375 C-113.63959961 490.9965332 -113.63959961 490.9965332 -113.84179688 489.27539062 C-113.97650391 488.09138672 -114.11121094 486.90738281 -114.25 485.6875 C-114.38857422 484.49962891 -114.52714844 483.31175781 -114.66992188 482.08789062 C-115.01297648 479.14235278 -115.35198547 476.19640467 -115.6875 473.25 C-115.15906494 472.98372803 -114.63062988 472.71745605 -114.08618164 472.44311523 C-100.118469 465.52971395 -100.118469 465.52971395 -87.6875 456.25 C-86.77871094 455.51136719 -86.77871094 455.51136719 -85.8515625 454.7578125 C-65.69647958 437.06710653 -67.21662821 400.95399827 -65.62036133 376.65771484 C-64.49558323 359.1976306 -64.37493674 341.76294651 -64.38591743 324.27214861 C-64.38701355 320.79006463 -64.38203817 317.30799777 -64.377312 313.8259176 C-64.36634087 305.57550013 -64.36570702 297.32512821 -64.37182617 289.07470703 C-64.37717882 281.62608614 -64.37011859 274.17760257 -64.35131836 266.72900391 C-63.94888821 218.43668127 -63.94888821 218.43668127 -66.01953125 170.2109375 C-66.07789343 169.42230946 -66.13625561 168.63368141 -66.19638634 167.82115555 C-66.82753253 159.70369601 -67.85018271 151.67135792 -69.1472168 143.63525391 C-69.26434178 142.901462 -69.38146677 142.1676701 -69.502141 141.41164207 C-71.37467789 130.41900743 -75.09807382 119.58642834 -83.98828125 112.38671875 C-94.63186944 105.02293255 -107.24943144 102.16757164 -119.6875 99.25 C-119.6875 91.33 -119.6875 83.41 -119.6875 75.25 C-117.068125 73.868125 -114.44875 72.48625 -111.75 71.0625 C-110.38270752 70.33945679 -110.38270752 70.33945679 -108.98779297 69.60180664 C-104.22286127 67.08788797 -99.44225499 64.61137081 -94.6328125 62.18359375 C-80.4306807 54.98213578 -66.89948184 47.14220478 -53.6875 38.25 C-53.01154785 37.7952832 -52.3355957 37.34056641 -51.63916016 36.87207031 C-42.52516196 30.67864558 -34.00581448 23.77744779 -25.51806641 16.76025391 C-23.85534445 15.38847503 -22.18595856 14.02564836 -20.51171875 12.66796875 C-19.11373047 11.53294922 -19.11373047 11.53294922 -17.6875 10.375 C-16.39005859 9.33472656 -16.39005859 9.33472656 -15.06640625 8.2734375 C-12.65883938 6.29850151 -12.65883938 6.29850151 -10.58984375 4.0390625 C-7.04891612 0.36438213 -5.14600719 -1.45610493 0 0 Z " fill="#1A0C6D" transform="translate(3672.6875,160.75)"/>
<path d="M0 0 C0.89746948 0.00054382 1.79493896 0.00108765 2.71960449 0.00164795 C17.46711523 0.0425896 31.66347439 0.95854647 46.0625 4.375 C46.97290039 4.58930664 47.88330078 4.80361328 48.82128906 5.02441406 C93.85579134 16.01507234 134.05019765 43.39039987 158.625 82.9375 C177.37629327 114.01726812 186.05121436 147.61199716 186.3125 183.8125 C186.3218457 184.67536621 186.33119141 185.53823242 186.34082031 186.42724609 C186.31600453 191.44862426 185.83743016 196.24995985 185.04589844 201.21118164 C184.86267029 202.36920792 184.67944214 203.52723419 184.49066162 204.72035217 C184.27872162 206.03440285 184.27872162 206.03440285 184.0625 207.375 C182.99979483 207.37760437 182.99979483 207.37760437 181.91562086 207.38026136 C139.97123317 207.48318076 98.02686159 207.59126962 56.08250478 207.70611694 C51.0516667 207.71988732 46.02082851 207.7336143 40.98999023 207.74731445 C39.48759978 207.75140691 39.48759978 207.75140691 37.954858 207.75558204 C21.7148588 207.79971558 5.47485259 207.840329 -10.76515888 207.87965261 C-27.41590719 207.92004873 -44.06664245 207.96420192 -60.71737152 208.01187855 C-71.00042778 208.0412029 -81.283483 208.06755981 -91.56655622 208.09017897 C-98.60800829 208.1059478 -105.64944435 208.12534988 -112.69087868 208.14766841 C-116.75976218 208.160456 -120.82863328 208.17158491 -124.89753151 208.17841911 C-128.61633903 208.18470045 -132.3351039 208.19550298 -136.05388809 208.2100333 C-138.04939224 208.2166168 -140.0449108 208.21824481 -142.04042524 208.21974558 C-143.20935381 208.22522002 -144.37828237 208.23069446 -145.58263302 208.2363348 C-146.59990378 208.23899284 -147.61717455 208.24165089 -148.6652717 208.24438947 C-150.90458713 208.12029943 -150.90458713 208.12029943 -151.9375 209.375 C-152.05218804 211.08310856 -152.09713779 212.79594606 -152.11450195 214.5078125 C-152.12733719 215.60826904 -152.14017242 216.70872559 -152.15339661 217.8425293 C-152.16078354 219.04949463 -152.16817047 220.25645996 -152.17578125 221.5 C-152.18788887 223.37328979 -152.18788887 223.37328979 -152.20024109 225.28442383 C-152.21412456 227.95120974 -152.22512047 230.61787049 -152.23266602 233.28466797 C-152.24560258 237.27470692 -152.29338258 241.26409571 -152.33789062 245.25390625 C-152.60758245 289.53191312 -140.73800638 331.20952218 -114.9375 367.375 C-114.53225098 367.94541016 -114.12700195 368.51582031 -113.70947266 369.10351562 C-94.1315108 396.25120523 -66.86039398 417.27059711 -35.375 428.6875 C-34.75206055 428.91775879 -34.12912109 429.14801758 -33.48730469 429.38525391 C-20.92334829 433.72061405 -8.5441814 434.89860861 4.625 434.75 C5.36439819 434.74534729 6.10379639 434.74069458 6.86560059 434.73590088 C52.71133036 434.3993981 91.03698481 418.87772486 124.0625 387.375 C124.79210938 386.68664062 125.52171875 385.99828125 126.2734375 385.2890625 C135.26515353 376.58166951 142.66755731 366.38097745 150.27783203 356.48095703 C150.85388184 355.73442871 151.42993164 354.98790039 152.0234375 354.21875 C152.53696777 353.55037109 153.05049805 352.88199219 153.57958984 352.19335938 C155.0625 350.375 155.0625 350.375 158.0625 347.375 C166.6425 352.655 175.2225 357.935 184.0625 363.375 C177.36875719 396.84371403 151.20167481 430.18990114 128.0625 454.375 C127.54349121 454.92655762 127.02448242 455.47811523 126.48974609 456.04638672 C95.62598822 488.73596594 51.07777692 511.88669288 5.61987305 513.58154297 C0.8297162 513.70292749 -3.95861716 513.70885458 -8.75 513.6875 C-10.02750122 513.68476578 -10.02750122 513.68476578 -11.33081055 513.68197632 C-73.25655995 513.45990356 -130.02312713 492.8923909 -173.89404297 448.71875 C-179.77201034 442.65714785 -185.0026847 436.2204069 -189.9375 429.375 C-190.65220459 428.3862085 -190.65220459 428.3862085 -191.38134766 427.37744141 C-235.16649363 366.02053009 -245.49858722 285.56417687 -233.75 212.4375 C-226.14339956 167.80888318 -208.99604739 123.52200493 -179.9375 88.375 C-179.49696289 87.8397168 -179.05642578 87.30443359 -178.60253906 86.75292969 C-175.43369263 82.9138801 -172.20844442 79.12734646 -168.9375 75.375 C-168.49873535 74.87162109 -168.0599707 74.36824219 -167.60791016 73.84960938 C-162.38163575 67.89122705 -157.02043233 62.44411028 -150.9375 57.375 C-150.01710938 56.56675781 -149.09671875 55.75851562 -148.1484375 54.92578125 C-134.27071011 42.78773084 -119.30104899 32.84092754 -102.9375 24.375 C-102.27379395 24.0248584 -101.61008789 23.6747168 -100.92626953 23.31396484 C-69.89124149 7.09445881 -34.79782109 -0.07976347 0 0 Z M-109.29052734 89.53710938 C-125.56406522 107.69708464 -142.9375 138.52633883 -142.9375 163.375 C-66.3775 163.375 10.1825 163.375 89.0625 163.375 C89.18820515 151.85507014 89.18820515 151.85507014 87.9375 140.625 C87.80553223 139.87677979 87.67356445 139.12855957 87.53759766 138.35766602 C83.90238431 119.20781002 76.06574856 101.01708774 63.0625 86.375 C62.50046875 85.68277344 61.9384375 84.99054688 61.359375 84.27734375 C44.85140898 64.25950644 18.33819378 53.50441997 -6.9375 50.375 C-48.23751421 48.3551401 -80.69706279 59.01823969 -109.29052734 89.53710938 Z " fill="#1A0C6D" transform="translate(3340.9375,451.625)"/>
<path d="M0 0 C1.44805189 1.36725514 2.88837651 2.74267908 4.32861328 4.11816406 C5.25416016 4.99085937 6.17970703 5.86355469 7.13330078 6.76269531 C14.29141171 13.68761 20.37342819 21.15681508 26.32861328 29.11816406 C26.75529297 29.67874512 27.18197266 30.23932617 27.62158203 30.81689453 C34.8771543 40.3747157 40.7988392 50.47916505 46.32861328 61.11816406 C46.90675781 62.21741211 46.90675781 62.21741211 47.49658203 63.33886719 C58.19825484 83.92041199 65.07761713 106.36107956 69.32861328 129.11816406 C69.49087402 129.92318359 69.65313477 130.72820312 69.8203125 131.55761719 C75.29107667 159.53811998 75.18950609 193.2188517 69.32861328 221.11816406 C69.02262207 222.60437256 69.02262207 222.60437256 68.71044922 224.12060547 C56.40492607 282.32555084 25.59160393 335.6067987 -23.67138672 370.11816406 C-24.24211914 370.52292969 -24.81285156 370.92769531 -25.40087891 371.34472656 C-71.69808314 403.81074456 -128.52058274 413.33121248 -183.66357422 403.64794922 C-223.05876545 396.19994938 -259.80851373 378.75572216 -289.18701172 351.41503906 C-291.32480945 349.43858456 -293.50537072 347.5526175 -295.73388672 345.68066406 C-312.40461545 331.02655574 -325.43212186 311.66001444 -335.67138672 292.11816406 C-336.36723877 290.79026855 -336.36723877 290.79026855 -337.07714844 289.43554688 C-351.3047323 261.87172251 -359.03867804 232.82303999 -362.67138672 202.11816406 C-362.80416016 201.03277344 -362.93693359 199.94738281 -363.07373047 198.82910156 C-369.1162101 137.41102097 -350.644459 73.65601377 -311.89013672 25.62597656 C-309.22140431 22.39291596 -306.46502122 19.24347618 -303.67138672 16.11816406 C-303.18138184 15.56644531 -302.69137695 15.01472656 -302.18652344 14.44628906 C-266.37724864 -25.70245748 -214.42244124 -52.49380057 -160.37841797 -55.75683594 C-100.96182351 -57.76034597 -44.07800358 -41.04664368 0 0 Z M-239.67138672 32.11816406 C-268.1827005 65.60550903 -280.65891072 111.08834452 -280.87451172 154.52441406 C-280.88152603 155.47928207 -280.88854034 156.43415009 -280.89576721 157.41795349 C-280.91317224 160.48473894 -280.91962013 163.55133102 -280.92138672 166.61816406 C-280.92206146 167.66795441 -280.92273621 168.71774475 -280.9234314 169.79934692 C-280.90680364 186.09377392 -280.39154794 202.01599819 -277.67138672 218.11816406 C-277.4299292 219.59953857 -277.4299292 219.59953857 -277.18359375 221.11083984 C-269.77791073 264.98293128 -250.41589273 308.57066036 -213.51831055 335.24389648 C-184.76731096 355.20329818 -148.95307207 361.46959432 -114.73388672 355.99316406 C-85.28844692 350.27420858 -59.12512413 332.10436753 -42.15014648 307.49047852 C-40.96688383 305.71375134 -39.81304118 303.92188053 -38.67138672 302.11816406 C-38.29175781 301.52374512 -37.91212891 300.92932617 -37.52099609 300.31689453 C-15.78230367 265.66275239 -9.45194981 222.78032185 -9.42138672 182.55566406 C-9.42071198 181.74924469 -9.42003723 180.94282532 -9.41934204 180.11196899 C-9.49317526 124.06151295 -23.9887128 68.22010386 -63.67138672 27.11816406 C-64.574375 26.12042969 -64.574375 26.12042969 -65.49560547 25.10253906 C-84.47937429 4.63641046 -114.20979012 -7.07849646 -141.68310547 -8.26074219 C-179.86993132 -9.20186073 -213.86738279 3.28090801 -239.67138672 32.11816406 Z " fill="#1A0C6D" transform="translate(3078.67138671875,1298.8818359375)"/>
<path d="M0 0 C-0.03092239 0.60956543 -0.06184479 1.21913086 -0.09370422 1.84716797 C-0.4362368 8.60441928 -0.77696792 15.36176019 -1.11694336 22.11914062 C-1.24154162 24.59181715 -1.36650259 27.06447545 -1.49194336 29.53710938 C-1.88046391 37.19531978 -1.88046391 37.19531978 -2.25256348 44.8543396 C-2.64738895 53.12438652 -3.07645066 61.39084366 -3.55924129 69.65627861 C-6.21205823 115.54415273 -6.46855133 161.36117715 -6.38570684 207.31538224 C-6.37257618 215.46214895 -6.38207552 223.60877821 -6.3965925 231.75553644 C-6.41025865 239.7545112 -6.41210972 247.75342691 -6.40427649 255.75240958 C-6.3996609 260.46929481 -6.39880761 265.18608673 -6.40888596 269.90296555 C-6.41763931 274.29839821 -6.41138386 278.69357436 -6.39420319 283.08897972 C-6.39029379 284.68112579 -6.39127476 286.27329413 -6.39799118 287.86543083 C-6.49488493 313.190804 -1.35014035 340.19915445 17 359 C34.91607808 374.2797783 56.07407025 378.16551283 79 377 C108.14765206 374.47890858 134.79252999 362.46364372 154 340 C171.89377055 317.6232077 179.34943407 288.94557385 179.25878906 260.68969727 C179.26150798 259.30790016 179.2650739 257.9261045 179.26940918 256.54431152 C179.27844312 252.82620658 179.27502259 249.10821403 179.26865101 245.39010739 C179.26352663 241.45505079 179.26830168 237.52000273 179.27142334 233.58494568 C179.27505173 226.96213085 179.27030121 220.33936075 179.26074219 213.71655273 C179.24993646 206.14433701 179.2533299 198.5722297 179.264395 191.00001675 C179.27359286 184.43457499 179.27469111 177.86916513 179.26951766 171.30371898 C179.26645548 167.41178214 179.26582259 163.5198954 179.27259064 159.62796211 C181.63716866 98.97169078 181.63716866 98.97169078 157.3671875 46.34375 C149.60219638 38.65563998 140.65456548 33.89724336 131 29 C130.7299442 21.1683819 131.76892281 13.72720775 133 6 C137.19106873 4.43328012 140.74635358 3.72673799 145.21264648 3.62109375 C147.03718102 3.57083542 147.03718102 3.57083542 148.89857483 3.51956177 C150.20950607 3.49248138 151.52043732 3.465401 152.87109375 3.4375 C154.25945882 3.40186585 155.64780016 3.36529592 157.03611755 3.32785034 C159.97895708 3.2498644 162.92185716 3.17698643 165.8649292 3.1083374 C173.49515295 2.92971006 181.12450793 2.71834489 188.75390625 2.5078125 C189.50599869 2.48733982 190.25809113 2.46686714 191.03297424 2.44577408 C205.16475779 2.05901915 219.27599258 1.44381085 233.38842773 0.609375 C234.09773941 0.56837677 234.80705109 0.52737854 235.53785706 0.48513794 C237.36127877 0.37849864 239.18432887 0.26555098 241.00732422 0.15185547 C246.67185997 -0.0635867 252.33210524 -0.02833713 258 0 C257.55246651 16.09403654 256.94059131 32.1698139 256.0625 48.24609375 C256.01999115 49.0256908 255.9774823 49.80528786 255.9336853 50.60850906 C255.58271663 57.02360899 255.22414389 63.43827982 254.86462402 69.85290527 C254.59469459 74.67286469 254.32786363 79.49297873 254.06466675 84.31331062 C253.94510018 86.48316806 253.82148367 88.65276327 253.69750977 90.82237244 C252.30647206 115.79094922 251.83917367 140.75833486 251.83203125 165.76171875 C251.83059833 167.11404755 251.82900036 168.46637618 251.82724571 169.81870461 C251.81810176 176.89533528 251.81389715 183.9719476 251.81469727 191.04858398 C251.81523026 196.79893786 251.80814404 202.54922389 251.79418945 208.29956055 C246.18219944 281.29867685 246.18219944 281.29867685 267.453125 346.64453125 C276.61044279 355.42399855 290.08200666 357.40495306 302 360 C302 367.59 302 375.18 302 383 C299.7725 384.093125 297.545 385.18625 295.25 386.3125 C271.38732299 398.23143587 248.49620006 411.82066493 228 429 C227.4215332 429.4837207 226.84306641 429.96744141 226.24707031 430.46582031 C223.43214164 432.82608842 220.62900767 435.19919637 217.83984375 437.58984375 C216.43412109 438.78287109 216.43412109 438.78287109 215 440 C214.15695312 440.77601563 213.31390625 441.55203125 212.4453125 442.3515625 C210 444 210 444 207.52734375 444.05859375 C202.55510626 442.86615671 197.58887193 441.65272919 192.62890625 440.41015625 C191.56873291 440.14468994 190.50855957 439.87922363 189.41625977 439.60571289 C188.61889404 439.40582764 187.82152832 439.20594238 187 439 C186.73297269 432.16115685 186.4672281 425.3222646 186.20236206 418.4833374 C186.10940428 416.08509551 186.01624552 413.68686139 185.92288208 411.28863525 C185.00624065 387.7207791 185.00624065 387.7207791 184.6796875 376.9375 C184.65774826 376.22264435 184.63580902 375.5077887 184.61320496 374.77127075 C184.51621139 371.58316521 184.42501088 368.39504744 184.34204102 365.20654297 C184.29454712 363.58449951 184.29454712 363.58449951 184.24609375 361.9296875 C184.22216553 361.01429199 184.1982373 360.09889648 184.17358398 359.15576172 C184.13128947 356.95092641 184.13128947 356.95092641 183 355 C182.41734375 356.11375 181.8346875 357.2275 181.234375 358.375 C173.24049678 373.36703645 163.78102693 386.72230246 152 399 C150.68322266 400.41152344 150.68322266 400.41152344 149.33984375 401.8515625 C125.13744143 427.34525785 92.08434422 442.89507435 56.890625 444.24609375 C23.14446406 444.96451029 -8.99323388 436.11667841 -35 414 C-35.73605469 413.40960937 -36.47210937 412.81921875 -37.23046875 412.2109375 C-52.64151845 399.39112625 -62.29557656 381.58771289 -69 363 C-69.36867188 362.01257812 -69.73734375 361.02515625 -70.1171875 360.0078125 C-76.97998281 339.9514262 -78.13880923 318.16058129 -78.17358398 297.14453125 C-78.17990485 295.47705417 -78.18667228 293.80957873 -78.19384766 292.1421051 C-78.2084296 288.56884105 -78.22019081 284.9955831 -78.22979546 281.42230225 C-78.24542076 275.73218884 -78.26937765 270.04212824 -78.29469299 264.35205078 C-78.36541005 248.17630391 -78.4251247 232.0005255 -78.47680664 215.82470703 C-78.50547041 206.87640572 -78.54104575 197.92815582 -78.58346039 188.97990894 C-78.60545761 184.26953328 -78.62413301 179.55920355 -78.63390923 174.8487854 C-78.67396304 156.26709682 -78.89400685 137.73543763 -79.94165039 119.1796875 C-79.98322734 118.43996075 -80.02480428 117.70023399 -80.06764114 116.93809128 C-81.48637524 92.2992043 -83.27282036 64.33484104 -101.24609375 45.44921875 C-109.26008469 38.32188213 -118.66707024 33.18496098 -128 28 C-127.01 20.41 -126.02 12.82 -125 5 C-120.75923212 4.29320535 -117.11347649 3.84551275 -112.87915039 3.73461914 C-111.68280472 3.70103806 -110.48645905 3.66745697 -109.25386047 3.63285828 C-107.32028938 3.58449577 -107.32028938 3.58449577 -105.34765625 3.53515625 C-103.98181383 3.49764599 -102.61598449 3.45965654 -101.25016785 3.42121887 C-98.35444877 3.34017682 -95.45868593 3.26113872 -92.56286621 3.18377686 C-85.04807143 2.9823294 -77.53371585 2.76594614 -70.01953125 2.54296875 C-68.90738817 2.51001835 -68.90738817 2.51001835 -67.77277756 2.47640228 C-53.75380776 2.05689716 -39.75099869 1.43993449 -25.75024414 0.60961914 C-17.14913643 0.1061532 -8.61591753 -0.1063902 0 0 Z " fill="#1A0C6D" transform="translate(3264,1041)"/>
<path d="M0 0 C3.36434908 1.13617792 6.66783144 2.38801146 9.97851562 3.671875 C11.13375732 4.11901855 12.28899902 4.56616211 13.47924805 5.02685547 C14.35170166 5.36604004 15.22415527 5.70522461 16.12304688 6.0546875 C16.07395813 7.23211765 16.02486939 8.4095478 15.97429311 9.62265766 C12.95714287 82.41793991 11.52465906 155.04849917 11.64537243 227.91089482 C11.66031518 237.19489407 11.66598218 246.47886624 11.66566086 255.7628746 C11.66564557 256.43780843 11.66563028 257.11274226 11.66561452 257.80812863 C11.66553263 260.55134218 11.6654013 263.29455572 11.6652029 266.03776927 C11.6634224 291.34743362 11.68281013 316.65703627 11.71406223 341.96667934 C11.7415371 364.300549 11.75377248 386.63437533 11.75244141 408.96826172 C11.75236058 410.41541152 11.75227986 411.86256132 11.75219925 413.30971111 C11.75215855 414.02528767 11.75211784 414.74086422 11.75207591 415.47812491 C11.75187422 419.08263098 11.75169308 422.68713706 11.75153542 426.29164314 C11.75150199 427.00328704 11.75146856 427.71493093 11.75143412 428.4481398 C11.75070198 447.36093308 11.75979466 466.2737211 11.77218854 485.18650997 C11.77262909 485.85972336 11.77306963 486.53293675 11.77352352 487.22655054 C11.77529901 489.9312053 11.77707594 492.63586006 11.77890544 495.34051478 C11.78560192 505.30148447 11.788347 515.26245098 11.78932571 525.223423 C11.79069828 536.51342337 11.79974793 547.80339007 11.81799133 559.09337617 C11.82712257 564.82572955 11.83335738 570.55804034 11.83080292 576.29040146 C8.2849098 638.90649559 8.2849098 638.90649559 30.62304688 694.1171875 C38.32703539 701.52543749 48.49844121 705.77708498 58.12304688 710.0546875 C57.13304688 717.9746875 56.14304687 725.8946875 55.12304688 734.0546875 C50.94461789 734.8903733 48.49141135 735.08423 44.39160156 734.72363281 C43.23573547 734.63128357 42.07986938 734.53893433 40.88897705 734.44378662 C39.62043884 734.34116516 38.35190063 734.2385437 37.04492188 734.1328125 C18.40862033 732.75083423 -0.21225465 732.74879806 -18.890625 732.79394531 C-23.6574286 732.80530595 -28.42400772 732.7985931 -33.19080353 732.78704071 C-56.82263982 732.73889649 -80.30329525 733.3681122 -103.87695312 735.0546875 C-104.26337305 732.53522956 -104.64970228 730.01575855 -105.03536987 727.4961853 C-105.33330931 725.5577676 -105.6361304 723.6200987 -105.94165039 721.68286133 C-106.06596436 720.84263428 -106.19027832 720.00240723 -106.31835938 719.13671875 C-106.51473999 717.85631714 -106.51473999 717.85631714 -106.71508789 716.55004883 C-106.89480038 713.77954903 -106.73891888 711.69827319 -105.87695312 709.0546875 C-103.21009186 707.54837691 -100.75595923 706.38247096 -97.93945312 705.2421875 C-84.74046136 699.44167205 -75.09892324 691.65075543 -69.62695312 677.9296875 C-65.83370843 666.07360773 -64.40975917 653.68001498 -63.42382812 641.32226562 C-63.25468972 639.21380164 -63.07076736 637.1070355 -62.88476562 635 C-60.70184365 609.40414376 -60.72479807 583.75184387 -60.73156941 558.08582628 C-60.73177644 553.17277974 -60.72622633 548.25973877 -60.72151184 543.34669495 C-60.7132691 533.755234 -60.71045991 524.1637792 -60.70989946 514.572315 C-60.70942124 506.76099103 -60.70735136 498.94966906 -60.70419884 491.13834572 C-60.69540959 468.9016745 -60.69077673 446.66500806 -60.69152931 424.42833509 C-60.69158925 422.63692568 -60.69158925 422.63692568 -60.69165039 420.80932617 C-60.69171171 419.01568272 -60.69171171 419.01568272 -60.69177427 417.18580405 C-60.69218023 397.83226474 -60.68261888 378.47874493 -60.66851202 359.12521126 C-60.65407976 339.16479906 -60.64724559 319.20439633 -60.6481058 299.2439788 C-60.64843542 288.07329057 -60.64579268 276.90262279 -60.63492775 265.73193932 C-60.62573196 256.217824 -60.62372071 246.7037384 -60.63043717 237.18962052 C-60.63365736 232.35457407 -60.6339269 227.51958432 -60.62508392 222.68454361 C-60.59316862 204.03567707 -60.78363426 185.44537592 -61.80619812 166.82087708 C-61.84773145 166.06205267 -61.88926478 165.30322826 -61.9320567 164.52140918 C-62.47247356 132.22300642 -62.47247356 132.22300642 -75.87695312 104.0546875 C-85.9016502 96.19701633 -98.82402465 93.36264451 -110.87695312 90.0546875 C-111.16870993 86.34802954 -111.34531221 82.64431502 -111.50195312 78.9296875 C-111.58574219 77.88296875 -111.66953125 76.83625 -111.75585938 75.7578125 C-111.85597103 72.59428415 -111.77988982 70.09260798 -110.87695312 67.0546875 C-107.9665376 64.15186007 -104.6003034 62.71242914 -100.87695312 61.0546875 C-99.04108953 60.07577881 -97.21167637 59.08468372 -95.38867188 58.08203125 C-93.44729077 57.05203593 -91.50588359 56.02208977 -89.56445312 54.9921875 C-62.16405543 40.27664827 -36.33107752 22.77458671 -12.80957031 2.39233398 C-7.67140551 -2.05519014 -6.30182169 -2.01581501 0 0 Z " fill="#1A0C6D" transform="translate(2629.876953125,961.9453125)"/>
<path d="M0 0 C1.22801738 1.03968698 2.43715345 2.10214463 3.625 3.1875 C4.22828125 3.68894531 4.8315625 4.19039063 5.453125 4.70703125 C15.77968664 13.93358959 19.86367288 28.74531799 20.625 42.1875 C20.66625 42.88488281 20.7075 43.58226562 20.75 44.30078125 C21.98973081 89.16353976 1.46927081 135.18679534 -13.52964783 176.52583313 C-18.32729518 189.77408866 -22.97618335 203.07395876 -27.625 216.375 C-33.98088063 234.54244363 -40.38467872 252.69104984 -46.87524414 270.81079102 C-51.82192539 284.62204375 -56.72236917 298.4493467 -61.61184692 312.28094482 C-65.71256875 323.87918332 -69.82848217 335.47176847 -73.97616768 347.05330658 C-74.65193885 348.94027564 -75.32745396 350.8273362 -76.00291443 352.7144165 C-78.16979982 358.76722169 -80.33907196 364.81915246 -82.51245117 370.86962891 C-86.23239069 381.24376715 -89.90836411 391.62796829 -93.3984375 402.08203125 C-93.68796295 402.94906174 -93.9774884 403.81609222 -94.27578735 404.70939636 C-96.0078877 409.94703228 -97.52438076 414.69078705 -97.625 420.25 C-97.65078125 421.10722656 -97.6765625 421.96445312 -97.703125 422.84765625 C-97.5590468 425.23062648 -97.5590468 425.23062648 -96.078125 426.9375 C-93.07921959 429.13853149 -89.96940756 429.36573509 -86.375 429.1875 C-69.46943503 425.55574474 -55.0536631 410.1143027 -44.375 397.1875 C-43.5809375 396.2696875 -42.786875 395.351875 -41.96875 394.40625 C-31.61696329 382.42886626 -22.21578013 369.72607679 -12.8125 357 C-12.22879639 356.21028809 -11.64509277 355.42057617 -11.04370117 354.60693359 C-8.04679991 350.53086791 -5.1391981 346.42503596 -2.375 342.1875 C1.05547704 342.81960981 3.32158283 344.14525697 6.171875 346.12890625 C7.01621094 346.71220703 7.86054688 347.29550781 8.73046875 347.89648438 C9.60316406 348.50814453 10.47585937 349.11980469 11.375 349.75 C12.26316406 350.36552734 13.15132812 350.98105469 14.06640625 351.61523438 C16.2563436 353.13406189 18.44230949 354.65828496 20.625 356.1875 C20.08633138 360.35772761 19.18272501 363.52593102 17.17578125 367.21484375 C16.66450684 368.16037109 16.15323242 369.10589844 15.62646484 370.08007812 C15.06910645 371.08490234 14.51174805 372.08972656 13.9375 373.125 C13.3595166 374.17751953 12.7815332 375.23003906 12.18603516 376.31445312 C-11.89367609 419.77065518 -42.18211867 467.47715029 -87.375 491.1875 C-88.28765625 491.67089844 -89.2003125 492.15429688 -90.140625 492.65234375 C-105.14486776 500.04215792 -123.54161185 503.42672143 -139.875 498.6875 C-154.00716686 493.07416379 -162.39257082 482.87944403 -168.89453125 469.65234375 C-176.11746445 452.74801197 -172.95867472 432.48504003 -168.375 415.1875 C-168.0042334 413.77815186 -168.0042334 413.77815186 -167.62597656 412.34033203 C-159.95310102 383.83908704 -149.36478478 356.09350887 -139.10507202 328.44415283 C-132.97415383 311.92133819 -127.0134479 295.33822389 -121.0625 278.75 C-120.56030202 277.35034858 -120.05809457 275.95070055 -119.55587769 274.55105591 C-119.18301557 273.51189891 -119.18301557 273.51189891 -118.80262089 272.45174885 C-118.55443324 271.76005698 -118.30624559 271.06836512 -118.05053711 270.35571289 C-117.80311233 269.66614345 -117.55568754 268.976574 -117.30076504 268.26610851 C-116.80340866 266.87998767 -116.30604686 265.49386877 -115.80867958 264.10775185 C-115.31406562 262.72928035 -114.81947611 261.35080008 -114.32491112 259.97231102 C-108.06992794 242.53879176 -101.76808063 225.12232411 -95.45831299 207.70857239 C-93.2768483 201.6855382 -91.1028738 195.65984092 -88.93310547 189.63258362 C-87.39067005 185.34827073 -85.84634348 181.06464049 -84.30194092 176.78103638 C-83.57302626 174.75766846 -82.84500298 172.73397915 -82.11798096 170.70993042 C-75.73880229 152.95185381 -75.73880229 152.95185381 -72.17578125 144.23046875 C-63.04120131 121.70250522 -55.21463158 96.75594165 -55.375 72.1875 C-55.705 71.5275 -56.035 70.8675 -56.375 70.1875 C-63.36452974 68.40834697 -68.13604179 69.708593 -74.375 73.1875 C-90.3704881 83.80900988 -103.7850396 98.2576937 -116.67919922 112.33886719 C-118.25787151 114.05981545 -119.84712595 115.77008244 -121.44140625 117.4765625 C-126.6303802 123.04957715 -131.58119916 128.76556191 -136.359375 134.6953125 C-138.96599903 137.91823136 -141.66043427 141.05530877 -144.375 144.1875 C-147.77513186 143.6109559 -149.30170485 142.57752339 -151.625 140.0625 C-156.49344958 134.97418496 -161.70262736 130.36317121 -167.375 126.1875 C-165.57982524 122.20819596 -163.09910839 118.70173837 -160.625 115.125 C-159.90570312 114.08303467 -159.90570312 114.08303467 -159.171875 113.02001953 C-149.70542567 99.39690543 -139.75860593 86.12357991 -129.375 73.1875 C-128.85019043 72.53120605 -128.32538086 71.87491211 -127.78466797 71.19873047 C-121.88856334 63.83508938 -115.96639306 56.53362688 -109.5703125 49.59375 C-107.72125972 47.56703022 -105.92475647 45.51036518 -104.1328125 43.43359375 C-94.55948206 32.47112174 -84.07257672 21.87909152 -72.375 13.1875 C-71.36308594 12.43210937 -70.35117188 11.67671875 -69.30859375 10.8984375 C-49.95369495 -3.02963649 -22.19545488 -15.95164676 0 0 Z " fill="#1A0C6D" transform="translate(2599.375,448.8125)"/>
<path d="M0 0 C1.00514648 0.00757324 2.01029297 0.01514648 3.04589844 0.02294922 C17.02707698 0.33218743 30.46265077 5.01972943 40.9375 14.61328125 C52.85175161 27.49280787 59.09655247 42.7143312 58.83203125 60.29296875 C57.70895546 77.35100669 51.40632103 91.92683662 38.625 103.4375 C25.1031372 113.79138352 9.57005914 118.07549508 -7.375 116.4375 C-23.76300212 114.01310139 -37.58334801 106.73921437 -47.703125 93.359375 C-57.39996673 78.49088435 -60.11870009 62.24112187 -57.1640625 44.7890625 C-53.74976701 30.2867579 -45.43893206 17.57654618 -33.0703125 9.19921875 C-22.45978156 2.7229059 -12.47705645 -0.13282436 0 0 Z " fill="#1A0C6D" transform="translate(2609.375,143.5625)"/>
</svg>
