<svg width="419" height="84" viewBox="0 0 419 84" fill="none" xmlns="http://www.w3.org/2000/svg">
<mask id="path-1-outside-1_1672_16627" maskUnits="userSpaceOnUse" x="5.34766" y="37.7061" width="413" height="46" fill="black">
<rect fill="white" x="5.34766" y="37.7061" width="413" height="46"/>
<path fill-rule="evenodd" clip-rule="evenodd" d="M14.3477 68.1246C18.6775 72.5413 25.1071 75.0689 33.3705 75.0689C42.9498 75.0689 50.0635 71.5197 53.8003 65.8742L14.3477 68.1246ZM64.4964 65.2641V73.5209H92.9624V65.1789H84.7064V64.1114L74.2144 64.7098V65.1789H65.9908L64.4964 65.2641ZM100.998 63.1821C101.637 70.6387 108.287 75.0689 115.482 75.0689C122.964 75.0689 127.35 71.8869 129.586 67.7589C129.328 69.1349 129.156 70.4249 129.156 71.8009V73.5209H138.874V61.0217L127.785 61.6542C126.162 65.1381 122.603 67.3289 118.406 67.3289C114.902 67.3289 112.173 65.637 111.689 62.5724L100.998 63.1821ZM149.53 60.414C150.693 69.4382 157.869 75.0689 169.269 75.0689C180.105 75.0689 187.071 69.2209 187.071 61.2229C187.071 60.1743 186.962 59.1984 186.751 58.2909L175.396 58.9386C176.237 59.6746 176.665 60.6073 176.665 61.8249C176.665 65.0069 173.741 67.2429 169.011 67.2429C163.619 67.2429 160.633 64.372 160.126 59.8095L149.53 60.414ZM198.75 57.6065V73.5209H209.242V57.008L198.75 57.6065ZM226.528 56.0221V73.5209H237.02V55.4236L226.528 56.0221ZM278.23 53.073C278.48 67.2154 287.263 75.0689 299.639 75.0689C310.991 75.0689 318.387 68.4469 319.247 59.8469H308.669C307.895 64.2329 304.197 66.8129 299.639 66.8129C293.275 66.8129 289.147 61.7389 288.975 55.1169H319.505V52.7949C319.505 52.0912 319.485 51.4001 319.447 50.7221L278.23 53.073ZM327.691 50.2518V73.5209H337.581V49.6877L327.691 50.2518ZM349.621 49.0009V73.5209H359.425V48.4949C359.425 48.4772 359.425 48.4594 359.425 48.4417L349.621 49.0009ZM371.465 47.755V73.5209H381.355V47.1909L371.465 47.755ZM400.066 46.1236L401.29 54.9449H406.106L407.387 45.7061L400.066 46.1236ZM397.076 60.4489V73.5209H410.234V60.4489H397.076Z"/>
</mask>
<path fill-rule="evenodd" clip-rule="evenodd" d="M14.3477 68.1246C18.6775 72.5413 25.1071 75.0689 33.3705 75.0689C42.9498 75.0689 50.0635 71.5197 53.8003 65.8742L14.3477 68.1246ZM64.4964 65.2641V73.5209H92.9624V65.1789H84.7064V64.1114L74.2144 64.7098V65.1789H65.9908L64.4964 65.2641ZM100.998 63.1821C101.637 70.6387 108.287 75.0689 115.482 75.0689C122.964 75.0689 127.35 71.8869 129.586 67.7589C129.328 69.1349 129.156 70.4249 129.156 71.8009V73.5209H138.874V61.0217L127.785 61.6542C126.162 65.1381 122.603 67.3289 118.406 67.3289C114.902 67.3289 112.173 65.637 111.689 62.5724L100.998 63.1821ZM149.53 60.414C150.693 69.4382 157.869 75.0689 169.269 75.0689C180.105 75.0689 187.071 69.2209 187.071 61.2229C187.071 60.1743 186.962 59.1984 186.751 58.2909L175.396 58.9386C176.237 59.6746 176.665 60.6073 176.665 61.8249C176.665 65.0069 173.741 67.2429 169.011 67.2429C163.619 67.2429 160.633 64.372 160.126 59.8095L149.53 60.414ZM198.75 57.6065V73.5209H209.242V57.008L198.75 57.6065ZM226.528 56.0221V73.5209H237.02V55.4236L226.528 56.0221ZM278.23 53.073C278.48 67.2154 287.263 75.0689 299.639 75.0689C310.991 75.0689 318.387 68.4469 319.247 59.8469H308.669C307.895 64.2329 304.197 66.8129 299.639 66.8129C293.275 66.8129 289.147 61.7389 288.975 55.1169H319.505V52.7949C319.505 52.0912 319.485 51.4001 319.447 50.7221L278.23 53.073ZM327.691 50.2518V73.5209H337.581V49.6877L327.691 50.2518ZM349.621 49.0009V73.5209H359.425V48.4949C359.425 48.4772 359.425 48.4594 359.425 48.4417L349.621 49.0009ZM371.465 47.755V73.5209H381.355V47.1909L371.465 47.755ZM400.066 46.1236L401.29 54.9449H406.106L407.387 45.7061L400.066 46.1236ZM397.076 60.4489V73.5209H410.234V60.4489H397.076Z" fill="#3A919A"/>
<path d="M14.3477 68.1246L13.8921 60.1375C10.7587 60.3163 8.01919 62.3107 6.88666 65.2378C5.75413 68.1648 6.43777 71.4837 8.63488 73.7249L14.3477 68.1246ZM53.8003 65.8742L60.4713 70.2899C62.1424 67.7652 62.2451 64.5136 60.7367 61.8885C59.2284 59.2635 56.3674 57.7148 53.3447 57.8872L53.8003 65.8742ZM64.4964 73.5209H56.4964C56.4964 77.9392 60.0781 81.5209 64.4964 81.5209V73.5209ZM64.4964 65.2641L64.0408 57.2771C59.8064 57.5186 56.4964 61.0228 56.4964 65.2641H64.4964ZM92.9624 73.5209V81.5209C97.3807 81.5209 100.962 77.9392 100.962 73.5209H92.9624ZM92.9624 65.1789H100.962C100.962 60.7606 97.3807 57.1789 92.9624 57.1789V65.1789ZM84.7064 65.1789H76.7064C76.7064 69.5972 80.2881 73.1789 84.7064 73.1789V65.1789ZM84.7064 64.1114H92.7064C92.7064 61.9106 91.7998 59.8069 90.1998 58.2957C88.5999 56.7844 86.4481 55.999 84.2508 56.1244L84.7064 64.1114ZM74.2144 64.7098L73.7588 56.7228C69.5244 56.9643 66.2144 60.4685 66.2144 64.7098H74.2144ZM74.2144 65.1789V73.1789C78.6327 73.1789 82.2144 69.5972 82.2144 65.1789H74.2144ZM65.9908 65.1789V57.1789C65.8389 57.1789 65.687 57.1832 65.5353 57.1919L65.9908 65.1789ZM100.998 63.1821L100.542 55.1951C98.3845 55.3182 96.3683 56.3091 94.9527 57.9421C93.5371 59.5752 92.8425 61.7116 93.0269 63.865L100.998 63.1821ZM129.586 67.7589L137.449 69.2332C138.175 65.3609 135.973 61.5364 132.26 60.2192C128.547 58.9021 124.428 60.4844 122.551 63.9486L129.586 67.7589ZM129.156 73.5209H121.156C121.156 77.9392 124.737 81.5209 129.156 81.5209V73.5209ZM138.874 73.5209V81.5209C143.292 81.5209 146.874 77.9392 146.874 73.5209H138.874ZM138.874 61.0217H146.874C146.874 58.8209 145.967 56.7173 144.367 55.2061C142.767 53.6948 140.615 52.9094 138.418 53.0347L138.874 61.0217ZM127.785 61.6542L127.329 53.6672C124.388 53.835 121.777 55.6056 120.533 58.2761L127.785 61.6542ZM111.689 62.5724L119.59 61.322C118.948 57.2634 115.335 54.3513 111.233 54.5853L111.689 62.5724ZM149.53 60.414L149.074 52.4269C146.857 52.5534 144.792 53.5957 143.374 55.3044C141.956 57.0131 141.311 59.2344 141.595 61.4369L149.53 60.414ZM186.751 58.2909L194.544 56.4837C193.665 52.691 190.183 50.0821 186.296 50.3038L186.751 58.2909ZM175.396 58.9386L174.94 50.9515C171.696 51.1366 168.886 53.266 167.83 56.3395C166.774 59.413 167.682 62.8198 170.128 64.9596L175.396 58.9386ZM160.126 59.8095L168.077 58.9259C167.608 54.7005 163.915 51.5804 159.671 51.8225L160.126 59.8095ZM198.75 73.5209H190.75C190.75 77.9392 194.332 81.5209 198.75 81.5209V73.5209ZM198.75 57.6065L198.294 49.6195C194.06 49.861 190.75 53.3652 190.75 57.6065H198.75ZM209.242 73.5209V81.5209C213.66 81.5209 217.242 77.9392 217.242 73.5209H209.242ZM209.242 57.008H217.242C217.242 54.8072 216.335 52.7036 214.735 51.1923C213.135 49.6811 210.983 48.8957 208.786 49.021L209.242 57.008ZM226.528 73.5209H218.528C218.528 77.9392 222.11 81.5209 226.528 81.5209V73.5209ZM226.528 56.0221L226.072 48.035C221.838 48.2766 218.528 51.7808 218.528 56.0221H226.528ZM237.02 73.5209V81.5209C241.438 81.5209 245.02 77.9392 245.02 73.5209H237.02ZM237.02 55.4236H245.02C245.02 53.2228 244.113 51.1192 242.513 49.6079C240.913 48.0967 238.761 47.3113 236.564 47.4366L237.02 55.4236ZM278.23 53.073L277.774 45.086C273.486 45.3306 270.155 48.919 270.231 53.2143L278.23 53.073ZM319.247 59.8469L327.207 60.6429C327.432 58.3939 326.695 56.1547 325.178 54.4789C323.662 52.803 321.507 51.8469 319.247 51.8469V59.8469ZM308.669 59.8469V51.8469C304.787 51.8469 301.465 54.6337 300.79 58.4566L308.669 59.8469ZM288.975 55.1169V47.1169C286.817 47.1169 284.751 47.9885 283.245 49.534C281.739 51.0794 280.921 53.1676 280.977 55.3246L288.975 55.1169ZM319.505 55.1169V63.1169C323.923 63.1169 327.505 59.5352 327.505 55.1169H319.505ZM319.447 50.7221L327.434 50.2688C327.314 48.15 326.357 46.1659 324.773 44.753C323.19 43.3401 321.11 42.6142 318.991 42.7351L319.447 50.7221ZM327.691 73.5209H319.691C319.691 77.9392 323.273 81.5209 327.691 81.5209V73.5209ZM327.691 50.2518L327.236 42.2648C323.001 42.5063 319.691 46.0105 319.691 50.2518H327.691ZM337.581 73.5209V81.5209C342 81.5209 345.581 77.9392 345.581 73.5209H337.581ZM337.581 49.6877H345.581C345.581 47.4869 344.675 45.3833 343.075 43.872C341.475 42.3607 339.323 41.5754 337.126 41.7007L337.581 49.6877ZM349.621 73.5209H341.621C341.621 77.9392 345.203 81.5209 349.621 81.5209V73.5209ZM349.621 49.0009L349.166 41.0139C344.931 41.2555 341.621 44.7596 341.621 49.0009H349.621ZM359.425 73.5209V81.5209C363.844 81.5209 367.425 77.9392 367.425 73.5209H359.425ZM359.425 48.4417H367.425C367.425 46.2409 366.519 44.1373 364.919 42.626C363.319 41.1148 361.167 40.3294 358.97 40.4547L359.425 48.4417ZM371.465 73.5209H363.465C363.465 77.9392 367.047 81.5209 371.465 81.5209V73.5209ZM371.465 47.755L371.01 39.768C366.775 40.0095 363.465 43.5137 363.465 47.755H371.465ZM381.355 73.5209V81.5209C385.774 81.5209 389.355 77.9392 389.355 73.5209H381.355ZM381.355 47.1909H389.355C389.355 44.9901 388.449 42.8864 386.849 41.3752C385.249 39.8639 383.097 39.0785 380.9 39.2039L381.355 47.1909ZM401.29 54.9449L393.366 56.0439C393.914 59.9996 397.296 62.9449 401.29 62.9449V54.9449ZM400.066 46.1236L399.611 38.1366C397.381 38.2638 395.305 39.3178 393.886 41.0436C392.468 42.7694 391.835 45.0098 392.142 47.2226L400.066 46.1236ZM406.106 54.9449V62.9449C410.1 62.9449 413.481 59.9996 414.03 56.0439L406.106 54.9449ZM407.387 45.7061L415.311 46.805C415.64 44.4346 414.89 42.0415 413.268 40.2824C411.646 38.5232 409.321 37.5828 406.932 37.719L407.387 45.7061ZM397.076 73.5209H389.076C389.076 77.9392 392.658 81.5209 397.076 81.5209V73.5209ZM397.076 60.4489V52.4489C392.658 52.4489 389.076 56.0306 389.076 60.4489H397.076ZM410.234 73.5209V81.5209C414.652 81.5209 418.234 77.9392 418.234 73.5209H410.234ZM410.234 60.4489H418.234C418.234 56.0306 414.652 52.4489 410.234 52.4489V60.4489ZM33.3705 75.0689V67.0689C26.7539 67.0689 22.5669 65.081 20.0604 62.5242L14.3477 68.1246L8.63488 73.7249C14.788 80.0016 23.4603 83.0689 33.3705 83.0689V75.0689ZM53.8003 65.8742L47.1293 61.4586C45.2506 64.2969 41.0282 67.0689 33.3705 67.0689V75.0689V83.0689C44.8714 83.0689 54.8763 78.7426 60.4713 70.2899L53.8003 65.8742ZM53.8003 65.8742L53.3447 57.8872L13.8921 60.1375L14.3477 68.1246L14.8032 76.1116L54.2559 73.8612L53.8003 65.8742ZM64.4964 73.5209H72.4964V65.2641H64.4964H56.4964V73.5209H64.4964ZM92.9624 73.5209V65.5209H64.4964V73.5209V81.5209H92.9624V73.5209ZM92.9624 65.1789H84.9624V73.5209H92.9624H100.962V65.1789H92.9624ZM84.7064 65.1789V73.1789H92.9624V65.1789V57.1789H84.7064V65.1789ZM84.7064 64.1114H76.7064V65.1789H84.7064H92.7064V64.1114H84.7064ZM84.7064 64.1114L84.2508 56.1244L73.7588 56.7228L74.2144 64.7098L74.67 72.6969L85.162 72.0984L84.7064 64.1114ZM74.2144 65.1789H82.2144V64.7098H74.2144H66.2144V65.1789H74.2144ZM65.9908 65.1789V73.1789H74.2144V65.1789V57.1789H65.9908V65.1789ZM65.9908 65.1789L65.5353 57.1919L64.0408 57.2771L64.4964 65.2641L64.952 73.2512L66.4464 73.1659L65.9908 65.1789ZM115.482 75.0689V67.0689C113.468 67.0689 111.772 66.4397 110.67 65.5894C109.668 64.8159 109.083 63.8341 108.969 62.4993L100.998 63.1821L93.0269 63.865C94.1205 76.6306 105.423 83.0689 115.482 83.0689V75.0689ZM129.586 67.7589L122.551 63.9486C122.087 64.8067 121.455 65.4922 120.553 66.004C119.634 66.5253 118.073 67.0689 115.482 67.0689V75.0689V83.0689C125.634 83.0689 132.863 78.5044 136.62 71.5692L129.586 67.7589ZM129.156 71.8009H137.156C137.156 71.1086 137.239 70.3531 137.449 69.2332L129.586 67.7589L121.723 66.2846C121.417 67.9167 121.156 69.7412 121.156 71.8009H129.156ZM129.156 73.5209H137.156V71.8009H129.156H121.156V73.5209H129.156ZM138.874 73.5209V65.5209H129.156V73.5209V81.5209H138.874V73.5209ZM138.874 61.0217H130.874V73.5209H138.874H146.874V61.0217H138.874ZM138.874 61.0217L138.418 53.0347L127.329 53.6672L127.785 61.6542L128.24 69.6413L139.329 69.0088L138.874 61.0217ZM118.406 67.3289V75.3289C125.441 75.3289 131.989 71.5744 135.037 65.0324L127.785 61.6542L120.533 58.2761C120.335 58.7018 119.766 59.3289 118.406 59.3289V67.3289ZM111.689 62.5724L103.787 63.8227C105.108 72.1725 112.573 75.3289 118.406 75.3289V67.3289V59.3289C117.876 59.3289 117.99 59.1954 118.426 59.4928C118.66 59.6529 118.942 59.9122 119.181 60.2847C119.423 60.6624 119.545 61.0354 119.59 61.322L111.689 62.5724ZM111.689 62.5724L111.233 54.5853L100.542 55.1951L100.998 63.1821L101.453 71.1692L112.144 70.5594L111.689 62.5724ZM169.269 75.0689V67.0689C164.84 67.0689 162.021 65.977 160.376 64.7368C158.845 63.5836 157.789 61.9146 157.464 59.3911L149.53 60.414L141.595 61.4369C142.433 67.9375 145.547 73.596 150.746 77.5142C155.829 81.3455 162.298 83.0689 169.269 83.0689V75.0689ZM187.071 61.2229H179.071C179.071 62.6967 178.51 63.8846 177.254 64.8834C175.875 65.9799 173.305 67.0689 169.269 67.0689V75.0689V83.0689C176.068 83.0689 182.399 81.2339 187.212 77.4069C192.148 73.4821 195.071 67.7471 195.071 61.2229H187.071ZM186.751 58.2909L178.958 60.0981C179.02 60.364 179.071 60.7302 179.071 61.2229H187.071H195.071C195.071 59.6185 194.904 58.0328 194.544 56.4837L186.751 58.2909ZM186.751 58.2909L186.296 50.3038L174.94 50.9515L175.396 58.9386L175.851 66.9256L187.207 66.2779L186.751 58.2909ZM176.665 61.8249H184.665C184.665 58.3954 183.312 55.2343 180.663 52.9176L175.396 58.9386L170.128 64.9596C169.769 64.6453 169.343 64.1424 169.034 63.4483C168.73 62.7638 168.665 62.1713 168.665 61.8249H176.665ZM169.011 67.2429V75.2429C172.536 75.2429 176.244 74.4207 179.301 72.2084C182.556 69.8532 184.665 66.1578 184.665 61.8249H176.665H168.665C168.665 61.3627 168.779 60.8073 169.064 60.2694C169.343 59.7429 169.688 59.4153 169.922 59.2459C170.335 58.9471 170.215 59.2429 169.011 59.2429V67.2429ZM160.126 59.8095L152.175 60.6931C152.601 64.5283 154.183 68.4061 157.493 71.2785C160.778 74.1308 164.903 75.2429 169.011 75.2429V67.2429V59.2429C168.365 59.2429 168.02 59.1564 167.895 59.1158C167.787 59.0805 167.853 59.0843 167.981 59.1958C168.112 59.3091 168.176 59.42 168.187 59.4447C168.191 59.4531 168.119 59.306 168.077 58.9259L160.126 59.8095ZM160.126 59.8095L159.671 51.8225L149.074 52.4269L149.53 60.414L149.985 68.401L160.582 67.7965L160.126 59.8095ZM198.75 73.5209H206.75V57.6065H198.75H190.75V73.5209H198.75ZM209.242 73.5209V65.5209H198.75V73.5209V81.5209H209.242V73.5209ZM209.242 57.008H201.242V73.5209H209.242H217.242V57.008H209.242ZM209.242 57.008L208.786 49.021L198.294 49.6195L198.75 57.6065L199.205 65.5935L209.697 64.9951L209.242 57.008ZM226.528 73.5209H234.528V56.0221H226.528H218.528V73.5209H226.528ZM237.02 73.5209V65.5209H226.528V73.5209V81.5209H237.02V73.5209ZM237.02 55.4236H229.02V73.5209H237.02H245.02V55.4236H237.02ZM237.02 55.4236L236.564 47.4366L226.072 48.035L226.528 56.0221L226.983 64.0091L237.475 63.4106L237.02 55.4236ZM299.639 75.0689V67.0689C295.161 67.0689 292.028 65.6791 290.012 63.6853C288.005 61.701 286.324 58.3473 286.229 52.9318L278.23 53.073L270.231 53.2143C270.385 61.9411 273.222 69.5853 278.763 75.0634C284.294 80.5319 291.741 83.0689 299.639 83.0689V75.0689ZM319.247 59.8469L311.286 59.0509C310.912 62.7928 307.702 67.0689 299.639 67.0689V75.0689V83.0689C314.279 83.0689 325.861 74.101 327.207 60.6429L319.247 59.8469ZM308.669 59.8469V67.8469H319.247V59.8469V51.8469H308.669V59.8469ZM299.639 66.8129V74.8129C307.294 74.8129 314.971 70.1695 316.547 61.2372L308.669 59.8469L300.79 58.4566C300.765 58.5992 300.736 58.6301 300.753 58.6024C300.769 58.5764 300.785 58.5651 300.773 58.5746C300.747 58.594 300.427 58.8129 299.639 58.8129V66.8129ZM288.975 55.1169L280.977 55.3246C281.104 60.204 282.704 65.0208 285.985 68.7401C289.356 72.562 294.166 74.8129 299.639 74.8129V66.8129V58.8129C298.747 58.8129 298.311 58.5268 297.984 58.1562C297.567 57.683 297.017 56.6518 296.972 54.9092L288.975 55.1169ZM319.505 55.1169V47.1169H288.975V55.1169V63.1169H319.505V55.1169ZM319.505 52.7949H311.505V55.1169H319.505H327.505V52.7949H319.505ZM319.447 50.7221L311.46 51.1754C311.489 51.6979 311.505 52.2378 311.505 52.7949H319.505H327.505C327.505 51.9447 327.481 51.1023 327.434 50.2688L319.447 50.7221ZM319.447 50.7221L318.991 42.7351L277.774 45.086L278.23 53.073L278.686 61.06L319.902 58.7091L319.447 50.7221ZM327.691 73.5209H335.691V50.2518H327.691H319.691V73.5209H327.691ZM337.581 73.5209V65.5209H327.691V73.5209V81.5209H337.581V73.5209ZM337.581 49.6877H329.581V73.5209H337.581H345.581V49.6877H337.581ZM337.581 49.6877L337.126 41.7007L327.236 42.2648L327.691 50.2518L328.147 58.2388L338.037 57.6747L337.581 49.6877ZM349.621 73.5209H357.621V49.0009H349.621H341.621V73.5209H349.621ZM359.425 73.5209V65.5209H349.621V73.5209V81.5209H359.425V73.5209ZM359.425 48.4949H351.425V73.5209H359.425H367.425V48.4949H359.425ZM359.425 48.4417H351.425C351.425 48.4417 351.425 48.4425 351.425 48.4447C351.425 48.4471 351.425 48.4498 351.425 48.4545C351.425 48.4622 351.425 48.478 351.425 48.4949H359.425H367.425C367.425 48.495 367.425 48.4942 367.425 48.4919C367.425 48.4895 367.425 48.4868 367.425 48.4821C367.425 48.4744 367.425 48.4586 367.425 48.4417H359.425ZM359.425 48.4417L358.97 40.4547L349.166 41.0139L349.621 49.0009L350.077 56.988L359.881 56.4288L359.425 48.4417ZM371.465 73.5209H379.465V47.755H371.465H363.465V73.5209H371.465ZM381.355 73.5209V65.5209H371.465V73.5209V81.5209H381.355V73.5209ZM381.355 47.1909H373.355V73.5209H381.355H389.355V47.1909H381.355ZM381.355 47.1909L380.9 39.2039L371.01 39.768L371.465 47.755L371.921 55.742L381.811 55.1779L381.355 47.1909ZM401.29 54.9449L409.214 53.8459L407.991 45.0246L400.066 46.1236L392.142 47.2226L393.366 56.0439L401.29 54.9449ZM406.106 54.9449V46.9449H401.29V54.9449V62.9449H406.106V54.9449ZM407.387 45.7061L399.463 44.6071L398.182 53.8459L406.106 54.9449L414.03 56.0439L415.311 46.805L407.387 45.7061ZM407.387 45.7061L406.932 37.719L399.611 38.1366L400.066 46.1236L400.522 54.1106L407.843 53.6931L407.387 45.7061ZM397.076 73.5209H405.076V60.4489H397.076H389.076V73.5209H397.076ZM410.234 73.5209V65.5209H397.076V73.5209V81.5209H410.234V73.5209ZM410.234 60.4489H402.234V73.5209H410.234H418.234V60.4489H410.234ZM397.076 60.4489V68.4489H410.234V60.4489V52.4489H397.076V60.4489Z" fill="#EAFDFF" mask="url(#path-1-outside-1_1672_16627)"/>
<mask id="path-3-outside-2_1672_16627" maskUnits="userSpaceOnUse" x="0" y="0" width="418" height="73" fill="black">
<rect fill="white" width="418" height="73"/>
<path fill-rule="evenodd" clip-rule="evenodd" d="M53.643 62.3341L14.5527 64.5583C10.6906 60.73 8.44617 55.4355 8 49.108H19.696C20.298 57.45 26.146 61.75 33.886 61.75C40.164 61.75 45.496 59.084 45.496 53.408C45.496 48.85 42.228 46.528 35.606 45.152L26.49 43.174C17.546 41.282 10.15 35.778 10.15 26.146C10.15 15.482 20.04 8 32.854 8C47.044 8 55.472 16.084 56.16 27.78H44.464C44.206 22.19 40.25 17.46 32.252 17.46C26.318 17.46 21.416 20.212 21.416 25.114C21.416 29.844 25.372 31.392 31.478 32.768L40.25 34.66C49.452 36.638 56.762 41.798 56.762 51.86C56.762 55.8031 55.6769 59.367 53.643 62.3341ZM138.873 57.4844V44.894C138.873 33.198 133.713 26.404 120.727 26.404C109.633 26.404 102.409 32.596 101.807 41.368H112.643C112.987 36.982 116.169 34.23 121.243 34.23C125.973 34.23 128.381 36.724 128.381 39.648C128.381 41.798 127.177 43.088 123.737 43.518L117.373 44.292C108.257 45.496 100.947 48.764 100.947 58.224C100.947 58.707 100.972 59.1786 101.019 59.6384L111.729 59.0289C111.652 58.6403 111.611 58.2284 111.611 57.794C111.611 53.924 114.879 52.29 119.867 51.43L123.823 50.656C126.403 50.226 127.951 49.624 128.725 48.936V53.494C128.725 55.2055 128.346 56.7667 127.668 58.122L138.873 57.4844ZM209.241 53.4804L198.749 54.0774V9.548H209.241V29.672C209.241 30.876 209.155 32.166 208.897 33.8C211.219 29.586 215.175 26.404 221.969 26.404C231.515 26.404 237.019 33.026 237.019 43.346V51.8998L226.527 52.4968V44.894C226.527 38.702 223.517 34.746 218.443 34.746C213.025 34.746 209.241 39.304 209.241 45.238V53.4804ZM319.46 47.2089L278.235 49.5546C278.228 49.2651 278.224 48.9729 278.224 48.678C278.224 35.434 287.082 26.404 299.294 26.404C311.615 26.404 318.836 34.5628 319.46 47.2089ZM337.581 46.1778L327.691 46.7406V27.78H337.581V30.102C337.581 31.22 337.495 32.682 337.323 33.8C339.129 29.672 342.397 26.404 347.643 26.404C352.115 26.404 355.899 29.5 357.361 34.058C359.339 29.93 363.209 26.404 368.885 26.404C376.367 26.404 381.355 32.51 381.355 41.626V43.6871L371.465 44.2498V43.346C371.465 38.186 369.745 34.746 366.047 34.746C361.661 34.746 359.425 38.874 359.425 44.722V44.9349L349.621 45.4927V43.346C349.621 38.186 347.987 34.746 344.117 34.746C339.989 34.746 337.581 38.788 337.581 44.722V46.1778ZM407.349 42.208L400.103 42.6203L398.021 27.608V9.548H409.373V27.608L407.349 42.208ZM186.804 54.7572L175.636 55.3926C174.551 54.2819 172.615 53.5919 169.87 53.064L164.796 52.032C156.024 50.312 150.95 46.184 150.95 39.218C150.95 31.908 157.916 26.404 168.236 26.404C179.502 26.404 186.468 32.252 186.812 41.024H176.32C175.976 36.896 172.966 34.23 168.236 34.23C164.28 34.23 161.356 35.778 161.356 38.788C161.356 41.282 162.99 42.572 168.322 43.604L173.396 44.636C180.584 46.0586 185.62 49.1107 186.804 54.7572ZM160.154 56.2735L149.561 56.8763C149.488 56.362 149.435 55.8364 149.402 55.3H160.066C160.083 55.6327 160.113 55.9573 160.154 56.2735ZM84.706 60.5666L74.214 61.1636V17.89H66.302V9.548H84.706V60.5666ZM69.9534 61.406L64.496 61.7165V61.406H69.9534ZM252.708 19.266L254.342 35.004H262.254L263.802 19.266V9.548H252.708V19.266ZM299.208 34.23C304.884 34.23 308.668 38.1 308.754 43.776H288.888C289.49 38.272 293.532 34.23 299.208 34.23Z"/>
</mask>
<path fill-rule="evenodd" clip-rule="evenodd" d="M53.643 62.3341L14.5527 64.5583C10.6906 60.73 8.44617 55.4355 8 49.108H19.696C20.298 57.45 26.146 61.75 33.886 61.75C40.164 61.75 45.496 59.084 45.496 53.408C45.496 48.85 42.228 46.528 35.606 45.152L26.49 43.174C17.546 41.282 10.15 35.778 10.15 26.146C10.15 15.482 20.04 8 32.854 8C47.044 8 55.472 16.084 56.16 27.78H44.464C44.206 22.19 40.25 17.46 32.252 17.46C26.318 17.46 21.416 20.212 21.416 25.114C21.416 29.844 25.372 31.392 31.478 32.768L40.25 34.66C49.452 36.638 56.762 41.798 56.762 51.86C56.762 55.8031 55.6769 59.367 53.643 62.3341ZM138.873 57.4844V44.894C138.873 33.198 133.713 26.404 120.727 26.404C109.633 26.404 102.409 32.596 101.807 41.368H112.643C112.987 36.982 116.169 34.23 121.243 34.23C125.973 34.23 128.381 36.724 128.381 39.648C128.381 41.798 127.177 43.088 123.737 43.518L117.373 44.292C108.257 45.496 100.947 48.764 100.947 58.224C100.947 58.707 100.972 59.1786 101.019 59.6384L111.729 59.0289C111.652 58.6403 111.611 58.2284 111.611 57.794C111.611 53.924 114.879 52.29 119.867 51.43L123.823 50.656C126.403 50.226 127.951 49.624 128.725 48.936V53.494C128.725 55.2055 128.346 56.7667 127.668 58.122L138.873 57.4844ZM209.241 53.4804L198.749 54.0774V9.548H209.241V29.672C209.241 30.876 209.155 32.166 208.897 33.8C211.219 29.586 215.175 26.404 221.969 26.404C231.515 26.404 237.019 33.026 237.019 43.346V51.8998L226.527 52.4968V44.894C226.527 38.702 223.517 34.746 218.443 34.746C213.025 34.746 209.241 39.304 209.241 45.238V53.4804ZM319.46 47.2089L278.235 49.5546C278.228 49.2651 278.224 48.9729 278.224 48.678C278.224 35.434 287.082 26.404 299.294 26.404C311.615 26.404 318.836 34.5628 319.46 47.2089ZM337.581 46.1778L327.691 46.7406V27.78H337.581V30.102C337.581 31.22 337.495 32.682 337.323 33.8C339.129 29.672 342.397 26.404 347.643 26.404C352.115 26.404 355.899 29.5 357.361 34.058C359.339 29.93 363.209 26.404 368.885 26.404C376.367 26.404 381.355 32.51 381.355 41.626V43.6871L371.465 44.2498V43.346C371.465 38.186 369.745 34.746 366.047 34.746C361.661 34.746 359.425 38.874 359.425 44.722V44.9349L349.621 45.4927V43.346C349.621 38.186 347.987 34.746 344.117 34.746C339.989 34.746 337.581 38.788 337.581 44.722V46.1778ZM407.349 42.208L400.103 42.6203L398.021 27.608V9.548H409.373V27.608L407.349 42.208ZM186.804 54.7572L175.636 55.3926C174.551 54.2819 172.615 53.5919 169.87 53.064L164.796 52.032C156.024 50.312 150.95 46.184 150.95 39.218C150.95 31.908 157.916 26.404 168.236 26.404C179.502 26.404 186.468 32.252 186.812 41.024H176.32C175.976 36.896 172.966 34.23 168.236 34.23C164.28 34.23 161.356 35.778 161.356 38.788C161.356 41.282 162.99 42.572 168.322 43.604L173.396 44.636C180.584 46.0586 185.62 49.1107 186.804 54.7572ZM160.154 56.2735L149.561 56.8763C149.488 56.362 149.435 55.8364 149.402 55.3H160.066C160.083 55.6327 160.113 55.9573 160.154 56.2735ZM84.706 60.5666L74.214 61.1636V17.89H66.302V9.548H84.706V60.5666ZM69.9534 61.406L64.496 61.7165V61.406H69.9534ZM252.708 19.266L254.342 35.004H262.254L263.802 19.266V9.548H252.708V19.266ZM299.208 34.23C304.884 34.23 308.668 38.1 308.754 43.776H288.888C289.49 38.272 293.532 34.23 299.208 34.23Z" fill="#3A919A"/>
<path d="M53.643 62.3341L54.0975 70.3212C56.5715 70.1804 58.8406 68.9011 60.2416 66.8572L53.643 62.3341ZM14.5527 64.5583L8.92079 70.24C10.5312 71.8363 12.7434 72.6742 15.0072 72.5454L14.5527 64.5583ZM8 49.108V41.108C5.78052 41.108 3.66079 42.0301 2.14758 43.6537C0.634371 45.2774 -0.1363 47.4567 0.0198145 49.6707L8 49.108ZM19.696 49.108L27.6752 48.5322C27.3733 44.3482 23.8909 41.108 19.696 41.108V49.108ZM35.606 45.152L33.9096 52.9701C33.9325 52.9751 33.9555 52.9799 33.9784 52.9847L35.606 45.152ZM26.49 43.174L28.1864 35.3559C28.1728 35.353 28.1592 35.3501 28.1457 35.3472L26.49 43.174ZM56.16 27.78V35.78C58.3633 35.78 60.4691 34.8713 61.9806 33.2683C63.4921 31.6652 64.2756 29.5097 64.1462 27.3102L56.16 27.78ZM44.464 27.78L36.4725 28.1488C36.6696 32.4192 40.1891 35.78 44.464 35.78V27.78ZM31.478 32.768L29.7193 40.5723C29.7433 40.5777 29.7673 40.583 29.7913 40.5882L31.478 32.768ZM40.25 34.66L38.5633 42.4802L38.5688 42.4814L40.25 34.66ZM138.873 57.4844L139.328 65.4715C143.563 65.2305 146.873 61.7262 146.873 57.4844H138.873ZM101.807 41.368L93.826 40.8203C93.6742 43.0319 94.4469 45.2074 95.9599 46.8278C97.4728 48.4481 99.5903 49.368 101.807 49.368V41.368ZM112.643 41.368V49.368C116.819 49.368 120.292 46.1564 120.619 41.9935L112.643 41.368ZM123.737 43.518L124.703 51.4595C124.712 51.4584 124.721 51.4573 124.729 51.4562L123.737 43.518ZM117.373 44.292L116.407 36.3505C116.38 36.3538 116.353 36.3573 116.326 36.3609L117.373 44.292ZM101.019 59.6384L93.061 60.4583C93.4993 64.7116 97.2045 67.8683 101.473 67.6254L101.019 59.6384ZM111.729 59.0289L112.184 67.016C114.496 66.8844 116.638 65.7568 118.056 63.9248C119.474 62.0927 120.028 59.7362 119.575 57.4644L111.729 59.0289ZM119.867 51.43L121.226 59.3137C121.286 59.3035 121.344 59.2927 121.403 59.2811L119.867 51.43ZM123.823 50.656L122.508 42.7649C122.434 42.7772 122.361 42.7905 122.287 42.8049L123.823 50.656ZM128.725 48.936H136.725C136.725 45.7857 134.876 42.9286 132.002 41.6381C129.129 40.3475 125.765 40.8638 123.41 42.9567L128.725 48.936ZM127.668 58.122L120.513 54.5435C119.237 57.0959 119.416 60.135 120.985 62.5191C122.554 64.9032 125.273 66.2712 128.123 66.1091L127.668 58.122ZM209.241 53.4804L209.696 61.4675C213.931 61.2265 217.241 57.7222 217.241 53.4804H209.241ZM198.749 54.0774H190.749C190.749 56.2781 191.656 58.3815 193.256 59.8927C194.855 61.404 197.007 62.1895 199.204 62.0645L198.749 54.0774ZM198.749 9.548V1.548C194.331 1.548 190.749 5.12972 190.749 9.548H198.749ZM209.241 9.548H217.241C217.241 5.12972 213.66 1.548 209.241 1.548V9.548ZM208.897 33.8L200.995 32.5522C200.389 36.3901 202.628 40.1086 206.304 41.368C209.98 42.6275 214.029 41.0639 215.904 37.6609L208.897 33.8ZM237.019 51.8998L237.474 59.8869C241.709 59.646 245.019 56.1416 245.019 51.8998H237.019ZM226.527 52.4968H218.527C218.527 54.6975 219.434 56.8009 221.034 58.3122C222.633 59.8234 224.785 60.6089 226.982 60.4839L226.527 52.4968ZM319.46 47.2089L319.914 55.196C324.302 54.9463 327.667 51.2042 327.45 46.8148L319.46 47.2089ZM278.235 49.5546L270.237 49.7553C270.292 51.9204 271.222 53.9709 272.815 55.4384C274.407 56.9058 276.527 57.6648 278.689 57.5417L278.235 49.5546ZM337.581 46.1778L338.035 54.1649C342.27 53.9239 345.581 50.4196 345.581 46.1778H337.581ZM327.691 46.7406H319.691C319.691 48.9412 320.597 51.0447 322.197 52.5559C323.797 54.0671 325.948 54.8527 328.145 54.7276L327.691 46.7406ZM327.691 27.78V19.78C323.273 19.78 319.691 23.3617 319.691 27.78H327.691ZM337.581 27.78H345.581C345.581 23.3617 341.999 19.78 337.581 19.78V27.78ZM337.323 33.8L329.416 32.5836C328.805 36.5546 331.234 40.3627 335.093 41.4828C338.951 42.6029 343.042 40.6874 344.652 37.0066L337.323 33.8ZM357.361 34.058L349.743 36.5014C350.744 39.6216 353.546 41.816 356.816 42.0394C360.085 42.2628 363.159 40.47 364.575 37.515L357.361 34.058ZM381.355 43.6871L381.809 51.6741C386.044 51.4332 389.355 47.9288 389.355 43.6871H381.355ZM371.465 44.2498H363.465C363.465 46.4504 364.371 48.5539 365.971 50.0651C367.571 51.5764 369.722 52.3619 371.919 52.2369L371.465 44.2498ZM359.425 44.9349L359.879 52.922C364.114 52.681 367.425 49.1766 367.425 44.9349H359.425ZM349.621 45.4927H341.621C341.621 47.6934 342.527 49.7968 344.127 51.3081C345.727 52.8193 347.878 53.6048 350.075 53.4798L349.621 45.4927ZM407.349 42.208L407.803 50.1951C411.619 49.978 414.748 47.0924 415.273 43.307L407.349 42.208ZM400.103 42.6203L392.179 43.7192C392.752 47.8471 396.397 50.8441 400.558 50.6073L400.103 42.6203ZM398.021 27.608H390.021C390.021 27.9756 390.047 28.3428 390.097 28.707L398.021 27.608ZM398.021 9.548V1.548C393.603 1.548 390.021 5.12972 390.021 9.548H398.021ZM409.373 9.548H417.373C417.373 5.12972 413.792 1.548 409.373 1.548V9.548ZM409.373 27.608L417.298 28.707C417.348 28.3428 417.373 27.9756 417.373 27.608H409.373ZM186.804 54.7572L187.258 62.7442C189.584 62.6119 191.737 61.4719 193.154 59.6222C194.571 57.7725 195.111 55.397 194.634 53.1165L186.804 54.7572ZM175.636 55.3926L169.913 60.983C171.529 62.6371 173.781 63.5111 176.09 63.3797L175.636 55.3926ZM169.87 53.064L168.276 60.9035C168.304 60.9092 168.331 60.9147 168.359 60.9201L169.87 53.064ZM164.796 52.032L166.391 44.1925C166.372 44.1888 166.354 44.1851 166.335 44.1815L164.796 52.032ZM186.812 41.024V49.024C188.988 49.024 191.07 48.1375 192.579 46.5689C194.087 45.0003 194.891 42.885 194.806 40.7105L186.812 41.024ZM176.32 41.024L168.348 41.6884C168.693 45.8347 172.159 49.024 176.32 49.024V41.024ZM168.322 43.604L169.917 35.7645C169.892 35.7595 169.867 35.7546 169.842 35.7498L168.322 43.604ZM173.396 44.636L171.802 52.4755C171.815 52.4783 171.829 52.4811 171.843 52.4838L173.396 44.636ZM160.154 56.2735L160.609 64.2606C162.83 64.1342 164.898 63.0886 166.317 61.375C167.736 59.6613 168.377 57.4342 168.086 55.2286L160.154 56.2735ZM149.561 56.8763L141.64 57.9968C142.222 62.1148 145.863 65.0996 150.015 64.8634L149.561 56.8763ZM149.402 55.3V47.3C147.195 47.3 145.086 48.2116 143.575 49.8192C142.063 51.4268 141.282 53.5875 141.417 55.7902L149.402 55.3ZM160.066 55.3L168.055 54.8866C167.835 50.6347 164.324 47.3 160.066 47.3V55.3ZM84.706 60.5666L85.1604 68.5537C89.3953 68.3127 92.706 64.8083 92.706 60.5666H84.706ZM74.214 61.1636H66.214C66.214 63.3642 67.1205 65.4677 68.7201 66.9789C70.3198 68.4901 72.4713 69.2757 74.6684 69.1507L74.214 61.1636ZM74.214 17.89H82.214C82.214 13.4717 78.6322 9.89 74.214 9.89V17.89ZM66.302 17.89H58.302C58.302 22.3083 61.8837 25.89 66.302 25.89V17.89ZM66.302 9.548V1.548C61.8837 1.548 58.302 5.12972 58.302 9.548H66.302ZM84.706 9.548H92.706C92.706 5.12972 89.1242 1.548 84.706 1.548V9.548ZM69.9534 61.406L70.4079 69.3931C74.7306 69.1471 78.0732 65.5067 77.9502 61.1787C77.8271 56.8507 74.2831 53.406 69.9534 53.406V61.406ZM64.496 61.7165H56.496C56.496 63.9172 57.4025 66.0206 59.0021 67.5319C60.6018 69.0431 62.7533 69.8286 64.9504 69.7036L64.496 61.7165ZM64.496 61.406V53.406C60.0777 53.406 56.496 56.9877 56.496 61.406H64.496ZM254.342 35.004L246.385 35.8302C246.808 39.9067 250.244 43.004 254.342 43.004V35.004ZM252.708 19.266H244.708C244.708 19.5419 244.723 19.8177 244.751 20.0922L252.708 19.266ZM262.254 35.004V43.004C266.369 43.004 269.813 39.8823 270.216 35.7871L262.254 35.004ZM263.802 19.266L271.764 20.0491C271.789 19.7889 271.802 19.5275 271.802 19.266H263.802ZM263.802 9.548H271.802C271.802 5.12972 268.221 1.548 263.802 1.548V9.548ZM252.708 9.548V1.548C248.29 1.548 244.708 5.12972 244.708 9.548H252.708ZM308.754 43.776V51.776C310.897 51.776 312.95 50.9164 314.454 49.3898C315.957 47.8633 316.786 45.7973 316.753 43.6548L308.754 43.776ZM288.888 43.776L280.936 42.9062C280.688 45.1659 281.414 47.424 282.932 49.1165C284.449 50.809 286.615 51.776 288.888 51.776V43.776ZM53.643 62.3341L53.1886 54.347L14.0983 56.5713L14.5527 64.5583L15.0072 72.5454L54.0975 70.3212L53.643 62.3341ZM14.5527 64.5583L20.1847 58.8767C17.9256 56.6374 16.3141 53.2808 15.9802 48.5453L8 49.108L0.0198145 49.6707C0.57824 57.5902 3.45553 64.8226 8.92079 70.24L14.5527 64.5583ZM8 49.108V57.108H19.696V49.108V41.108H8V49.108ZM19.696 49.108L11.7168 49.6838C12.1519 55.7133 14.5906 60.9813 18.9491 64.6663C23.2067 68.2662 28.573 69.75 33.886 69.75V61.75V53.75C31.459 53.75 30.0313 53.0838 29.2794 52.4482C28.6284 51.8977 27.8421 50.8447 27.6752 48.5322L19.696 49.108ZM33.886 61.75V69.75C37.9961 69.75 42.578 68.9017 46.404 66.4158C50.5733 63.7068 53.496 59.2061 53.496 53.408H45.496H37.496C37.496 53.5274 37.4815 53.3777 37.6161 53.1417C37.7371 52.9297 37.8328 52.9042 37.6865 52.9992C37.5194 53.1078 37.1324 53.3062 36.4456 53.4744C35.7672 53.6405 34.9039 53.75 33.886 53.75V61.75ZM45.496 53.408H53.496C53.496 48.8376 51.681 44.7734 48.0467 41.8517C44.9089 39.3292 40.932 38.0878 37.2336 37.3193L35.606 45.152L33.9784 52.9847C35.3475 53.2692 36.3379 53.5618 37.0395 53.8353C37.7451 54.1103 38.0018 54.3057 38.0218 54.3218C38.0231 54.3228 37.9638 54.275 37.8789 54.1694C37.7916 54.0609 37.703 53.9232 37.6296 53.7656C37.4714 53.4259 37.496 53.242 37.496 53.408H45.496ZM35.606 45.152L37.3024 37.3339L28.1864 35.3559L26.49 43.174L24.7936 50.9921L33.9096 52.9701L35.606 45.152ZM26.49 43.174L28.1457 35.3472C24.6797 34.614 22.0832 33.2882 20.4738 31.7604C19.0341 30.3938 18.15 28.6815 18.15 26.146H10.15H2.15C2.15 33.2425 4.96389 39.0982 9.45822 43.3646C13.7828 47.4698 19.3563 49.842 24.8343 51.0008L26.49 43.174ZM10.15 26.146H18.15C18.15 21.5855 22.5594 16 32.854 16V8V0C17.5206 0 2.15 9.37848 2.15 26.146H10.15ZM32.854 8V16C38.4337 16 42.0767 17.5705 44.2918 19.5155C46.4639 21.4227 47.9399 24.2738 48.1738 28.2498L56.16 27.78L64.1462 27.3102C63.6921 19.5903 60.6101 12.5513 54.8487 7.49248C49.1303 2.47147 41.4643 0 32.854 0V8ZM56.16 27.78V19.78H44.464V27.78V35.78H56.16V27.78ZM44.464 27.78L52.4555 27.4112C52.2438 22.8243 50.4704 18.1672 46.7113 14.6681C42.9322 11.1503 37.8595 9.46 32.252 9.46V17.46V25.46C34.6425 25.46 35.5468 26.1347 35.8097 26.3794C36.0926 26.6428 36.4262 27.1457 36.4725 28.1488L44.464 27.78ZM32.252 17.46V9.46C28.1794 9.46 23.8119 10.385 20.1964 12.7756C16.3488 15.3196 13.416 19.5729 13.416 25.114H21.416H29.416C29.416 25.2763 29.3606 25.5796 29.186 25.8792C29.0303 26.1462 28.9039 26.1994 29.0211 26.1219C29.1493 26.0371 29.4739 25.8629 30.0581 25.7119C30.6346 25.5628 31.3752 25.46 32.252 25.46V17.46ZM21.416 25.114H13.416C13.416 27.4531 13.9179 29.8238 15.1512 32.0238C16.3732 34.2037 18.061 35.7666 19.7671 36.8865C22.8745 38.9264 26.7237 39.8972 29.7193 40.5723L31.478 32.768L33.2367 24.9637C31.81 24.6422 30.7237 24.3571 29.8746 24.0722C29.0113 23.7826 28.6432 23.5739 28.5474 23.511C28.5012 23.4807 28.8184 23.6836 29.1079 24.2C29.4086 24.7364 29.416 25.1399 29.416 25.114H21.416ZM31.478 32.768L29.7913 40.5882L38.5633 42.4802L40.25 34.66L41.9367 26.8398L33.1647 24.9478L31.478 32.768ZM40.25 34.66L38.5688 42.4814C42.3123 43.286 44.9183 44.594 46.4817 46.0615C47.8255 47.3228 48.762 49.007 48.762 51.86H56.762H64.762C64.762 44.651 62.0435 38.7242 57.4318 34.3955C53.0397 30.273 47.3897 28.012 41.9312 26.8387L40.25 34.66ZM56.762 51.86H48.762C48.762 54.296 48.1065 56.2616 47.0445 57.8109L53.643 62.3341L60.2416 66.8572C63.2472 62.4725 64.762 57.3103 64.762 51.86H56.762ZM138.873 44.894H130.873V57.4844H138.873H146.873V44.894H138.873ZM120.727 26.404V34.404C125.893 34.404 127.911 35.7335 128.788 36.6851C129.782 37.7641 130.873 40.0458 130.873 44.894H138.873H146.873C146.873 38.0462 145.384 31.0829 140.552 25.8409C135.603 20.4715 128.548 18.404 120.727 18.404V26.404ZM101.807 41.368L109.788 41.9157C109.94 39.7072 110.857 38.036 112.365 36.8154C113.948 35.5344 116.646 34.404 120.727 34.404V26.404V18.404C113.715 18.404 107.253 20.3696 102.3 24.3776C97.2727 28.446 94.2764 34.2568 93.826 40.8203L101.807 41.368ZM112.643 41.368V33.368H101.807V41.368V49.368H112.643V41.368ZM121.243 34.23V26.23C117.285 26.23 113.257 27.3147 110.026 30.0269C106.718 32.8038 104.987 36.673 104.668 40.7425L112.643 41.368L120.619 41.9935C120.634 41.7947 120.667 41.7906 120.611 41.9047C120.551 42.0289 120.445 42.171 120.313 42.2817C120.188 42.3868 120.135 42.3832 120.252 42.3457C120.379 42.3052 120.692 42.23 121.243 42.23V34.23ZM128.381 39.648H136.381C136.381 35.857 134.758 32.2252 131.691 29.6831C128.717 27.2182 124.968 26.23 121.243 26.23V34.23V42.23C122.248 42.23 122.068 42.4888 121.481 42.0019C121.19 41.7607 120.892 41.403 120.676 40.9385C120.462 40.4788 120.381 40.0264 120.381 39.648H128.381ZM123.737 43.518L124.729 51.4562C127.076 51.1629 130.137 50.4374 132.642 48.2267C135.541 45.6686 136.381 42.346 136.381 39.648H128.381H120.381C120.381 39.4544 120.407 38.9136 120.68 38.2087C120.974 37.4485 121.458 36.7575 122.056 36.2293C123.1 35.3086 123.838 35.4431 122.745 35.5798L123.737 43.518ZM117.373 44.292L118.339 52.2335L124.703 51.4595L123.737 43.518L122.771 35.5765L116.407 36.3505L117.373 44.292ZM100.947 58.224H108.947C108.947 56.9095 109.195 56.1884 109.387 55.8032C109.574 55.4294 109.869 55.0511 110.436 54.64C111.775 53.6693 114.28 52.77 118.421 52.2231L117.373 44.292L116.326 36.3609C111.35 37.018 105.642 38.3547 101.047 41.684C95.925 45.396 92.9472 51.0288 92.9472 58.224H100.947ZM101.019 59.6384L108.977 58.8184C108.958 58.6358 108.947 58.438 108.947 58.224H100.947H92.9472C92.9472 58.976 92.9851 59.7213 93.061 60.4583L101.019 59.6384ZM111.729 59.0289L111.275 51.0419L100.564 51.6513L101.019 59.6384L101.473 67.6254L112.184 67.016L111.729 59.0289ZM111.611 57.794H103.611C103.611 58.725 103.698 59.6622 103.884 60.5935L111.729 59.0289L119.575 57.4644C119.605 57.6184 119.611 57.7319 119.611 57.794H111.611ZM119.867 51.43L118.508 43.5463C115.71 44.0287 112.224 44.8868 109.307 46.911C105.849 49.3112 103.611 53.0757 103.611 57.794H111.611H119.611C119.611 57.9927 119.558 58.4999 119.237 59.0926C118.925 59.6694 118.554 59.9692 118.43 60.0555C118.344 60.1154 118.471 60.009 118.994 59.8355C119.505 59.6656 120.23 59.4855 121.226 59.3137L119.867 51.43ZM123.823 50.656L122.287 42.8049L118.331 43.5789L119.867 51.43L121.403 59.2811L125.359 58.5071L123.823 50.656ZM128.725 48.936L123.41 42.9567C123.764 42.6426 124.051 42.4732 124.176 42.4052C124.305 42.335 124.342 42.3297 124.242 42.3657C124.146 42.4003 123.959 42.4602 123.662 42.5333C123.366 42.6058 122.986 42.6852 122.508 42.7649L123.823 50.656L125.138 58.5472C127.917 58.084 131.453 57.2148 134.04 54.9153L128.725 48.936ZM128.725 53.494H136.725V48.936H128.725H120.725V53.494H128.725ZM127.668 58.122L134.823 61.7005C136.076 59.1965 136.725 56.4049 136.725 53.494H128.725H120.725C120.725 54.006 120.616 54.3369 120.513 54.5435L127.668 58.122ZM138.873 57.4844L138.419 49.4973L127.214 50.1349L127.668 58.122L128.123 66.1091L139.328 65.4715L138.873 57.4844ZM209.241 53.4804L208.787 45.4934L198.295 46.0904L198.749 54.0774L199.204 62.0645L209.696 61.4675L209.241 53.4804ZM198.749 54.0774H206.749V9.548H198.749H190.749V54.0774H198.749ZM198.749 9.548V17.548H209.241V9.548V1.548H198.749V9.548ZM209.241 9.548H201.241V29.672H209.241H217.241V9.548H209.241ZM209.241 29.672H201.241C201.241 30.4486 201.19 31.3214 200.995 32.5522L208.897 33.8L216.799 35.0478C217.121 33.0106 217.241 31.3034 217.241 29.672H209.241ZM208.897 33.8L215.904 37.6609C216.545 36.4976 217.24 35.7757 217.978 35.3173C218.686 34.8776 219.873 34.404 221.969 34.404V26.404V18.404C217.272 18.404 213.084 19.5214 209.535 21.7262C206.016 23.9124 203.572 26.8884 201.891 29.9392L208.897 33.8ZM221.969 26.404V34.404C224.775 34.404 226.207 35.3031 227.045 36.2637C228.007 37.3664 229.019 39.5377 229.019 43.346H237.019H245.019C245.019 36.8343 243.279 30.5346 239.103 25.7463C234.802 20.8159 228.71 18.404 221.969 18.404V26.404ZM237.019 43.346H229.019V51.8998H237.019H245.019V43.346H237.019ZM237.019 51.8998L236.565 43.9128L226.073 44.5098L226.527 52.4968L226.982 60.4839L237.474 59.8869L237.019 51.8998ZM226.527 52.4968H234.527V44.894H226.527H218.527V52.4968H226.527ZM226.527 44.894H234.527C234.527 40.6084 233.495 36.1362 230.676 32.552C227.678 28.7404 223.277 26.746 218.443 26.746V34.746V42.746C218.658 42.746 218.619 42.7833 218.446 42.7021C218.265 42.6169 218.143 42.4985 218.1 42.444C218.054 42.3858 218.527 42.9876 218.527 44.894H226.527ZM218.443 34.746V26.746C207.54 26.746 201.241 36.034 201.241 45.238H209.241H217.241C217.241 43.9459 217.648 43.247 217.868 42.993C217.975 42.869 218.055 42.8229 218.097 42.803C218.133 42.7862 218.23 42.746 218.443 42.746V34.746ZM209.241 45.238H201.241V53.4804H209.241H217.241V45.238H209.241ZM319.46 47.2089L319.006 39.2218L277.781 41.5676L278.235 49.5546L278.689 57.5417L319.914 55.196L319.46 47.2089ZM278.235 49.5546L286.232 49.354C286.227 49.1325 286.224 48.9072 286.224 48.678H278.224H270.224C270.224 49.0386 270.229 49.3977 270.237 49.7553L278.235 49.5546ZM278.224 48.678H286.224C286.224 43.8684 287.806 40.3577 289.962 38.1028C292.1 35.8664 295.233 34.404 299.294 34.404V26.404V18.404C291.143 18.404 283.741 21.4566 278.397 27.0462C273.071 32.6173 270.224 40.2436 270.224 48.678H278.224ZM299.294 26.404V34.404C303.591 34.404 306.255 35.7672 307.951 37.5606C309.744 39.4572 311.226 42.6646 311.47 47.603L319.46 47.2089L327.45 46.8148C327.07 39.1071 324.63 31.9121 319.576 26.5677C314.425 21.1202 307.317 18.404 299.294 18.404V26.404ZM337.581 46.1778L337.126 38.1907L327.236 38.7535L327.691 46.7406L328.145 54.7276L338.035 54.1649L337.581 46.1778ZM327.691 46.7406H335.691V27.78H327.691H319.691V46.7406H327.691ZM327.691 27.78V35.78H337.581V27.78V19.78H327.691V27.78ZM337.581 27.78H329.581V30.102H337.581H345.581V27.78H337.581ZM337.581 30.102H329.581C329.581 30.9238 329.511 31.9647 329.416 32.5836L337.323 33.8L345.23 35.0164C345.479 33.3993 345.581 31.5162 345.581 30.102H337.581ZM337.323 33.8L344.652 37.0066C345.176 35.8092 345.733 35.1606 346.132 34.8473C346.424 34.6181 346.814 34.404 347.643 34.404V26.404V18.404C338.193 18.404 332.605 24.6254 329.994 30.5935L337.323 33.8ZM347.643 26.404V34.404C347.973 34.404 348.299 34.5029 348.648 34.7804C349.019 35.0759 349.462 35.6248 349.743 36.5014L357.361 34.058L364.979 31.6146C362.63 24.2915 356.133 18.404 347.643 18.404V26.404ZM357.361 34.058L364.575 37.515C365.086 36.4488 365.755 35.6515 366.437 35.156C367.05 34.7111 367.802 34.404 368.885 34.404V26.404V18.404C359.341 18.404 353.076 24.4876 350.146 30.601L357.361 34.058ZM368.885 26.404V34.404C370.26 34.404 371.093 34.8791 371.735 35.6638C372.492 36.588 373.355 38.467 373.355 41.626H381.355H389.355C389.355 35.669 387.724 29.937 384.116 25.5292C380.394 20.9819 374.992 18.404 368.885 18.404V26.404ZM381.355 41.626H373.355V43.6871H381.355H389.355V41.626H381.355ZM381.355 43.6871L380.9 35.7L371.01 36.2627L371.465 44.2498L371.919 52.2369L381.809 51.6741L381.355 43.6871ZM371.465 44.2498H379.465V43.346H371.465H363.465V44.2498H371.465ZM371.465 43.346H379.465C379.465 40.0873 378.957 36.2908 377.024 33.0312C374.796 29.2727 370.92 26.746 366.047 26.746V34.746V42.746C365.686 42.746 365.053 42.6475 364.38 42.2491C363.727 41.8629 363.387 41.4031 363.261 41.1908C363.154 41.0108 363.221 41.049 363.308 41.4618C363.391 41.8626 363.465 42.4819 363.465 43.346H371.465ZM366.047 34.746V26.746C360.866 26.746 356.757 29.3998 354.316 33.2862C352.118 36.7862 351.425 40.9523 351.425 44.722H359.425H367.425C367.425 43.7543 367.519 43.0129 367.639 42.4893C367.762 41.9567 367.884 41.7669 367.866 41.7958C367.832 41.849 367.628 42.141 367.17 42.4061C366.69 42.684 366.252 42.746 366.047 42.746V34.746ZM359.425 44.722H351.425V44.9349H359.425H367.425V44.722H359.425ZM359.425 44.9349L358.97 36.9478L349.166 37.5057L349.621 45.4927L350.075 53.4798L359.879 52.922L359.425 44.9349ZM349.621 45.4927H357.621V43.346H349.621H341.621V45.4927H349.621ZM349.621 43.346H357.621C357.621 40.1543 357.155 36.3266 355.202 33.0312C352.908 29.1628 348.954 26.746 344.117 26.746V34.746V42.746C343.863 42.746 343.276 42.6776 342.606 42.2903C341.945 41.9079 341.584 41.4352 341.439 41.1908C341.318 40.9872 341.381 41.0067 341.466 41.4233C341.549 41.8277 341.621 42.4573 341.621 43.346H349.621ZM344.117 34.746V26.746C338.991 26.746 334.957 29.4436 332.557 33.2057C330.35 36.6649 329.581 40.8224 329.581 44.722H337.581H345.581C345.581 43.7663 345.679 43.0354 345.802 42.521C345.927 41.9983 346.053 41.7991 346.045 41.8118C346.026 41.8416 345.839 42.1152 345.394 42.3755C344.921 42.6521 344.441 42.746 344.117 42.746V34.746ZM337.581 44.722H329.581V46.1778H337.581H345.581V44.722H337.581ZM407.349 42.208L406.894 34.2209L399.649 34.6332L400.103 42.6203L400.558 50.6073L407.803 50.1951L407.349 42.208ZM400.103 42.6203L408.028 41.5213L405.946 26.509L398.021 27.608L390.097 28.707L392.179 43.7192L400.103 42.6203ZM398.021 27.608H406.021V9.548H398.021H390.021V27.608H398.021ZM398.021 9.548V17.548H409.373V9.548V1.548H398.021V9.548ZM409.373 9.548H401.373V27.608H409.373H417.373V9.548H409.373ZM409.373 27.608L401.449 26.509L399.424 41.109L407.349 42.208L415.273 43.307L417.298 28.707L409.373 27.608ZM186.804 54.7572L186.349 46.7701L175.181 47.4055L175.636 55.3926L176.09 63.3797L187.258 62.7442L186.804 54.7572ZM175.636 55.3926L181.358 49.8023C178.378 46.7512 174.163 45.743 171.381 45.208L169.87 53.064L168.359 60.9201C169.49 61.1376 170.131 61.3306 170.456 61.458C170.796 61.5914 170.433 61.5158 169.913 60.983L175.636 55.3926ZM169.87 53.064L171.465 45.2245L166.391 44.1925L164.796 52.032L163.202 59.8715L168.276 60.9035L169.87 53.064ZM164.796 52.032L166.335 44.1815C162.712 43.4711 160.808 42.4275 159.92 41.6324C159.302 41.0785 158.95 40.4963 158.95 39.218H150.95H142.95C142.95 44.9057 145.136 49.8705 149.247 53.5521C153.089 56.9925 158.108 58.8729 163.257 59.8825L164.796 52.032ZM150.95 39.218H158.95C158.95 38.3436 159.287 37.4032 160.545 36.4534C161.91 35.4219 164.434 34.404 168.236 34.404V26.404V18.404C155.725 18.404 142.95 25.5516 142.95 39.218H150.95ZM168.236 26.404V34.404C172.544 34.404 175.186 35.5205 176.617 36.6674C177.914 37.7064 178.733 39.1541 178.818 41.3375L186.812 41.024L194.806 40.7105C194.548 34.1219 191.711 28.2596 186.623 24.1817C181.668 20.2115 175.195 18.404 168.236 18.404V26.404ZM186.812 41.024V33.024H176.32V41.024V49.024H186.812V41.024ZM176.32 41.024L184.293 40.3596C183.965 36.4357 182.284 32.695 179.114 29.9916C175.997 27.3338 172.096 26.23 168.236 26.23V34.23V42.23C168.671 42.23 168.889 42.2914 168.939 42.308C168.981 42.3218 168.884 42.2955 168.732 42.1664C168.576 42.0335 168.456 41.8702 168.385 41.724C168.318 41.586 168.336 41.5517 168.348 41.6884L176.32 41.024ZM168.236 34.23V26.23C165.381 26.23 162.016 26.7631 159.083 28.5896C155.798 30.6357 153.356 34.2 153.356 38.788H161.356H169.356C169.356 39.3834 169.196 40.1417 168.762 40.8764C168.345 41.5816 167.844 41.9827 167.542 42.1709C167.26 42.3466 167.137 42.3497 167.296 42.313C167.445 42.2785 167.754 42.23 168.236 42.23V34.23ZM161.356 38.788H153.356C153.356 40.2871 153.604 42.0973 154.496 43.9377C155.407 45.8155 156.748 47.2308 158.208 48.2673C160.785 50.0967 164.009 50.9177 166.802 51.4582L168.322 43.604L169.842 35.7498C168.71 35.5305 167.987 35.337 167.545 35.1876C167.083 35.0318 167.161 35.0008 167.471 35.2212C167.856 35.4945 168.456 36.0551 168.893 36.9573C169.313 37.8222 169.356 38.536 169.356 38.788H161.356ZM168.322 43.604L166.728 51.4435L171.802 52.4755L173.396 44.636L174.991 36.7965L169.917 35.7645L168.322 43.604ZM173.396 44.636L171.843 52.4838C174.82 53.0729 176.661 53.8793 177.702 54.6227C178.559 55.2348 178.838 55.751 178.974 56.3978L186.804 54.7572L194.634 53.1165C192.426 42.5805 183.05 38.3914 174.949 36.7882L173.396 44.636ZM160.154 56.2735L159.7 48.2864L149.106 48.8892L149.561 56.8763L150.015 64.8634L160.609 64.2606L160.154 56.2735ZM149.561 56.8763L157.482 55.7558C157.44 55.4561 157.407 55.1409 157.387 54.8098L149.402 55.3L141.417 55.7902C141.463 56.5319 141.537 57.2678 141.64 57.9968L149.561 56.8763ZM149.402 55.3V63.3H160.066V55.3V47.3H149.402V55.3ZM160.066 55.3L152.077 55.7134C152.104 56.2479 152.153 56.7835 152.223 57.3184L160.154 56.2735L168.086 55.2286C168.073 55.1312 168.062 55.0175 168.055 54.8866L160.066 55.3ZM84.706 60.5666L84.2515 52.5795L73.7595 53.1765L74.214 61.1636L74.6684 69.1507L85.1604 68.5537L84.706 60.5666ZM74.214 61.1636H82.214V17.89H74.214H66.214V61.1636H74.214ZM74.214 17.89V9.89H66.302V17.89V25.89H74.214V17.89ZM66.302 17.89H74.302V9.548H66.302H58.302V17.89H66.302ZM66.302 9.548V17.548H84.706V9.548V1.548H66.302V9.548ZM84.706 9.548H76.706V60.5666H84.706H92.706V9.548H84.706ZM69.9534 61.406L69.4989 53.4189L64.0415 53.7295L64.496 61.7165L64.9504 69.7036L70.4079 69.3931L69.9534 61.406ZM64.496 61.7165H72.496V61.406H64.496H56.496V61.7165H64.496ZM64.496 61.406V69.406H69.9534V61.406V53.406H64.496V61.406ZM254.342 35.004L262.3 34.1778L260.666 18.4398L252.708 19.266L244.751 20.0922L246.385 35.8302L254.342 35.004ZM262.254 35.004V27.004H254.342V35.004V43.004H262.254V35.004ZM263.802 19.266L255.841 18.4829L254.293 34.2209L262.254 35.004L270.216 35.7871L271.764 20.0491L263.802 19.266ZM263.802 9.548H255.802V19.266H263.802H271.802V9.548H263.802ZM252.708 9.548V17.548H263.802V9.548V1.548H252.708V9.548ZM252.708 19.266H260.708V9.548H252.708H244.708V19.266H252.708ZM308.754 43.776L316.753 43.6548C316.683 39.0397 315.073 34.5777 311.752 31.2359C308.414 27.8762 303.923 26.23 299.208 26.23V34.23V42.23C299.714 42.23 300.018 42.315 300.168 42.3737C300.312 42.4301 300.373 42.4836 300.402 42.5131C300.414 42.5253 300.739 42.8363 300.755 43.8972L308.754 43.776ZM288.888 43.776V51.776H308.754V43.776V35.776H288.888V43.776ZM299.208 34.23V26.23C289.073 26.23 281.939 33.7318 280.936 42.9062L288.888 43.776L296.841 44.6458C296.953 43.6154 297.342 43.0354 297.643 42.7503C297.908 42.4996 298.353 42.23 299.208 42.23V34.23Z" fill="#EAFDFF" mask="url(#path-3-outside-2_1672_16627)"/>
</svg>
