<svg width="579" height="800" viewBox="0 0 579 800" fill="none" xmlns="http://www.w3.org/2000/svg">
<path d="M520.374 752.795C520.381 755.984 519.391 759.088 517.082 762.017C505.54 776.652 475.119 772.933 458.254 772.933C435.127 772.933 415.766 764.801 394.363 763.289L377.485 748.823C366.208 742.572 371.283 727.425 376.213 718.685C383.687 705.443 396.363 699.126 410.347 695.346C412.62 694.726 414.935 694.171 417.261 693.671C445.656 687.547 470.707 691.423 490.802 712.657C499.26 721.597 520.362 738.064 520.374 752.795Z" fill="#A6B9BC"/>
<path d="M520.374 752.795C520.381 755.984 519.391 759.088 517.082 762.017C505.54 776.652 475.119 772.933 458.254 772.933C435.127 772.933 415.766 764.801 394.363 763.289L377.485 748.823C366.208 742.572 371.283 727.425 376.213 718.685C383.687 705.443 396.363 699.126 410.347 695.346C407.677 701.042 407.833 707.425 409.998 717.54C413.893 735.695 421.764 734.682 440.172 731.976C453.752 729.987 466.983 727.732 480.731 725.858C471.165 731.018 459.858 734.592 452.378 742.53C458.176 744.682 463.228 749.486 468.766 751.571C476.276 754.386 482.087 751.685 489.627 752.385C496.33 753.006 501.399 756.743 508.885 756.116C512.846 755.785 516.594 754.23 520.374 752.795Z" fill="#859799"/>
<path d="M578.835 773.014C578.989 774.748 578.598 776.484 577.48 778.186C571.895 786.692 555.171 786.108 545.997 786.905C533.417 787.999 522.5 784.492 510.786 784.681L500.922 777.61C494.492 774.743 496.536 766.264 498.805 761.277C502.244 753.721 508.84 749.685 516.268 746.968C517.475 746.523 518.707 746.111 519.95 745.729C535.105 741.055 548.915 741.979 560.851 752.579C565.874 757.043 578.131 765.002 578.835 773.014Z" fill="#A6B9BC"/>
<path d="M578.835 773.014C578.989 774.748 578.598 776.484 577.48 778.186C571.895 786.692 555.171 786.108 545.997 786.905C533.417 787.999 522.5 784.492 510.786 784.681L500.922 777.61C494.492 774.743 496.536 766.264 498.805 761.277C502.244 753.721 508.84 749.685 516.268 746.968C515.086 750.192 515.472 753.657 517.128 759.056C520.105 768.747 524.339 767.824 534.223 765.481C541.517 763.757 548.606 761.905 555.997 760.236C551.037 763.495 545.055 765.974 541.362 770.646C544.618 771.542 547.593 773.916 550.704 774.789C554.923 775.965 557.955 774.221 562.09 774.245C565.764 774.266 568.7 776.059 572.742 775.364C574.88 774.996 576.847 773.973 578.835 773.014Z" fill="#859799"/>
<path d="M3.6847e-05 766.058C-0.00696315 769.247 0.983029 772.351 3.29203 775.28C14.834 789.914 45.254 786.196 62.12 786.196C85.248 786.196 104.608 778.065 126.012 776.552L142.889 762.086C154.166 755.835 149.091 740.688 144.161 731.948C136.687 718.705 124.011 712.388 110.027 708.609C107.755 707.988 105.441 707.434 103.113 706.934C74.718 700.81 49.668 704.685 29.572 725.921C21.114 734.86 0.0120368 751.326 3.6847e-05 766.058Z" fill="#A6B9BC"/>
<path d="M3.6847e-05 766.058C-0.00696315 769.247 0.983029 772.351 3.29203 775.28C14.834 789.914 45.254 786.196 62.12 786.196C85.248 786.196 104.608 778.065 126.012 776.552L142.889 762.086C154.166 755.835 149.091 740.688 144.161 731.948C136.687 718.705 124.011 712.388 110.027 708.609C112.697 714.305 112.541 720.688 110.376 730.802C106.483 748.957 98.611 747.944 80.203 745.238C66.622 743.249 53.392 740.995 39.644 739.12C49.21 744.28 60.517 747.854 67.997 755.792C62.199 757.944 57.148 762.748 51.608 764.834C44.098 767.649 38.288 764.948 30.747 765.648C24.044 766.268 18.975 770.006 11.489 769.379C7.52802 769.047 3.77904 767.493 3.6847e-05 766.058Z" fill="#859799"/>
<path d="M184.394 341.187C184.394 348.912 176.451 355.176 166.652 355.176C156.853 355.176 148.91 348.913 148.91 341.187V286.597C148.91 278.871 156.853 272.608 166.652 272.608C176.451 272.608 184.394 278.871 184.394 286.597V341.187Z" fill="#603D30"/>
<path d="M181.97 335.615C181.97 344.075 175.112 350.934 166.651 350.934C158.191 350.934 151.332 344.075 151.332 335.615C151.332 327.154 158.191 320.296 166.651 320.296C175.112 320.296 181.97 327.154 181.97 335.615Z" fill="#845845"/>
<path d="M175.671 336.614C175.671 341.595 171.633 345.633 166.651 345.633C161.669 345.633 157.631 341.594 157.631 336.614C157.631 331.632 161.669 327.594 166.651 327.594C171.633 327.594 175.671 331.632 175.671 336.614Z" fill="#5B3B3E"/>
<path d="M175.671 334.616C175.671 339.598 171.633 343.636 166.651 343.636C161.669 343.636 157.631 339.598 157.631 334.616C157.631 329.635 161.669 325.596 166.651 325.596C171.633 325.596 175.671 329.635 175.671 334.616Z" fill="#D69A7F"/>
<path d="M176.472 289.626C176.472 295.05 172.075 299.447 166.651 299.447C161.228 299.447 156.83 295.051 156.83 289.626C156.83 284.203 161.228 279.805 166.651 279.805C172.075 279.805 176.472 284.202 176.472 289.626Z" fill="#845845"/>
<path d="M172.435 290.267C172.435 293.461 169.846 296.049 166.652 296.049C163.459 296.049 160.869 293.46 160.869 290.267C160.869 287.074 163.458 284.485 166.652 284.485C169.846 284.484 172.435 287.073 172.435 290.267Z" fill="#5B3B3E"/>
<path d="M172.435 288.986C172.435 292.179 169.846 294.768 166.652 294.768C163.459 294.768 160.869 292.179 160.869 288.986C160.869 285.792 163.458 283.203 166.652 283.203C169.846 283.203 172.435 285.792 172.435 288.986Z" fill="#D69A7F"/>
<path d="M360.018 342.106C360.018 349.832 352.076 356.095 342.277 356.095C332.478 356.095 324.535 349.832 324.535 342.106V287.516C324.535 279.79 332.478 273.527 342.277 273.527C352.076 273.527 360.018 279.79 360.018 287.516V342.106Z" fill="#603D30"/>
<path d="M357.595 336.534C357.595 344.994 350.737 351.853 342.277 351.853C333.816 351.853 326.958 344.994 326.958 336.534C326.958 328.073 333.817 321.215 342.277 321.215C350.737 321.214 357.595 328.073 357.595 336.534Z" fill="#845845"/>
<path d="M351.297 337.532C351.297 342.513 347.259 346.552 342.277 346.552C337.295 346.552 333.257 342.513 333.257 337.532C333.257 332.551 337.295 328.512 342.277 328.512C347.259 328.512 351.297 332.551 351.297 337.532Z" fill="#5B3B3E"/>
<path d="M351.297 335.535C351.297 340.517 347.259 344.555 342.277 344.555C337.295 344.555 333.257 340.517 333.257 335.535C333.257 330.554 337.295 326.515 342.277 326.515C347.259 326.515 351.297 330.553 351.297 335.535Z" fill="#D69A7F"/>
<path d="M352.097 290.545C352.097 295.968 347.701 300.366 342.278 300.366C336.854 300.366 332.455 295.969 332.455 290.545C332.455 285.121 336.854 280.724 342.278 280.724C347.701 280.724 352.097 285.121 352.097 290.545Z" fill="#845845"/>
<path d="M348.059 291.185C348.059 294.379 345.47 296.968 342.278 296.968C339.083 296.968 336.494 294.379 336.494 291.185C336.494 287.992 339.083 285.403 342.278 285.403C345.471 285.403 348.059 287.992 348.059 291.185Z" fill="#5B3B3E"/>
<path d="M348.059 289.905C348.059 293.098 345.47 295.687 342.278 295.687C339.083 295.687 336.494 293.098 336.494 289.905C336.494 286.711 339.083 284.122 342.278 284.122C345.471 284.122 348.059 286.711 348.059 289.905Z" fill="#D69A7F"/>
<path d="M333.419 28.092C324.903 28.092 317.034 30.833 310.625 35.47C303.392 14.817 283.74 0 260.617 0C237.92 0 218.564 14.276 211.017 34.337C204.928 30.392 197.675 28.093 189.879 28.093C168.376 28.093 150.941 45.526 150.941 67.032C150.941 88.537 168.375 105.97 189.879 105.97C203.165 105.97 214.888 99.312 221.917 89.156C231.586 99.498 245.343 105.97 260.617 105.97C276.531 105.97 290.798 98.944 300.509 87.836C307.412 98.732 319.566 105.97 333.418 105.97C354.923 105.97 372.356 88.537 372.356 67.032C372.357 45.525 354.924 28.092 333.419 28.092Z" fill="#603D30"/>
<path d="M198.278 296.751C201.212 229.284 181.996 156.68 191.604 90.558C197.453 50.325 234.717 12.931 268.965 19.816C303.064 26.674 324.824 83.809 326.23 110.415C330.29 187.183 309.069 267.689 312.876 344.361C313.394 354.774 314.11 370.312 314.971 389.418C315.128 393.007 315.299 396.719 315.47 400.554C315.741 406.681 316.022 413.11 316.316 419.79C316.472 423.427 316.636 427.139 316.806 430.92C317.072 437.15 317.352 443.571 317.639 450.143C317.796 453.8 317.953 457.506 318.116 461.259C318.39 467.544 318.662 473.951 318.942 480.461C319.099 484.132 319.263 487.838 319.42 491.57C320.941 527.169 322.545 565.164 324.06 601.657C324.238 605.875 324.408 610.071 324.578 614.24C324.885 621.705 325.193 629.089 325.493 636.349C327.233 678.588 328.783 716.862 329.854 744.424C330.665 765.372 331.212 780.14 331.347 785.755H190.164C190.437 780.249 190.731 765.591 191.058 744.581C191.542 713.676 192.088 669.015 192.689 619.529C192.763 613.633 192.839 607.676 192.906 601.658C193.35 565.69 193.814 527.805 194.312 491.236C194.366 487.476 194.415 483.737 194.468 480.018C194.557 473.502 194.645 467.046 194.742 460.659C194.796 456.899 194.851 453.16 194.905 449.448C195.001 442.897 195.096 436.428 195.199 430.075C195.259 426.295 195.314 422.556 195.376 418.864C195.479 412.266 195.588 405.803 195.696 399.505C195.765 395.704 195.827 391.965 195.894 388.294C196.619 347.891 197.395 315.348 198.222 298.016C198.243 297.59 198.264 297.174 198.278 296.751Z" fill="#845845"/>
<path d="M207.256 273.45C207.256 284.756 198.09 293.921 186.784 293.921H179.622C168.316 293.921 159.151 284.756 159.151 273.45V241.723C159.151 230.417 168.317 221.251 179.622 221.251H186.784C198.09 221.251 207.256 230.416 207.256 241.723V273.45Z" fill="#603D30"/>
<path d="M347.476 273.45C347.476 284.756 338.31 293.921 327.005 293.921H319.843C308.536 293.921 299.371 284.756 299.371 273.45V241.723C299.371 230.417 308.536 221.251 319.843 221.251H327.005C338.31 221.251 347.476 230.416 347.476 241.723V273.45Z" fill="#603D30"/>
<g opacity="0.4">
<path d="M315.469 400.554C287.893 407.296 222.747 406.702 195.697 399.503C195.766 395.702 195.828 391.963 195.895 388.292C222.898 395.41 287.185 396.01 314.97 389.418C315.127 393.007 315.298 396.719 315.469 400.554Z" fill="#5B3B3E"/>
</g>
<g opacity="0.4">
<path d="M316.806 430.92C289.894 438.065 222.366 437.525 195.201 430.073C195.261 426.293 195.316 422.554 195.378 418.862C222.495 426.225 289.143 426.778 316.316 419.79C316.471 423.427 316.636 427.14 316.806 430.92Z" fill="#5B3B3E"/>
</g>
<g opacity="0.4">
<path d="M318.116 461.258C292.015 468.826 222.052 468.348 194.743 460.657C194.797 456.897 194.852 453.158 194.906 449.446C222.161 457.048 291.217 457.546 317.638 450.142C317.796 453.8 317.953 457.505 318.116 461.258Z" fill="#5B3B3E"/>
</g>
<path opacity="0.4" d="M329.853 744.424C288.064 748.818 244.658 749.644 205.387 745.836C200.692 745.379 195.903 744.977 191.058 744.581C191.542 713.676 192.088 669.015 192.689 619.529C192.763 613.633 192.839 607.676 192.906 601.658C193.35 565.69 193.814 527.805 194.312 491.236C194.366 487.476 194.415 483.737 194.468 480.018C194.557 473.502 194.645 467.046 194.742 460.659C194.796 456.899 194.851 453.16 194.905 449.448C195.001 442.897 195.096 436.428 195.199 430.075C195.259 426.295 195.314 422.556 195.376 418.864C195.479 412.266 195.588 405.803 195.696 399.505C195.765 395.704 195.827 391.965 195.894 388.294C196.619 347.891 197.395 315.348 198.222 298.016C198.241 297.593 198.263 297.177 198.277 296.754L252.096 317.648C256.552 329.706 312.607 323.504 312.668 336.408C312.77 358.196 249.653 402.345 249.365 424.133C248.867 462.114 251.781 502.627 258.878 539.762C264.357 568.428 267.864 606.519 293.044 626.116C303.156 633.984 314.211 636.836 325.491 636.352C327.233 678.588 328.782 716.862 329.853 744.424Z" fill="#5B3B3E"/>
<g opacity="0.4">
<path d="M319.419 491.569C294.294 499.58 221.771 499.177 194.312 491.235C194.367 487.475 194.416 483.736 194.469 480.017C221.873 487.871 293.435 488.301 318.942 480.46C319.099 484.132 319.262 487.837 319.419 491.569Z" fill="#5B3B3E"/>
</g>
<path d="M329.683 302.401C328.918 314.39 327.404 323.344 324.709 326.646C313.245 340.716 267.642 381.946 255.051 381.229C254.335 381.188 252.083 379.769 251.571 380.205C242.147 388.359 193.384 339.693 181.92 325.622C173.275 315.018 176.769 246.289 178.324 205.408C178.735 194.531 179.014 185.625 178.885 180.31H327.772C327.614 184.52 327.772 191.548 328.078 200.324C329.055 228.281 331.49 273.926 329.683 302.401Z" fill="#AA7C65"/>
<path d="M299.177 319.652C298.986 319.85 298.788 320.027 298.57 320.198C291.815 325.575 273.206 318.915 253.315 319.569C234.325 318.942 216.494 324.987 209.043 320.852C208.443 320.524 207.91 320.129 207.447 319.651C204.745 316.464 206.628 308.842 214.734 301.507C222.616 294.26 236.721 287.299 253.316 287.518C269.913 287.299 284.016 294.26 291.897 301.507C300.002 308.843 301.878 316.465 299.177 319.652Z" fill="#5B3B3E"/>
<path opacity="0.6" d="M298.57 320.198C291.815 325.575 273.206 318.915 253.315 319.569C234.325 318.942 216.494 324.987 209.043 320.852C210.421 318.375 212.523 315.721 215.417 313.107C223.298 305.86 237.403 298.9 253.998 299.118C270.593 298.899 284.699 305.86 292.58 313.107C295.213 315.496 297.192 317.912 298.57 320.198Z" fill="#5B3B3E"/>
<path d="M289.893 324.36C286.005 324.36 281.313 323.785 276.346 323.176C270.206 322.423 263.249 321.57 256.146 321.57C255.211 321.57 254.279 321.585 253.38 321.615L253.313 321.617L253.245 321.615C252.346 321.586 251.415 321.57 250.481 321.57C243.379 321.57 236.421 322.423 230.283 323.175C225.315 323.784 220.622 324.359 216.734 324.359C213.488 324.359 208.841 324.019 205.979 321.077L205.888 320.976C202.573 317.076 204.065 308.395 213.357 299.986C221.102 292.867 235.742 285.222 253.339 285.471C253.545 285.468 253.809 285.466 254.068 285.466C271.326 285.466 285.641 292.973 293.283 299.997C302.561 308.395 304.053 317.076 300.74 320.976L300.646 321.078C297.784 324.02 293.138 324.36 289.893 324.36ZM256.146 317.476C263.498 317.476 270.589 318.346 276.844 319.112C281.894 319.731 286.257 320.266 289.893 320.266C293.822 320.266 296.292 319.633 297.659 318.276C299.383 316.121 297.878 309.68 290.523 303.022C283.332 296.412 269.762 289.331 253.339 289.566C253.043 289.563 252.8 289.561 252.557 289.561C236.476 289.561 223.188 296.509 216.114 303.012C208.746 309.68 207.24 316.121 208.966 318.276C210.332 319.633 212.804 320.266 216.732 320.266C220.37 320.266 224.731 319.731 229.781 319.112C236.037 318.346 243.128 317.476 250.479 317.476C251.436 317.476 252.389 317.492 253.312 317.521C254.237 317.492 255.189 317.476 256.146 317.476Z" fill="#D69A7F"/>
<path d="M241.13 312.187L253.502 341.428L265.31 312.187H241.13Z" fill="#5B3B3E"/>
<path d="M253.545 346.786L238.041 310.139H268.344L253.545 346.786ZM244.219 314.234L253.459 336.07L262.276 314.234H244.219Z" fill="#D69A7F"/>
<path d="M226.155 224.99C226.155 234.116 218.252 241.513 208.504 241.513C198.755 241.513 190.853 234.115 190.853 224.99C190.853 215.864 198.756 208.465 208.504 208.465C218.252 208.465 226.155 215.863 226.155 224.99Z" fill="#5B3B3E"/>
<path d="M226.61 219.075C226.61 228.201 218.707 235.599 208.959 235.599C199.212 235.599 191.309 228.201 191.309 219.075C191.309 209.949 199.212 202.551 208.959 202.551C218.707 202.551 226.61 209.949 226.61 219.075Z" fill="#D69A7F"/>
<path d="M315.317 224.99C315.317 234.116 307.417 241.513 297.669 241.513C287.921 241.513 280.016 234.115 280.016 224.99C280.016 215.864 287.921 208.465 297.669 208.465C307.417 208.465 315.317 215.863 315.317 224.99Z" fill="#5B3B3E"/>
<path d="M315.774 219.075C315.774 228.201 307.871 235.599 298.123 235.599C288.375 235.599 280.471 228.201 280.471 219.075C280.471 209.949 288.375 202.551 298.123 202.551C307.871 202.551 315.774 209.949 315.774 219.075Z" fill="#D69A7F"/>
<path d="M247.511 222.796L234.546 266.467L257.746 271.927L243.417 261.691L247.511 222.796Z" fill="#5B3B3E"/>
<path d="M267.299 222.796L280.265 266.467L257.063 271.927L271.393 261.691L267.299 222.796Z" fill="#5B3B3E"/>
<path d="M240.232 263.51L254.79 254.867L256.837 271.927L240.232 263.51Z" fill="#5B3B3E"/>
<path d="M274.579 263.51L260.022 254.867L257.975 271.927L274.579 263.51Z" fill="#5B3B3E"/>
<path opacity="0.7" d="M203.703 180.311C199.738 186.78 188.828 199.622 178.324 205.409C178.735 194.532 179.014 185.626 178.885 180.311H203.703Z" fill="#5B3B3E"/>
<path opacity="0.7" d="M309.791 180.311C311.32 190.935 312.48 215.89 296.997 218.967C285.622 221.233 278.484 207.455 275.031 195.882C274.547 199.021 273.844 202.044 272.861 204.876C271.395 209.079 268.809 213.685 265.492 216.879C264.939 217.439 264.346 217.957 263.704 218.435C261.623 219.971 259.597 220.721 257.651 220.864C257.569 220.871 257.495 220.878 257.412 220.885C257.242 220.891 257.064 220.899 256.894 220.899C256.723 220.899 256.553 220.892 256.382 220.885C256.3 220.878 256.225 220.871 256.144 220.864C254.2 220.721 252.165 219.977 250.09 218.435C249.449 217.958 248.856 217.439 248.303 216.879C244.986 213.686 242.4 209.079 240.932 204.876C239.95 202.044 239.248 199.021 238.762 195.882C235.31 207.455 228.172 221.232 216.795 218.967C201.306 215.89 202.466 190.935 204.001 180.311H309.791Z" fill="#5B3B3E"/>
<path opacity="0.7" d="M328.078 200.324C320.211 193.93 313.121 185.257 310.092 180.31H327.772C327.615 184.521 327.772 191.549 328.078 200.324Z" fill="#5B3B3E"/>
<path d="M354.344 187.483C344.121 209.715 314.868 177.07 308.666 166.336C310.242 176.537 311.791 202.515 295.973 205.662C284.591 207.927 277.46 194.15 274 182.577C273.522 185.723 272.82 188.739 271.837 191.571C270.37 195.774 267.784 200.38 264.46 203.574C263.908 204.133 263.321 204.652 262.679 205.129C260.599 206.672 258.572 207.415 256.628 207.559C256.546 207.566 256.464 207.572 256.389 207.58C256.211 207.586 256.041 207.593 255.87 207.593C255.699 207.593 255.529 207.586 255.359 207.58C255.277 207.573 255.195 207.566 255.12 207.559C253.176 207.416 251.141 206.672 249.067 205.129C248.426 204.652 247.831 204.133 247.279 203.574C243.963 200.38 241.37 195.774 239.91 191.571C238.927 188.739 238.224 185.723 237.74 182.577C234.287 194.15 227.149 207.927 215.774 205.662C199.951 202.516 201.5 176.538 203.082 166.336C196.874 177.07 167.626 209.715 157.405 187.483C153.624 179.253 158.585 164.951 162.038 156.769C162.713 155.172 164.726 152.695 167.319 149.856C174.812 141.654 187.149 130.49 185.913 129.31H322.389C321.175 130.47 334.939 141.293 343.447 149.454C346.58 152.456 349.002 155.104 349.706 156.769C353.155 164.95 358.124 179.253 354.344 187.483Z" fill="#AA7C65"/>
<path d="M255.817 199.364C263.69 199.364 270.073 183.886 270.073 164.792C270.073 145.698 263.69 130.22 255.817 130.22C247.943 130.22 241.561 145.698 241.561 164.792C241.561 183.886 247.943 199.364 255.817 199.364Z" fill="#845845"/>
<path d="M264.212 167.046C264.212 178.288 260.454 187.402 255.816 187.402C251.181 187.402 247.423 178.288 247.423 167.046C247.423 155.803 251.181 146.689 255.816 146.689C260.454 146.689 264.212 155.803 264.212 167.046Z" fill="#5B3B3E"/>
<path d="M264.212 162.538C264.212 173.78 260.454 182.894 255.816 182.894C251.181 182.894 247.423 173.78 247.423 162.538C247.423 151.295 251.181 142.181 255.816 142.181C260.454 142.181 264.212 151.296 264.212 162.538Z" fill="#AA7C65"/>
<path d="M231.743 176.848C230.144 188.175 223.536 196.607 216.985 195.683C210.433 194.759 206.417 184.828 208.014 173.5C209.613 162.173 216.221 153.741 222.772 154.665C229.323 155.59 233.34 165.521 231.743 176.848Z" fill="#845845"/>
<path d="M226.675 177.497C225.735 184.165 221.844 189.131 217.986 188.587C214.128 188.042 211.763 182.195 212.705 175.526C213.646 168.857 217.536 163.891 221.393 164.436C225.251 164.98 227.617 170.828 226.675 177.497Z" fill="#5B3B3E"/>
<path d="M227.052 174.823C226.111 181.491 222.22 186.457 218.362 185.913C214.505 185.368 212.14 179.52 213.081 172.852C214.022 166.183 217.913 161.217 221.77 161.762C225.627 162.306 227.994 168.154 227.052 174.823Z" fill="#AA7C65"/>
<path d="M280.801 176.848C282.399 188.175 289.007 196.607 295.559 195.683C302.11 194.759 306.126 184.828 304.529 173.5C302.93 162.173 296.323 153.741 289.771 154.665C283.22 155.59 279.203 165.521 280.801 176.848Z" fill="#845845"/>
<path d="M285.866 177.497C286.807 184.165 290.698 189.131 294.556 188.587C298.414 188.042 300.778 182.195 299.837 175.526C298.896 168.857 295.005 163.891 291.148 164.436C287.292 164.98 284.925 170.828 285.866 177.497Z" fill="#5B3B3E"/>
<path d="M285.49 174.823C286.431 181.491 290.322 186.457 294.179 185.913C298.037 185.368 300.402 179.52 299.462 172.852C298.52 166.183 294.63 161.217 290.773 161.762C286.915 162.306 284.548 168.154 285.49 174.823Z" fill="#AA7C65"/>
<path d="M324.878 176.306C330.302 186.378 339.421 191.998 345.248 188.861C351.072 185.724 351.4 175.016 345.977 164.944C340.553 154.873 331.433 149.252 325.607 152.389C319.782 155.526 319.454 166.235 324.878 176.306Z" fill="#845845"/>
<path d="M329.854 175.16C333.048 181.089 338.418 184.4 341.849 182.552C345.278 180.705 345.471 174.4 342.278 168.47C339.085 162.54 333.714 159.23 330.285 161.077C326.854 162.924 326.661 169.229 329.854 175.16Z" fill="#5B3B3E"/>
<path d="M328.574 172.782C331.769 178.711 337.138 182.021 340.569 180.174C343.999 178.326 344.19 172.022 340.996 166.092C337.803 160.162 332.433 156.852 329.004 158.7C325.574 160.546 325.382 166.852 328.574 172.782Z" fill="#AA7C65"/>
<path d="M184.934 176.306C179.511 186.378 170.391 191.998 164.565 188.861C158.74 185.724 158.414 175.016 163.837 164.944C169.261 154.873 178.381 149.252 184.207 152.389C190.031 155.526 190.358 166.235 184.934 176.306Z" fill="#845845"/>
<path d="M179.958 175.16C176.764 181.089 171.394 184.4 167.964 182.552C164.534 180.705 164.343 174.4 167.535 168.47C170.73 162.54 176.1 159.23 179.528 161.077C182.958 162.924 183.152 169.229 179.958 175.16Z" fill="#5B3B3E"/>
<path d="M181.237 172.782C178.045 178.711 172.674 182.021 169.244 180.174C165.814 178.326 165.622 172.022 168.815 166.092C172.008 160.162 177.378 156.852 180.807 158.7C184.239 160.546 184.431 166.852 181.237 172.782Z" fill="#AA7C65"/>
<path opacity="0.7" d="M343.445 149.454C337.188 155.486 328.693 159.191 319.317 159.191C306.939 159.191 296.075 152.722 289.907 142.985C281.227 152.913 268.474 159.191 254.253 159.191C240.598 159.191 228.308 153.411 219.663 144.165C213.386 153.241 202.905 159.191 191.031 159.191C181.861 159.191 173.529 155.65 167.319 149.856C174.812 141.654 187.149 130.49 185.913 129.31H322.389C321.173 130.47 334.936 141.292 343.445 149.454Z" fill="#5B3B3E"/>
<path d="M225.831 111.428C225.831 130.648 210.25 146.229 191.031 146.229C171.811 146.229 156.229 130.648 156.229 111.428C156.229 92.208 171.811 76.627 191.031 76.627C210.251 76.626 225.831 92.208 225.831 111.428Z" fill="#AA7C65"/>
<path d="M354.119 111.428C354.119 130.648 338.539 146.229 319.319 146.229C300.099 146.229 284.518 130.648 284.518 111.428C284.518 92.208 300.099 76.627 319.319 76.627C338.538 76.626 354.119 92.208 354.119 111.428Z" fill="#AA7C65"/>
<path d="M301.607 98.8741C301.607 125.027 280.405 146.228 254.253 146.228C228.099 146.228 206.896 125.027 206.896 98.8741C206.896 72.7201 228.1 51.519 254.253 51.519C280.405 51.519 301.607 72.7211 301.607 98.8741Z" fill="#AA7C65"/>
<path d="M282.107 98.8741C282.107 114.287 269.612 126.782 254.199 126.782C238.787 126.782 226.291 114.287 226.291 98.8741C226.291 83.4601 238.787 70.9651 254.199 70.9651C269.612 70.9661 282.107 83.4611 282.107 98.8741Z" fill="#845845"/>
<path d="M270.632 100.694C270.632 109.769 263.276 117.126 254.199 117.126C245.125 117.126 237.767 109.769 237.767 100.694C237.767 91.619 245.124 84.261 254.199 84.261C263.276 84.261 270.632 91.619 270.632 100.694Z" fill="#5B3B3E"/>
<path d="M270.632 97.0551C270.632 106.13 263.276 113.488 254.199 113.488C245.125 113.488 237.767 106.13 237.767 97.0551C237.767 87.9791 245.124 80.6221 254.199 80.6221C263.276 80.6221 270.632 87.9791 270.632 97.0551Z" fill="#D69A7F"/>
<path d="M342.157 112.067C342.157 122.079 334.041 130.195 324.029 130.195C314.018 130.195 305.902 122.079 305.902 112.067C305.902 102.055 314.018 93.939 324.029 93.939C334.041 93.939 342.157 102.055 342.157 112.067Z" fill="#845845"/>
<path d="M334.703 113.249C334.703 119.143 329.926 123.922 324.029 123.922C318.135 123.922 313.357 119.143 313.357 113.249C313.357 107.354 318.136 102.574 324.029 102.574C329.926 102.575 334.703 107.354 334.703 113.249Z" fill="#5B3B3E"/>
<path d="M334.703 110.885C334.703 116.78 329.926 121.559 324.029 121.559C318.135 121.559 313.357 116.78 313.357 110.885C313.357 104.99 318.136 100.211 324.029 100.211C329.926 100.211 334.703 104.99 334.703 110.885Z" fill="#D69A7F"/>
<path d="M207.274 112.295C207.274 122.307 199.158 130.423 189.146 130.423C179.135 130.423 171.018 122.307 171.018 112.295C171.018 102.283 179.135 94.167 189.146 94.167C199.159 94.167 207.274 102.283 207.274 112.295Z" fill="#845845"/>
<path d="M199.822 113.477C199.822 119.372 195.044 124.151 189.147 124.151C183.254 124.151 178.474 119.372 178.474 113.477C178.474 107.582 183.254 102.803 189.147 102.803C195.043 102.802 199.822 107.582 199.822 113.477Z" fill="#5B3B3E"/>
<path d="M199.822 111.113C199.822 117.007 195.044 121.786 189.147 121.786C183.254 121.786 178.474 117.006 178.474 111.113C178.474 105.218 183.254 100.439 189.147 100.439C195.043 100.438 199.822 105.218 199.822 111.113Z" fill="#D69A7F"/>
<path d="M453.232 729.645V779.763C453.232 787.561 446.911 793.882 439.113 793.882H340.996C333.197 793.882 326.875 787.561 326.875 779.763V729.645C326.875 721.847 333.197 715.526 340.996 715.526H439.113C446.912 715.526 453.232 721.846 453.232 729.645Z" fill="#5B3B3E"/>
<path opacity="0.6" d="M453.232 729.645V752.716C436.233 761.587 412.937 767.061 387.231 767.061C364.268 767.061 343.221 762.694 326.875 755.432V729.646C326.875 727.905 327.192 726.243 327.766 724.705C329.766 719.344 334.933 715.527 340.996 715.527H439.113C445.175 715.527 450.342 719.344 452.343 724.705C452.917 726.242 453.232 727.904 453.232 729.645Z" fill="#AA7C65"/>
<path opacity="0.6" d="M452.343 724.703H327.766C329.766 719.342 334.933 715.525 340.996 715.525H439.113C445.176 715.526 450.342 719.343 452.343 724.703Z" fill="#AA7C65"/>
<path d="M427.468 785.414H352.642C344.078 785.414 337.111 778.447 337.111 769.883V744.471C337.111 735.908 344.078 728.94 352.642 728.94H427.468C436.031 728.94 442.999 735.907 442.999 744.471V769.883C442.998 778.446 436.031 785.414 427.468 785.414ZM352.641 731.764C345.634 731.764 339.934 737.464 339.934 744.471V769.883C339.934 776.889 345.634 782.589 352.641 782.589H427.467C434.474 782.589 440.174 776.889 440.174 769.883V744.471C440.174 737.465 434.474 731.764 427.467 731.764H352.641Z" fill="#5B3B3E"/>
<path opacity="0.3" d="M421.22 739.528H361.357C354.507 739.528 348.934 745.1 348.934 751.955V772.282C348.934 779.132 354.507 784.709 361.357 784.709H421.22C428.07 784.709 433.642 779.132 433.642 772.282V751.955C433.642 745.101 428.07 739.528 421.22 739.528Z" fill="#AA7C65"/>
<path d="M200.565 729.645V779.763C200.565 787.561 194.244 793.882 186.445 793.882H88.328C80.529 793.882 74.208 787.561 74.208 779.763V729.645C74.208 721.847 80.529 715.526 88.328 715.526H186.445C194.244 715.526 200.565 721.846 200.565 729.645Z" fill="#5B3B3E"/>
<path opacity="0.6" d="M200.565 729.645V752.716C183.566 761.587 160.268 767.061 134.562 767.061C111.601 767.061 90.554 762.694 74.208 755.432V729.646C74.208 727.905 74.524 726.243 75.098 724.705C77.097 719.344 82.265 715.527 88.328 715.527H186.445C192.507 715.527 197.674 719.344 199.674 724.705C200.249 726.242 200.565 727.904 200.565 729.645Z" fill="#AA7C65"/>
<path opacity="0.6" d="M199.675 724.703H75.0977C77.0967 719.342 82.2646 715.525 88.3276 715.525H186.445C192.508 715.526 197.674 719.343 199.675 724.703Z" fill="#AA7C65"/>
<path d="M174.8 785.414H99.9744C91.4114 785.414 84.4434 778.447 84.4434 769.883V744.471C84.4434 735.908 91.4104 728.94 99.9744 728.94H174.8C183.364 728.94 190.331 735.907 190.331 744.471V769.883C190.33 778.446 183.363 785.414 174.8 785.414ZM99.9744 731.764C92.9684 731.764 87.2673 737.464 87.2673 744.471V769.883C87.2673 776.889 92.9684 782.589 99.9744 782.589H174.8C181.807 782.589 187.506 776.889 187.506 769.883V744.471C187.506 737.465 181.806 731.764 174.8 731.764H99.9744Z" fill="#5B3B3E"/>
<path opacity="0.3" d="M168.552 739.528H108.69C101.839 739.528 96.2666 745.1 96.2666 751.955V772.282C96.2666 779.132 101.84 784.709 108.69 784.709H168.552C175.402 784.709 180.974 779.132 180.974 772.282V751.955C180.974 745.101 175.402 739.528 168.552 739.528Z" fill="#AA7C65"/>
<path opacity="0.7" d="M215.703 579.223C213.001 583.638 199.526 613.449 192.689 619.528C192.763 613.632 192.839 607.675 192.906 601.657L215.703 579.223Z" fill="#5B3B3E"/>
<path opacity="0.7" d="M314.257 601.658C315.787 612.283 316.947 637.237 301.463 640.315C290.088 642.58 282.95 628.804 279.497 617.231C279.013 620.369 278.31 623.392 277.327 626.224C275.86 630.428 273.273 635.034 269.958 638.227C269.405 638.787 268.812 639.305 268.17 639.783C266.089 641.318 264.062 642.069 262.117 642.212C262.035 642.219 261.96 642.226 261.879 642.233C261.708 642.24 261.53 642.246 261.36 642.246C261.19 642.246 261.018 642.239 260.847 642.233C260.766 642.226 260.691 642.219 260.608 642.212C258.664 642.069 256.631 641.325 254.555 639.783C253.914 639.305 253.32 638.787 252.768 638.227C249.451 635.034 246.865 630.428 245.397 626.224C244.415 623.392 243.712 620.369 243.228 617.231C239.775 628.804 232.637 642.581 221.262 640.315C205.773 637.237 206.933 612.283 208.468 601.658H314.257Z" fill="#5B3B3E"/>
<path opacity="0.7" d="M324.578 614.24C320.143 609.565 307.267 581.499 305.322 578.313L324.06 601.657C324.238 605.874 324.407 610.071 324.578 614.24Z" fill="#5B3B3E"/>
<path d="M358.81 608.83C348.588 631.062 319.334 598.417 313.132 587.683C314.708 597.885 316.258 623.863 300.44 627.009C289.057 629.274 281.926 615.497 278.467 603.924C277.99 607.069 277.286 610.085 276.304 612.918C274.837 617.121 272.251 621.727 268.928 624.921C268.375 625.48 267.788 625.999 267.146 626.477C265.066 628.019 263.039 628.763 261.093 628.906C261.011 628.913 260.93 628.919 260.855 628.927C260.678 628.934 260.508 628.941 260.337 628.941C260.166 628.941 259.996 628.934 259.825 628.927C259.742 628.92 259.661 628.913 259.585 628.906C257.64 628.763 255.606 628.019 253.532 626.477C252.891 625.999 252.298 625.48 251.745 624.921C248.429 621.728 245.835 617.122 244.375 612.918C243.392 610.085 242.69 607.07 242.205 603.924C238.752 615.497 231.615 629.274 220.239 627.009C204.415 623.863 205.963 597.885 207.547 587.683C201.338 598.417 172.09 631.062 161.869 608.83C158.089 600.6 163.049 586.298 166.502 578.116C167.178 576.519 169.191 574.042 171.785 571.204C179.277 563.002 191.615 551.838 190.379 550.657H326.854C325.64 551.818 339.403 562.64 347.913 570.801C351.044 573.803 353.467 576.451 354.17 578.116C357.622 586.298 362.59 600.601 358.81 608.83Z" fill="#AA7C65"/>
<path d="M274.539 586.14C274.539 605.235 268.156 620.712 260.283 620.712C252.411 620.712 246.028 605.235 246.028 586.14C246.028 567.046 252.411 551.568 260.283 551.568C268.156 551.568 274.539 567.046 274.539 586.14Z" fill="#845845"/>
<path d="M268.678 588.394C268.678 599.636 264.92 608.75 260.283 608.75C255.649 608.75 251.889 599.636 251.889 588.394C251.889 577.151 255.648 568.037 260.283 568.037C264.921 568.037 268.678 577.151 268.678 588.394Z" fill="#5B3B3E"/>
<path d="M268.678 583.887C268.678 595.128 264.92 604.243 260.283 604.243C255.649 604.243 251.889 595.128 251.889 583.887C251.889 572.644 255.648 563.53 260.283 563.53C264.921 563.529 268.678 572.643 268.678 583.887Z" fill="#AA7C65"/>
<path d="M236.207 598.196C234.609 609.523 228.002 617.955 221.451 617.031C214.899 616.107 210.883 606.176 212.481 594.849C214.078 583.523 220.687 575.09 227.238 576.014C233.789 576.938 237.806 586.869 236.207 598.196Z" fill="#845845"/>
<path d="M231.142 598.845C230.201 605.514 226.31 610.479 222.452 609.935C218.595 609.391 216.23 603.543 217.171 596.874C218.112 590.205 222.002 585.239 225.859 585.783C229.718 586.328 232.083 592.176 231.142 598.845Z" fill="#5B3B3E"/>
<path d="M231.519 596.171C230.579 602.84 226.687 607.806 222.83 607.261C218.973 606.716 216.608 600.869 217.549 594.2C218.49 587.531 222.38 582.565 226.237 583.109C230.095 583.653 232.461 589.502 231.519 596.171Z" fill="#AA7C65"/>
<path d="M285.268 598.196C286.866 609.523 293.474 617.955 300.025 617.031C306.575 616.107 310.593 606.176 308.995 594.849C307.396 583.523 300.789 575.09 294.237 576.014C287.687 576.938 283.67 586.869 285.268 598.196Z" fill="#845845"/>
<path d="M290.335 598.845C291.275 605.514 295.167 610.479 299.023 609.935C302.881 609.391 305.246 603.543 304.304 596.874C303.364 590.205 299.474 585.239 295.617 585.783C291.758 586.328 289.393 592.176 290.335 598.845Z" fill="#5B3B3E"/>
<path d="M289.957 596.171C290.898 602.84 294.789 607.806 298.647 607.261C302.505 606.716 304.87 600.869 303.928 594.2C302.987 587.531 299.098 582.565 295.239 583.109C291.382 583.653 289.015 589.502 289.957 596.171Z" fill="#AA7C65"/>
<path d="M329.345 597.653C334.768 607.725 343.888 613.345 349.713 610.208C355.539 607.071 355.866 596.363 350.443 586.291C345.019 576.22 335.899 570.599 330.073 573.736C324.248 576.875 323.921 587.583 329.345 597.653Z" fill="#845845"/>
<path d="M334.321 596.508C337.514 602.438 342.885 605.747 346.315 603.9C349.746 602.053 349.937 595.748 346.744 589.818C343.551 583.888 338.181 580.578 334.751 582.425C331.321 584.272 331.128 590.578 334.321 596.508Z" fill="#5B3B3E"/>
<path d="M333.041 594.131C336.234 600.061 341.604 603.37 345.035 601.522C348.465 599.675 348.656 593.371 345.463 587.441C342.271 581.511 336.9 578.202 333.471 580.048C330.04 581.895 329.847 588.201 333.041 594.131Z" fill="#AA7C65"/>
<path d="M189.4 597.653C183.977 607.725 174.856 613.345 169.031 610.208C163.206 607.071 162.879 596.363 168.303 586.291C173.727 576.22 182.847 570.599 188.673 573.736C194.497 576.875 194.825 587.583 189.4 597.653Z" fill="#845845"/>
<path d="M184.426 596.508C181.232 602.438 175.86 605.747 172.431 603.9C169 602.053 168.808 595.748 172.001 589.818C175.195 583.888 180.565 580.578 183.995 582.425C187.425 584.272 187.618 590.578 184.426 596.508Z" fill="#5B3B3E"/>
<path d="M185.705 594.131C182.512 600.061 177.142 603.37 173.711 601.522C170.281 599.675 170.09 593.371 173.283 587.441C176.476 581.511 181.846 578.202 185.275 580.048C188.706 581.895 188.898 588.201 185.705 594.131Z" fill="#AA7C65"/>
<path opacity="0.7" d="M347.913 570.802C341.656 576.834 333.16 580.539 323.783 580.539C311.405 580.539 300.542 574.07 294.373 564.333C285.694 574.262 272.94 580.539 258.719 580.539C245.065 580.539 232.774 574.759 224.129 565.513C217.851 574.588 207.37 580.539 195.496 580.539C186.326 580.539 177.994 576.998 171.784 571.205C179.276 563.003 191.614 551.839 190.378 550.658H326.853C325.639 551.818 339.403 562.64 347.913 570.802Z" fill="#5B3B3E"/>
<path d="M230.299 532.776C230.299 551.996 214.717 567.577 195.498 567.577C176.277 567.577 160.696 551.996 160.696 532.776C160.696 513.556 176.278 497.975 195.498 497.975C214.717 497.975 230.299 513.556 230.299 532.776Z" fill="#AA7C65"/>
<path d="M358.326 536.995C360.68 517.919 347.125 500.546 328.049 498.191C308.973 495.837 291.6 509.392 289.246 528.468C286.891 547.544 300.447 564.917 319.522 567.271C338.598 569.626 355.971 556.07 358.326 536.995Z" fill="#AA7C65"/>
<path d="M306.073 520.222C306.073 546.376 284.871 567.577 258.719 567.577C232.566 567.577 211.364 546.376 211.364 520.222C211.364 494.069 232.567 472.867 258.719 472.867C284.871 472.867 306.073 494.069 306.073 520.222Z" fill="#AA7C65"/>
<path d="M286.455 523.028C287.995 507.692 276.81 494.012 261.474 492.472C246.138 490.932 232.458 502.116 230.918 517.452C229.378 532.788 240.562 546.469 255.898 548.009C271.234 549.548 284.915 538.364 286.455 523.028Z" fill="#845845"/>
<path opacity="0.7" d="M275.1 522.042C275.1 531.117 267.742 538.474 258.666 538.474C249.591 538.474 242.234 531.116 242.234 522.042C242.234 512.967 249.591 505.609 258.666 505.609C267.742 505.609 275.1 512.967 275.1 522.042Z" fill="#5B3B3E"/>
<path d="M275.1 518.402C275.1 527.477 267.742 534.835 258.666 534.835C249.591 534.835 242.234 527.477 242.234 518.402C242.234 509.327 249.591 501.97 258.666 501.97C267.742 501.97 275.1 509.327 275.1 518.402Z" fill="#D69A7F"/>
<path d="M346.624 533.415C346.624 543.427 338.508 551.542 328.497 551.542C318.486 551.542 310.369 543.426 310.369 533.415C310.369 523.403 318.485 515.287 328.497 515.287C338.508 515.287 346.624 523.403 346.624 533.415Z" fill="#845845"/>
<path opacity="0.7" d="M339.172 534.597C339.172 540.491 334.393 545.27 328.498 545.27C322.604 545.27 317.824 540.491 317.824 534.597C317.824 528.702 322.604 523.923 328.498 523.923C334.393 523.923 339.172 528.702 339.172 534.597Z" fill="#5B3B3E"/>
<path d="M339.172 532.233C339.172 538.127 334.393 542.907 328.498 542.907C322.604 542.907 317.824 538.128 317.824 532.233C317.824 526.337 322.604 521.559 328.498 521.559C334.393 521.56 339.172 526.338 339.172 532.233Z" fill="#D69A7F"/>
<path d="M211.741 533.642C211.741 543.654 203.625 551.77 193.614 551.77C183.603 551.77 175.486 543.654 175.486 533.642C175.486 523.63 183.603 515.514 193.614 515.514C203.625 515.515 211.741 523.63 211.741 533.642Z" fill="#845845"/>
<path opacity="0.7" d="M204.288 534.825C204.288 540.72 199.508 545.499 193.614 545.499C187.719 545.499 182.94 540.72 182.94 534.825C182.94 528.93 187.718 524.151 193.614 524.151C199.509 524.151 204.288 528.93 204.288 534.825Z" fill="#5B3B3E"/>
<path d="M204.288 532.461C204.288 538.355 199.508 543.134 193.614 543.134C187.719 543.134 182.94 538.355 182.94 532.461C182.94 526.566 187.718 521.787 193.614 521.787C199.509 521.787 204.288 526.566 204.288 532.461Z" fill="#D69A7F"/>
<path d="M366.636 686.904V769.937C366.636 782.856 356.163 793.328 343.244 793.328H180.687C167.767 793.328 157.296 782.856 157.296 769.937V686.904C157.296 673.985 167.767 663.513 180.687 663.513H343.243C356.162 663.513 366.636 673.985 366.636 686.904Z" fill="#5B3B3E"/>
<path opacity="0.6" d="M366.636 686.904V725.126C338.473 739.824 299.877 748.892 257.287 748.892C219.244 748.892 184.377 741.656 157.297 729.625V686.904C157.297 684.019 157.819 681.267 158.77 678.717C162.083 669.836 170.645 663.513 180.688 663.513H343.244C353.288 663.513 361.847 669.836 365.161 678.717C366.113 681.268 366.636 684.02 366.636 686.904Z" fill="#AA7C65"/>
<path opacity="0.6" d="M365.16 678.718H158.769C162.082 669.837 170.644 663.514 180.687 663.514H343.243C353.287 663.513 361.846 669.837 365.16 678.718Z" fill="#AA7C65"/>
<path d="M323.948 779.299H199.982C185.795 779.299 174.25 767.756 174.25 753.568V711.468C174.25 697.28 185.794 685.737 199.982 685.737H323.948C338.135 685.737 349.679 697.28 349.679 711.468V753.568C349.68 767.755 338.136 779.299 323.948 779.299ZM199.982 690.416C188.374 690.416 178.93 699.86 178.93 711.468V753.568C178.93 765.176 188.375 774.62 199.982 774.62H323.948C335.556 774.62 345 765.176 345 753.568V711.468C345 699.859 335.556 690.416 323.948 690.416H199.982Z" fill="#5B3B3E"/>
<path opacity="0.3" d="M313.597 703.279H214.421C203.073 703.279 193.841 712.511 193.841 723.868V757.543C193.841 768.892 203.073 778.132 214.421 778.132H313.597C324.946 778.132 334.178 768.892 334.178 757.543V723.868C334.178 712.511 324.947 703.279 313.597 703.279Z" fill="#AA7C65"/>
<path d="M188.061 780.86C188.056 783.062 188.739 785.205 190.334 787.228C198.303 797.333 219.308 794.765 230.953 794.765C246.922 794.765 260.29 789.151 275.069 788.106L286.722 778.118C294.509 773.802 291.004 763.343 287.6 757.308C282.439 748.165 273.687 743.803 264.031 741.193C262.462 740.765 260.864 740.381 259.257 740.036C239.65 735.808 222.354 738.484 208.478 753.146C202.64 759.319 188.069 770.689 188.061 780.86Z" fill="#A6B9BC"/>
<path d="M188.061 780.86C188.056 783.062 188.739 785.205 190.334 787.228C198.303 797.333 219.308 794.765 230.953 794.765C246.922 794.765 260.29 789.151 275.069 788.106L286.722 778.118C294.509 773.802 291.004 763.343 287.6 757.308C282.439 748.165 273.687 743.803 264.031 741.193C265.874 745.126 265.767 749.534 264.272 756.517C261.583 769.053 256.149 768.353 243.438 766.485C234.062 765.111 224.926 763.555 215.433 762.261C222.038 765.824 229.845 768.292 235.011 773.773C231.008 775.259 227.519 778.576 223.694 780.016C218.508 781.96 214.497 780.095 209.29 780.578C204.662 781.006 201.162 783.587 195.993 783.154C193.259 782.924 190.67 781.851 188.061 780.86Z" fill="#859799"/>
<path d="M122.551 769.717C122.144 772.376 122.274 775.044 123.123 777.672C127.371 790.802 143.913 790.137 152.823 791.489C165.043 793.341 176.3 788.111 187.799 788.564L198.545 777.851C205.294 773.541 204.528 760.501 203.029 752.818C200.753 741.175 194.856 734.89 187.946 730.618C186.823 729.918 185.67 729.271 184.504 728.667C170.276 721.284 156.551 722.511 143.248 738.611C137.651 745.388 124.421 757.432 122.551 769.717Z" fill="#A6B9BC"/>
<path d="M122.551 769.717C122.144 772.376 122.274 775.044 123.123 777.672C127.371 790.802 143.913 790.137 152.823 791.489C165.043 793.341 176.3 788.111 187.799 788.564L198.545 777.851C205.294 773.541 204.528 760.501 203.029 752.818C200.753 741.175 194.856 734.89 187.946 730.618C188.636 735.583 187.745 740.894 185.323 749.156C180.969 763.985 176.94 762.51 167.556 758.778C160.632 756.031 153.926 753.092 146.9 750.427C151.301 755.497 156.824 759.383 159.772 766.603C156.436 767.933 153.16 771.535 149.97 772.831C145.646 774.577 142.916 771.86 138.845 771.838C135.225 771.819 132.074 774.53 128.198 773.407C126.15 772.813 124.367 771.217 122.551 769.717Z" fill="#859799"/>
<path d="M520.189 750.948C509.525 754.7 498.9 767.127 490.134 779.917C489.853 779.365 489.552 778.845 489.23 778.359C491.49 766.268 495.527 752.188 496.661 739.54C489.785 749.326 483.241 759.446 478.695 772.868C470.065 762.978 470.041 744.842 463.274 732.491C463.421 747.686 463.386 762.614 460.813 776.722C457.437 771.349 454.366 765.219 451.932 758.415C446.457 762.121 440.485 773.968 435.611 780.479C434.173 767.941 438.958 756.472 443.038 747.144C433.868 753.719 425.904 764.452 417.648 772.965C419.798 752.955 429.426 731.194 430.688 711.314C419.411 728.862 410.906 749.705 403.253 772.598C398.636 760.586 392.312 743.871 384.175 739.587C384.863 749.336 387.62 763.328 385.094 772.397C381.967 763.473 378.601 754.07 377.298 743.763C371.571 753.593 368.686 766.279 362.964 776.305C360.628 748.59 370.051 719.263 378.219 696.434C365.667 714.355 350.049 743.55 345.698 771.138C341.995 761.976 341.011 745.935 341.284 733.906C335.674 742.211 335.053 760.87 333.433 773.016C325.421 755.206 327.205 727.221 324.493 705.686C319.371 731.478 321.399 757.919 324.541 784.194C312.234 770.525 297.082 739.149 282.386 735.973C294.214 746.382 309.665 776.448 312.448 799.459H505.803C504.975 781.55 513.431 763.411 520.189 750.948Z" fill="#D6B632"/>
<path d="M318.87 756.359C305.989 759.506 293.157 769.93 282.568 780.657C282.23 780.193 281.865 779.758 281.476 779.35C284.206 769.209 289.082 757.399 290.453 746.79C282.146 754.998 274.242 763.486 268.752 774.744C258.329 766.449 258.299 751.237 250.125 740.878C250.301 753.623 250.26 766.144 247.151 777.977C243.073 773.471 239.366 768.329 236.424 762.622C229.811 765.73 222.597 775.667 216.709 781.128C214.972 770.612 220.751 760.992 225.68 753.168C214.605 758.683 204.984 767.685 195.013 774.826C197.609 758.042 209.239 739.789 210.762 723.115C197.141 737.833 186.868 755.316 177.624 774.517C172.046 764.442 164.408 750.421 154.58 746.829C155.41 755.006 158.741 766.741 155.69 774.348C151.914 766.862 147.848 758.976 146.274 750.331C139.356 758.576 135.87 769.217 128.959 777.626C126.137 754.38 137.52 729.782 147.386 710.634C132.225 725.665 113.359 750.153 108.103 773.292C103.63 765.608 102.441 752.153 102.771 742.064C95.9949 749.03 95.2449 764.68 93.2889 774.868C83.6099 759.929 85.7649 736.457 82.4889 718.394C76.3009 740.027 78.7529 762.205 82.5469 784.243C67.6809 772.778 49.3809 746.461 31.6289 743.797C45.9159 752.527 64.5779 777.746 67.9399 797.047H301.488C300.493 782.026 310.708 766.812 318.87 756.359Z" fill="#D6B632"/>
</svg>
